{
copyright = "Digitized data copyright (C) 2011, Google Corporation.";
customParameters = (
{
name = license;
value = "Licensed under the Apache License, Version 2.0";
},
{
name = licenseURL;
value = "http://www.apache.org/licenses/LICENSE-2.0";
},
{
name = vendorID;
value = 1ASC;
},
{
name = glyphOrder;
value = (
    ".notdef",
    null,
    nonmarkingreturn,
    space,
    exclam,
    quotedbl,
    numbersign,
    dollar,
    percent,
    ampersand,
    quotesingle,
    parenleft,
    parenright,
    asterisk,
    plus,
    comma,
    hyphen,
    period,
    slash,
    zero,
    one,
    two,
    three,
    four,
    five,
    six,
    seven,
    eight,
    nine,
    colon,
    semicolon,
    less,
    equal,
    greater,
    question,
    at,
    A,
    B,
    C,
    D,
    E,
    F,
    G,
    H,
    "I.alt",
    J,
    K,
    L,
    M,
    N,
    O,
    P,
    Q,
    R,
    S,
    T,
    U,
    V,
    W,
    X,
    Y,
    Z,
    bracketleft,
    backslash,
    bracketright,
    asciicircum,
    underscore,
    grave,
    a,
    b,
    c,
    d,
    e,
    f,
    g,
    h,
    i,
    j,
    k,
    l,
    m,
    n,
    o,
    p,
    q,
    r,
    s,
    t,
    u,
    v,
    w,
    x,
    y,
    z,
    braceleft,
    bar,
    braceright,
    asciitilde,
    nonbreakingspace,
    exclamdown,
    cent,
    sterling,
    currency,
    yen,
    brokenbar,
    section,
    dieresis,
    copyright,
    ordfeminine,
    guillemotleft,
    logicalnot,
    uni00AD,
    registered,
    overscore,
    degree,
    plusminus,
    twosuperior,
    threesuperior,
    acute,
    mu,
    paragraph,
    periodcentered,
    cedilla,
    onesuperior,
    ordmasculine,
    guillemotright,
    onequarter,
    onehalf,
    threequarters,
    questiondown,
    Agrave,
    Aacute,
    Acircumflex,
    Atilde,
    Adieresis,
    Aring,
    AE,
    Ccedilla,
    Egrave,
    Eacute,
    Ecircumflex,
    Edieresis,
    "Igrave.alt",
    "Iacute.alt",
    "Icircumflex.alt",

glyphs = (
{
glyphname = .notdef;
layers = (
{
layerId = "89C6725D-D8C2-4468-AE05-6812C209F477";
name = Bold;
paths = (
{
closed = 1;
nodes = (
"193 1462 LINE",
"1034 1462 LINE",
"1034 0 LINE",
"193 0 LINE"
);
},
{
closed = 1;
nodes = (
"297 104 LINE",
"930 104 LINE",
"930 1358 LINE",
"297 1358 LINE"
);
}
);
width = 1229;
}
);
},
{
glyphname = exclam;
layers = (
{
layerId = "89C6725D-D8C2-4468-AE05-6812C209F477";
name = Bold;
paths = (
{
closed = 1;
nodes = (
"371 444 LINE",
"197 444 LINE",
"145 1462 LINE",
"422 1462 LINE"
);
},
{
closed = 1;
nodes = (
"133 224 OFFCURVE",
"187 276 OFFCURVE",
"283 276 CURVE SMOOTH",
"378 276 OFFCURVE",
"430 220 OFFCURVE",
"430 125 CURVE SMOOTH",
"430 30 OFFCURVE",
"376 -29 OFFCURVE",
"283 -29 CURVE SMOOTH",
"188 -29 OFFCURVE",
"133 26 OFFCURVE",
"133 125 CURVE SMOOTH"
);
}
);
width = 565;
}
);
unicode = 0021;
},
{
glyphname = quotedbl;
layers = (
{
layerId = "89C6725D-D8C2-4468-AE05-6812C209F477";
name = Bold;
paths = (
{
closed = 1;
nodes = (
"365 1462 LINE",
"324 934 LINE",
"174 934 LINE",
"133 1462 LINE"
);
},
{
closed = 1;
nodes = (
"760 1462 LINE",
"719 934 LINE",
"569 934 LINE",
"528 1462 LINE"
);
}
);
width = 893;
}
);
unicode = 0022;
},
{
glyphname = numbersign;
layers = (
{
layerId = "89C6725D-D8C2-4468-AE05-6812C209F477";
name = Bold;
paths = (
{
closed = 1;
nodes = (
"989 870 LINE",
"934 586 LINE",
"1204 586 LINE",
"1204 418 LINE",
"901 418 LINE",
"821 0 LINE",
"643 0 LINE",
"723 418 LINE",
"475 418 LINE",
"395 0 LINE",
"221 0 LINE",
"297 418 LINE",
"47 418 LINE",
"47 586 LINE",
"330 586 LINE",
"387 870 LINE",
"123 870 LINE",
"123 1038 LINE",
"416 1038 LINE",
"496 1460 LINE",
"676 1460 LINE",
"596 1038 LINE",
"848 1038 LINE",
"928 1460 LINE",
"1102 1460 LINE",
"1022 1038 LINE",
"1274 1038 LINE",
"1274 870 LINE"
);
},
{
closed = 1;
nodes = (
"506 586 LINE",
"756 586 LINE",
"813 870 LINE",
"563 870 LINE"
);
}
);
width = 1323;
}
);
unicode = 0023;
},
{
glyphname = dollar;
layers = (
{
layerId = "89C6725D-D8C2-4468-AE05-6812C209F477";
name = Bold;
paths = (
{
closed = 1;
nodes = (
"1063 260 OFFCURVE",
"918 127 OFFCURVE",
"651 98 CURVE",
"651 -119 LINE",
"518 -119 LINE",
"518 92 LINE",
"353 95 OFFCURVE",
"217 120 OFFCURVE",
"111 168 CURVE",
"111 379 LINE",
"226 323 OFFCURVE",
"397 280 OFFCURVE",
"518 279 CURVE",
"518 653 LINE",
"434 684 LINE SMOOTH",
"215 768 OFFCURVE",
"119 879 OFFCURVE",
"119 1051 CURVE SMOOTH",
"119 1235 OFFCURVE",
"273 1361 OFFCURVE",
"518 1386 CURVE",
"518 1554 LINE",
"651 1554 LINE",
"651 1389 LINE",
"786 1384 OFFCURVE",
"915 1357 OFFCURVE",
"1036 1307 CURVE",
"963 1124 LINE",
"858 1165 OFFCURVE",
"754 1190 OFFCURVE",
"651 1198 CURVE",
"651 834 LINE",
"727 805 LINE SMOOTH",
"980 708 OFFCURVE",
"1063 609 OFFCURVE",
"1063 453 CURVE SMOOTH"
);
},
{
closed = 1;
nodes = (
"827 515 OFFCURVE",
"778 559 OFFCURVE",
"651 606 CURVE",
"651 287 LINE",
"768 305 OFFCURVE",
"827 355 OFFCURVE",
"827 438 CURVE SMOOTH"
);
},
{
closed = 1;
nodes = (
"354 977 OFFCURVE",
"394 932 OFFCURVE",
"518 883 CURVE",
"518 1194 LINE",
"411 1178 OFFCURVE",
"354 1126 OFFCURVE",
"354 1053 CURVE SMOOTH"
);
}
);
width = 1169;
}
);
unicode = 0024;
},
{
glyphname = percent;
layers = (
{
layerId = "89C6725D-D8C2-4468-AE05-6812C209F477";
name = Bold;
paths = (
{
closed = 1;
nodes = (
"279 925 OFFCURVE",
"289 851 OFFCURVE",
"308 802 CURVE SMOOTH",
"327 753 OFFCURVE",
"359 729 OFFCURVE",
"403 729 CURVE SMOOTH",
"491 729 OFFCURVE",
"535 827 OFFCURVE",
"535 1024 CURVE SMOOTH",
"535 1221 OFFCURVE",
"491 1319 OFFCURVE",
"403 1319 CURVE SMOOTH",
"359 1319 OFFCURVE",
"327 1295 OFFCURVE",
"308 1246 CURVE SMOOTH",
"289 1197 OFFCURVE",
"279 1123 OFFCURVE",
"279 1024 CURVE SMOOTH"
);
},
{
closed = 1;
nodes = (
"729 719 OFFCURVE",
"618 565 OFFCURVE",
"403 565 CURVE SMOOTH",
"200 565 OFFCURVE",
"84 730 OFFCURVE",
"84 1026 CURVE SMOOTH",
"84 1331 OFFCURVE",
"190 1483 OFFCURVE",
"403 1483 CURVE SMOOTH",
"612 1483 OFFCURVE",
"729 1319 OFFCURVE",
"729 1026 CURVE SMOOTH"
);
},
{
closed = 1;
nodes = (
"1231 341 OFFCURVE",
"1241 266 OFFCURVE",
"1261 217 CURVE SMOOTH",
"1280 168 OFFCURVE",
"1312 143 OFFCURVE",
"1356 143 CURVE SMOOTH",
"1443 143 OFFCURVE",
"1487 242 OFFCURVE",
"1487 440 CURVE SMOOTH",
"1487 635 OFFCURVE",
"1443 733 OFFCURVE",
"1356 733 CURVE SMOOTH",
"1312 733 OFFCURVE",
"1280 709 OFFCURVE",
"1261 661 CURVE SMOOTH",
"1241 613 OFFCURVE",
"1231 539 OFFCURVE",
"1231 440 CURVE SMOOTH"
);
},
{
closed = 1;
nodes = (
"1681 133 OFFCURVE",
"1568 -20 OFFCURVE",
"1356 -20 CURVE SMOOTH",
"1153 -20 OFFCURVE",
"1036 143 OFFCURVE",
"1036 440 CURVE SMOOTH",
"1036 745 OFFCURVE",
"1143 897 OFFCURVE",
"1356 897 CURVE SMOOTH",
"1561 897 OFFCURVE",
"1681 735 OFFCURVE",
"1681 440 CURVE SMOOTH"
);
},
{
closed = 1;
nodes = (
"1384 1462 LINE",
"573 0 LINE",
"379 0 LINE",
"1190 1462 LINE"
);
}
);
width = 1765;
}
);
unicode = 0025;
},
{
glyphname = ampersand;
layers = (
{
layerId = "89C6725D-D8C2-4468-AE05-6812C209F477";
name = Bold;
paths = (
{
closed = 1;
nodes = (
"451 1063 OFFCURVE",
"498 993 OFFCURVE",
"578 909 CURVE",
"729 994 OFFCURVE",
"782 1061 OFFCURVE",
"782 1153 CURVE SMOOTH",
"782 1240 OFFCURVE",
"719 1296 OFFCURVE",
"623 1296 CURVE SMOOTH",
"518 1296 OFFCURVE",
"451 1238 OFFCURVE",
"451 1147 CURVE SMOOTH"
);
},
{
closed = 1;
nodes = (
"722 182 OFFCURVE",
"826 218 OFFCURVE",
"913 289 CURVE",
"530 666 LINE",
"389 575 OFFCURVE",
"344 504 OFFCURVE",
"344 403 CURVE SMOOTH",
"344 272 OFFCURVE",
"444 182 OFFCURVE",
"600 182 CURVE SMOOTH"
);
},
{
closed = 1;
nodes = (
"96 562 OFFCURVE",
"168 681 OFFCURVE",
"391 809 CURVE",
"264 957 OFFCURVE",
"227 1046 OFFCURVE",
"227 1155 CURVE SMOOTH",
"227 1358 OFFCURVE",
"383 1483 OFFCURVE",
"627 1483 CURVE SMOOTH",
"863 1483 OFFCURVE",
"1006 1360 OFFCURVE",
"1006 1167 CURVE SMOOTH",
"1006 1015 OFFCURVE",
"924 898 OFFCURVE",
"713 774 CURVE",
"1059 440 LINE",
"1113 511 OFFCURVE",
"1158 616 OFFCURVE",
"1194 754 CURVE",
"1436 754 LINE",
"1389 565 OFFCURVE",
"1315 410 OFFCURVE",
"1212 291 CURVE",
"1513 0 LINE",
"1210 0 LINE",
"1061 145 LINE",
"925 36 OFFCURVE",
"775 -20 OFFCURVE",
"588 -20 CURVE SMOOTH",
"281 -20 OFFCURVE",
"96 135 OFFCURVE",
"96 387 CURVE SMOOTH"
);
}
);
width = 1516;
}
);
unicode = 0026;
},
{
glyphname = quotesingle;
layers = (
{
layerId = "89C6725D-D8C2-4468-AE05-6812C209F477";
name = Bold;
paths = (
{
closed = 1;
nodes = (
"365 1462 LINE",
"324 934 LINE",
"174 934 LINE",
"133 1462 LINE"
);
}
);
width = 498;
}
);
unicode = 0027;
},
{
glyphname = parenleft;
layers = (
{
layerId = "89C6725D-D8C2-4468-AE05-6812C209F477";
name = Bold;
paths = (
{
closed = 1;
nodes = (
"82 914 OFFCURVE",
"188 1230 OFFCURVE",
"383 1462 CURVE",
"588 1462 LINE",
"403 1211 OFFCURVE",
"301 888 OFFCURVE",
"301 563 CURVE SMOOTH",
"301 238 OFFCURVE",
"403 -77 OFFCURVE",
"586 -324 CURVE",
"383 -324 LINE",
"187 -97 OFFCURVE",
"82 213 OFFCURVE",
"82 561 CURVE SMOOTH"
);
}
);
width = 649;
}
);
unicode = 0028;
},
{
glyphname = parenright;
layers = (
{
layerId = "89C6725D-D8C2-4468-AE05-6812C209F477";
name = Bold;
paths = (
{
closed = 1;
nodes = (
"567 210 OFFCURVE",
"461 -100 OFFCURVE",
"266 -324 CURVE",
"63 -324 LINE",
"247 -75 OFFCURVE",
"348 238 OFFCURVE",
"348 563 CURVE SMOOTH",
"348 890 OFFCURVE",
"246 1210 OFFCURVE",
"61 1462 CURVE",
"266 1462 LINE",
"462 1229 OFFCURVE",
"567 912 OFFCURVE",
"567 561 CURVE SMOOTH"
);
}
);
width = 649;
}
);
unicode = 0029;
},
{
glyphname = asterisk;
layers = (
{
layerId = "89C6725D-D8C2-4468-AE05-6812C209F477";
name = Bold;
paths = (
{
closed = 1;
nodes = (
"672 1556 LINE",
"631 1174 LINE",
"1016 1282 LINE",
"1044 1065 LINE",
"684 1036 LINE",
"920 725 LINE",
"721 618 LINE",
"555 956 LINE",
"406 618 LINE",
"201 725 LINE",
"432 1036 LINE",
"74 1065 LINE",
"109 1282 LINE",
"485 1174 LINE",
"444 1556 LINE"
);
}
);
width = 1122;
}
);
unicode = 002A;
},
{
glyphname = plus;
layers = (
{
layerId = "89C6725D-D8C2-4468-AE05-6812C209F477";
name = Bold;
paths = (
{
closed = 1;
nodes = (
"494 633 LINE",
"96 633 LINE",
"96 811 LINE",
"494 811 LINE",
"494 1219 LINE",
"674 1219 LINE",
"674 811 LINE",
"1073 811 LINE",
"1073 633 LINE",
"674 633 LINE",
"674 227 LINE",
"494 227 LINE"
);
}
);
width = 1169;
}
);
unicode = 002B;
},
{
glyphname = comma;
layers = (
{
layerId = "89C6725D-D8C2-4468-AE05-6812C209F477";
name = Bold;
paths = (
{
closed = 1;
nodes = (
"412 215 LINE",
"380 91 OFFCURVE",
"321 -69 OFFCURVE",
"236 -264 CURVE",
"63 -264 LINE",
"109 -84 OFFCURVE",
"143 83 OFFCURVE",
"166 238 CURVE",
"397 238 LINE"
);
}
);
width = 547;
}
);
unicode = 002C;
},
{
glyphname = hyphen;
layers = (
{
layerId = "89C6725D-D8C2-4468-AE05-6812C209F477";
name = Bold;
paths = (
{
closed = 1;
nodes = (
"72 449 LINE",
"72 649 LINE",
"586 649 LINE",
"586 449 LINE"
);
}
);
width = 659;
}
);
unicode = 002D;
},
{
glyphname = period;
layers = (
{
layerId = "89C6725D-D8C2-4468-AE05-6812C209F477";
name = Bold;
paths = (
{
closed = 1;
nodes = (
"133 222 OFFCURVE",
"185 276 OFFCURVE",
"281 276 CURVE SMOOTH",
"378 276 OFFCURVE",
"430 218 OFFCURVE",
"430 125 CURVE SMOOTH",
"430 30 OFFCURVE",
"377 -29 OFFCURVE",
"281 -29 CURVE SMOOTH",
"185 -29 OFFCURVE",
"133 29 OFFCURVE",
"133 125 CURVE SMOOTH"
);
}
);
width = 563;
}
);
unicode = 002E;
},
{
glyphname = slash;
layers = (
{
layerId = "89C6725D-D8C2-4468-AE05-6812C209F477";
name = Bold;
paths = (
{
closed = 1;
nodes = (
"782 1462 LINE",
"238 0 LINE",
"16 0 LINE",
"561 1462 LINE"
);
}
);
width = 799;
}
);
unicode = 002F;
},
{
glyphname = zero;
layers = (
{
layerId = "89C6725D-D8C2-4468-AE05-6812C209F477";
name = Bold;
paths = (
{
closed = 1;
nodes = (
"1081 223 OFFCURVE",
"920 -20 OFFCURVE",
"584 -20 CURVE SMOOTH",
"259 -20 OFFCURVE",
"88 239 OFFCURVE",
"88 731 CURVE SMOOTH",
"88 1247 OFFCURVE",
"249 1485 OFFCURVE",
"584 1485 CURVE SMOOTH",
"911 1485 OFFCURVE",
"1081 1224 OFFCURVE",
"1081 731 CURVE SMOOTH"
);
},
{
closed = 1;
nodes = (
"326 532 OFFCURVE",
"347 389 OFFCURVE",
"388 304 CURVE SMOOTH",
"429 219 OFFCURVE",
"494 176 OFFCURVE",
"584 176 CURVE SMOOTH",
"674 176 OFFCURVE",
"740 219 OFFCURVE",
"782 306 CURVE SMOOTH",
"823 393 OFFCURVE",
"844 534 OFFCURVE",
"844 731 CURVE SMOOTH",
"844 927 OFFCURVE",
"823 1069 OFFCURVE",
"782 1157 CURVE SMOOTH",
"740 1244 OFFCURVE",
"674 1288 OFFCURVE",
"584 1288 CURVE SMOOTH",
"494 1288 OFFCURVE",
"429 1245 OFFCURVE",
"388 1159 CURVE SMOOTH",
"347 1073 OFFCURVE",
"326 930 OFFCURVE",
"326 731 CURVE SMOOTH"
);
}
);
width = 1169;
}
);
unicode = 0030;
},
{
glyphname = one;
layers = (
{
layerId = "89C6725D-D8C2-4468-AE05-6812C209F477";
name = Bold;
paths = (
{
closed = 1;
nodes = (
"780 0 LINE",
"545 0 LINE",
"545 944 LINE SMOOTH",
"545 1057 OFFCURVE",
"548 1146 OFFCURVE",
"553 1212 CURVE",
"538 1196 OFFCURVE",
"519 1178 OFFCURVE",
"497 1159 CURVE SMOOTH",
"474 1140 OFFCURVE",
"399 1078 OFFCURVE",
"272 975 CURVE",
"154 1124 LINE",
"584 1462 LINE",
"780 1462 LINE"
);
}
);
width = 1169;
}
);
unicode = 0031;
},
{
glyphname = two;
layers = (
{
layerId = "89C6725D-D8C2-4468-AE05-6812C209F477";
name = Bold;
paths = (
{
closed = 1;
nodes = (
"1081 0 LINE",
"90 0 LINE",
"90 178 LINE",
"467 557 LINE SMOOTH",
"578 671 OFFCURVE",
"652 752 OFFCURVE",
"689 800 CURVE SMOOTH",
"761 895 OFFCURVE",
"793 973 OFFCURVE",
"793 1069 CURVE SMOOTH",
"793 1201 OFFCURVE",
"709 1282 OFFCURVE",
"569 1282 CURVE SMOOTH",
"457 1282 OFFCURVE",
"362 1247 OFFCURVE",
"225 1139 CURVE",
"98 1294 LINE",
"261 1431 OFFCURVE",
"407 1483 OFFCURVE",
"580 1483 CURVE SMOOTH",
"852 1483 OFFCURVE",
"1030 1330 OFFCURVE",
"1030 1090 CURVE SMOOTH",
"1030 958 OFFCURVE",
"984 845 OFFCURVE",
"886 719 CURVE SMOOTH",
"837 656 OFFCURVE",
"755 570 OFFCURVE",
"641 463 CURVE SMOOTH",
"387 217 LINE",
"387 207 LINE",
"1081 207 LINE"
);
}
);
width = 1169;
}
);
unicode = 0032;
},
{
glyphname = three;
layers = (
{
layerId = "89C6725D-D8C2-4468-AE05-6812C209F477";
name = Bold;
paths = (
{
closed = 1;
nodes = (
"1026 941 OFFCURVE",
"913 813 OFFCURVE",
"717 770 CURVE",
"717 762 LINE",
"952 733 OFFCURVE",
"1069 613 OFFCURVE",
"1069 420 CURVE SMOOTH",
"1069 139 OFFCURVE",
"863 -20 OFFCURVE",
"496 -20 CURVE SMOOTH",
"334 -20 OFFCURVE",
"197 6 OFFCURVE",
"86 59 CURVE",
"86 268 LINE",
"210 207 OFFCURVE",
"355 172 OFFCURVE",
"483 172 CURVE SMOOTH",
"710 172 OFFCURVE",
"821 254 OFFCURVE",
"821 430 CURVE SMOOTH",
"821 586 OFFCURVE",
"701 657 OFFCURVE",
"436 657 CURVE SMOOTH",
"309 657 LINE",
"309 848 LINE",
"438 848 LINE SMOOTH",
"671 848 OFFCURVE",
"788 929 OFFCURVE",
"788 1090 CURVE SMOOTH",
"788 1215 OFFCURVE",
"706 1286 OFFCURVE",
"547 1286 CURVE SMOOTH",
"436 1286 OFFCURVE",
"345 1262 OFFCURVE",
"205 1171 CURVE",
"90 1335 LINE",
"224 1434 OFFCURVE",
"380 1483 OFFCURVE",
"557 1483 CURVE SMOOTH",
"852 1483 OFFCURVE",
"1026 1349 OFFCURVE",
"1026 1126 CURVE SMOOTH"
);
}
);
width = 1169;
}
);
unicode = 0033;
},
{
glyphname = four;
layers = (
{
layerId = "89C6725D-D8C2-4468-AE05-6812C209F477";
name = Bold;
paths = (
{
closed = 1;
nodes = (
"1133 319 LINE",
"936 319 LINE",
"936 0 LINE",
"707 0 LINE",
"707 319 LINE",
"39 319 LINE",
"39 500 LINE",
"707 1466 LINE",
"936 1466 LINE",
"936 514 LINE",
"1133 514 LINE"
);
},
{
closed = 1;
nodes = (
"707 514 LINE",
"707 881 LINE SMOOTH",
"707 1012 OFFCURVE",
"710 1119 OFFCURVE",
"717 1202 CURVE",
"709 1202 LINE",
"690 1158 OFFCURVE",
"661 1105 OFFCURVE",
"621 1042 CURVE",
"258 514 LINE"
);
}
);
width = 1169;
}
);
unicode = 0034;
},
{
glyphname = five;
layers = (
{
layerId = "89C6725D-D8C2-4468-AE05-6812C209F477";
name = Bold;
paths = (
{
closed = 1;
nodes = (
"881 913 OFFCURVE",
"1065 746 OFFCURVE",
"1065 477 CURVE SMOOTH",
"1065 165 OFFCURVE",
"862 -20 OFFCURVE",
"502 -20 CURVE SMOOTH",
"339 -20 OFFCURVE",
"210 6 OFFCURVE",
"117 59 CURVE",
"117 272 LINE",
"225 211 OFFCURVE",
"378 176 OFFCURVE",
"498 176 CURVE SMOOTH",
"710 176 OFFCURVE",
"823 272 OFFCURVE",
"823 455 CURVE SMOOTH",
"823 630 OFFCURVE",
"712 717 OFFCURVE",
"489 717 CURVE SMOOTH",
"426 717 OFFCURVE",
"321 702 OFFCURVE",
"252 686 CURVE",
"147 748 LINE",
"203 1462 LINE",
"963 1462 LINE",
"963 1253 LINE",
"410 1253 LINE",
"377 891 LINE",
"424 899 OFFCURVE",
"489 913 OFFCURVE",
"586 913 CURVE SMOOTH"
);
}
);
width = 1169;
}
);
unicode = 0035;
},
{
glyphname = six;
layers = (
{
layerId = "89C6725D-D8C2-4468-AE05-6812C209F477";
name = Bold;
paths = (
{
closed = 1;
nodes = (
"94 1195 OFFCURVE",
"327 1481 OFFCURVE",
"793 1481 CURVE SMOOTH",
"866 1481 OFFCURVE",
"928 1475 OFFCURVE",
"979 1464 CURVE",
"979 1268 LINE",
"928 1283 OFFCURVE",
"870 1290 OFFCURVE",
"803 1290 CURVE SMOOTH",
"490 1290 OFFCURVE",
"335 1131 OFFCURVE",
"322 760 CURVE",
"334 760 LINE",
"397 868 OFFCURVE",
"513 930 OFFCURVE",
"666 930 CURVE SMOOTH",
"931 930 OFFCURVE",
"1087 756 OFFCURVE",
"1087 477 CURVE SMOOTH",
"1087 170 OFFCURVE",
"904 -20 OFFCURVE",
"608 -20 CURVE SMOOTH",
"399 -20 OFFCURVE",
"240 83 OFFCURVE",
"157 276 CURVE SMOOTH",
"115 372 OFFCURVE",
"94 488 OFFCURVE",
"94 623 CURVE SMOOTH"
);
},
{
closed = 1;
nodes = (
"765 174 OFFCURVE",
"856 282 OFFCURVE",
"856 475 CURVE SMOOTH",
"856 643 OFFCURVE",
"774 745 OFFCURVE",
"610 745 CURVE SMOOTH",
"509 745 OFFCURVE",
"418 699 OFFCURVE",
"369 624 CURVE SMOOTH",
"344 586 OFFCURVE",
"332 547 OFFCURVE",
"332 508 CURVE SMOOTH",
"332 320 OFFCURVE",
"445 174 OFFCURVE",
"604 174 CURVE SMOOTH"
);
}
);
width = 1169;
}
);
unicode = 0036;
},
{
glyphname = seven;
layers = (
{
layerId = "89C6725D-D8C2-4468-AE05-6812C209F477";
name = Bold;
paths = (
{
closed = 1;
nodes = (
"256 0 LINE",
"834 1253 LINE",
"74 1253 LINE",
"74 1460 LINE",
"1085 1460 LINE",
"1085 1296 LINE",
"510 0 LINE"
);
}
);
width = 1169;
}
);
unicode = 0037;
},
{
glyphname = eight;
layers = (
{
layerId = "89C6725D-D8C2-4468-AE05-6812C209F477";
name = Bold;
paths = (
{
closed = 1;
nodes = (
"861 1481 OFFCURVE",
"1034 1343 OFFCURVE",
"1034 1130 CURVE SMOOTH",
"1034 980 OFFCURVE",
"944 861 OFFCURVE",
"764 772 CURVE",
"993 657 OFFCURVE",
"1081 535 OFFCURVE",
"1081 379 CURVE SMOOTH",
"1081 138 OFFCURVE",
"891 -20 OFFCURVE",
"588 -20 CURVE SMOOTH",
"271 -20 OFFCURVE",
"88 122 OFFCURVE",
"88 371 CURVE SMOOTH",
"88 534 OFFCURVE",
"173 663 OFFCURVE",
"381 764 CURVE",
"202 871 OFFCURVE",
"133 985 OFFCURVE",
"133 1133 CURVE SMOOTH",
"133 1345 OFFCURVE",
"316 1481 OFFCURVE",
"584 1481 CURVE SMOOTH"
);
},
{
closed = 1;
nodes = (
"313 240 OFFCURVE",
"417 160 OFFCURVE",
"584 160 CURVE SMOOTH",
"756 160 OFFCURVE",
"856 245 OFFCURVE",
"856 381 CURVE SMOOTH",
"856 489 OFFCURVE",
"769 577 OFFCURVE",
"590 653 CURVE SMOOTH",
"561 666 LINE",
"385 589 OFFCURVE",
"313 499 OFFCURVE",
"313 379 CURVE SMOOTH"
);
},
{
closed = 1;
nodes = (
"449 1300 OFFCURVE",
"360 1229 OFFCURVE",
"360 1116 CURVE SMOOTH",
"360 1047 OFFCURVE",
"390 993 OFFCURVE",
"446 949 CURVE SMOOTH",
"474 926 OFFCURVE",
"521 899 OFFCURVE",
"588 868 CURVE",
"748 939 OFFCURVE",
"807 1012 OFFCURVE",
"807 1116 CURVE SMOOTH",
"807 1229 OFFCURVE",
"718 1300 OFFCURVE",
"582 1300 CURVE SMOOTH"
);
}
);
width = 1169;
}
);
unicode = 0038;
},
{
glyphname = nine;
layers = (
{
layerId = "89C6725D-D8C2-4468-AE05-6812C209F477";
name = Bold;
paths = (
{
closed = 1;
nodes = (
"1079 262 OFFCURVE",
"848 -20 OFFCURVE",
"381 -20 CURVE SMOOTH",
"292 -20 OFFCURVE",
"229 -15 OFFCURVE",
"190 -4 CURVE",
"190 193 LINE",
"249 176 OFFCURVE",
"309 168 OFFCURVE",
"369 168 CURVE SMOOTH",
"686 168 OFFCURVE",
"837 333 OFFCURVE",
"852 698 CURVE",
"840 698 LINE",
"761 578 OFFCURVE",
"651 528 OFFCURVE",
"502 528 CURVE SMOOTH",
"243 528 OFFCURVE",
"86 700 OFFCURVE",
"86 981 CURVE SMOOTH",
"86 1286 OFFCURVE",
"269 1481 OFFCURVE",
"565 1481 CURVE SMOOTH",
"773 1481 OFFCURVE",
"932 1377 OFFCURVE",
"1016 1185 CURVE SMOOTH",
"1058 1088 OFFCURVE",
"1079 973 OFFCURVE",
"1079 838 CURVE SMOOTH"
);
},
{
closed = 1;
nodes = (
"406 1286 OFFCURVE",
"317 1175 OFFCURVE",
"317 983 CURVE SMOOTH",
"317 816 OFFCURVE",
"397 715 OFFCURVE",
"561 715 CURVE SMOOTH",
"720 715 OFFCURVE",
"842 825 OFFCURVE",
"842 952 CURVE SMOOTH",
"842 1071 OFFCURVE",
"794 1181 OFFCURVE",
"711 1241 CURVE SMOOTH",
"670 1271 OFFCURVE",
"622 1286 OFFCURVE",
"569 1286 CURVE SMOOTH"
);
}
);
width = 1169;
}
);
unicode = 0039;
},
{
glyphname = colon;
layers = (
{
layerId = "89C6725D-D8C2-4468-AE05-6812C209F477";
name = Bold;
paths = (
{
closed = 1;
nodes = (
"133 222 OFFCURVE",
"185 276 OFFCURVE",
"281 276 CURVE SMOOTH",
"378 276 OFFCURVE",
"430 218 OFFCURVE",
"430 125 CURVE SMOOTH",
"430 30 OFFCURVE",
"377 -29 OFFCURVE",
"281 -29 CURVE SMOOTH",
"185 -29 OFFCURVE",
"133 29 OFFCURVE",
"133 125 CURVE SMOOTH"
);
},
{
closed = 1;
nodes = (
"133 1080 OFFCURVE",
"182 1130 OFFCURVE",
"281 1130 CURVE SMOOTH",
"381 1130 OFFCURVE",
"430 1074 OFFCURVE",
"430 979 CURVE SMOOTH",
"430 884 OFFCURVE",
"377 825 OFFCURVE",
"281 825 CURVE SMOOTH",
"185 825 OFFCURVE",
"133 883 OFFCURVE",
"133 979 CURVE SMOOTH"
);
}
);
width = 563;
}
);
unicode = 003A;
},
{
glyphname = semicolon;
layers = (
{
layerId = "89C6725D-D8C2-4468-AE05-6812C209F477";
name = Bold;
paths = (
{
closed = 1;
nodes = (
"397 238 LINE",
"412 215 LINE",
"380 91 OFFCURVE",
"321 -69 OFFCURVE",
"236 -264 CURVE",
"63 -264 LINE",
"109 -84 OFFCURVE",
"143 83 OFFCURVE",
"166 238 CURVE"
);
},
{
closed = 1;
nodes = (
"131 1080 OFFCURVE",
"180 1130 OFFCURVE",
"279 1130 CURVE SMOOTH",
"379 1130 OFFCURVE",
"428 1074 OFFCURVE",
"428 979 CURVE SMOOTH",
"428 884 OFFCURVE",
"375 825 OFFCURVE",
"279 825 CURVE SMOOTH",
"183 825 OFFCURVE",
"131 883 OFFCURVE",
"131 979 CURVE SMOOTH"
);
}
);
width = 569;
}
);
unicode = 003B;
},
{
glyphname = less;
layers = (
{
layerId = "89C6725D-D8C2-4468-AE05-6812C209F477";
name = Bold;
paths = (
{
closed = 1;
nodes = (
"1073 221 LINE",
"96 651 LINE",
"96 772 LINE",
"1073 1260 LINE",
"1073 1065 LINE",
"340 721 LINE",
"1073 418 LINE"
);
}
);
width = 1169;
}
);
unicode = 003C;
},
{
glyphname = equal;
layers = (
{
layerId = "89C6725D-D8C2-4468-AE05-6812C209F477";
name = Bold;
paths = (
{
closed = 1;
nodes = (
"102 831 LINE",
"102 1010 LINE",
"1065 1010 LINE",
"1065 831 LINE"
);
},
{
closed = 1;
nodes = (
"102 432 LINE",
"102 610 LINE",
"1065 610 LINE",
"1065 432 LINE"
);
}
);
width = 1169;
}
);
unicode = 003D;
},
{
glyphname = greater;
layers = (
{
layerId = "89C6725D-D8C2-4468-AE05-6812C209F477";
name = Bold;
paths = (
{
closed = 1;
nodes = (
"96 418 LINE",
"829 721 LINE",
"96 1065 LINE",
"96 1260 LINE",
"1073 772 LINE",
"1073 651 LINE",
"96 221 LINE"
);
}
);
width = 1169;
}
);
unicode = 003E;
},
{
glyphname = question;
layers = (
{
layerId = "89C6725D-D8C2-4468-AE05-6812C209F477";
name = Bold;
paths = (
{
closed = 1;
nodes = (
"283 444 LINE",
"283 508 LINE SMOOTH",
"283 655 OFFCURVE",
"330 738 OFFCURVE",
"463 842 CURVE SMOOTH",
"622 967 OFFCURVE",
"651 1016 OFFCURVE",
"651 1112 CURVE SMOOTH",
"651 1224 OFFCURVE",
"574 1286 OFFCURVE",
"434 1286 CURVE SMOOTH",
"307 1286 OFFCURVE",
"203 1245 OFFCURVE",
"100 1194 CURVE",
"16 1370 LINE",
"151 1445 OFFCURVE",
"296 1483 OFFCURVE",
"451 1483 CURVE SMOOTH",
"712 1483 OFFCURVE",
"877 1347 OFFCURVE",
"877 1122 CURVE SMOOTH",
"877 1022 OFFCURVE",
"848 948 OFFCURVE",
"789 877 CURVE SMOOTH",
"759 842 OFFCURVE",
"708 796 OFFCURVE",
"635 739 CURVE SMOOTH",
"511 642 OFFCURVE",
"479 597 OFFCURVE",
"479 489 CURVE SMOOTH",
"479 444 LINE"
);
},
{
closed = 1;
nodes = (
"242 226 OFFCURVE",
"291 276 OFFCURVE",
"389 276 CURVE SMOOTH",
"485 276 OFFCURVE",
"537 221 OFFCURVE",
"537 125 CURVE SMOOTH",
"537 30 OFFCURVE",
"484 -29 OFFCURVE",
"389 -29 CURVE SMOOTH",
"294 -29 OFFCURVE",
"242 28 OFFCURVE",
"242 125 CURVE SMOOTH"
);
}
);
width = 928;
}
);
unicode = 003F;
},
{
glyphname = at;
layers = (
{
layerId = "89C6725D-D8C2-4468-AE05-6812C209F477";
name = Bold;
paths = (
{
closed = 1;
nodes = (
"1726 548 OFFCURVE",
"1663 381 OFFCURVE",
"1555 293 CURVE SMOOTH",
"1500 249 OFFCURVE",
"1437 227 OFFCURVE",
"1366 227 CURVE SMOOTH",
"1261 227 OFFCURVE",
"1178 287 OFFCURVE",
"1151 383 CURVE",
"1139 383 LINE",
"1074 279 OFFCURVE",
"976 227 OFFCURVE",
"856 227 CURVE SMOOTH",
"639 227 OFFCURVE",
"506 377 OFFCURVE",
"506 616 CURVE SMOOTH",
"506 891 OFFCURVE",
"684 1079 OFFCURVE",
"963 1079 CURVE SMOOTH",
"1064 1079 OFFCURVE",
"1200 1060 OFFCURVE",
"1296 1028 CURVE",
"1274 563 LINE",
"1274 539 LINE SMOOTH",
"1274 432 OFFCURVE",
"1309 379 OFFCURVE",
"1378 379 CURVE SMOOTH",
"1483 379 OFFCURVE",
"1550 530 OFFCURVE",
"1550 741 CURVE SMOOTH",
"1550 969 OFFCURVE",
"1453 1148 OFFCURVE",
"1281 1241 CURVE SMOOTH",
"1195 1288 OFFCURVE",
"1096 1311 OFFCURVE",
"985 1311 CURVE SMOOTH",
"701 1311 OFFCURVE",
"485 1190 OFFCURVE",
"374 972 CURVE SMOOTH",
"319 863 OFFCURVE",
"291 736 OFFCURVE",
"291 592 CURVE SMOOTH",
"291 205 OFFCURVE",
"504 -10 OFFCURVE",
"891 -10 CURVE SMOOTH",
"1038 -10 OFFCURVE",
"1192 20 OFFCURVE",
"1352 80 CURVE",
"1352 -84 LINE",
"1212 -141 OFFCURVE",
"1060 -170 OFFCURVE",
"895 -170 CURVE SMOOTH",
"402 -170 OFFCURVE",
"111 110 OFFCURVE",
"111 586 CURVE SMOOTH",
"111 934 OFFCURVE",
"269 1218 OFFCURVE",
"534 1362 CURVE SMOOTH",
"666 1434 OFFCURVE",
"816 1470 OFFCURVE",
"983 1470 CURVE SMOOTH",
"1272 1470 OFFCURVE",
"1508 1346 OFFCURVE",
"1633 1124 CURVE SMOOTH",
"1695 1013 OFFCURVE",
"1726 884 OFFCURVE",
"1726 739 CURVE SMOOTH"
);
},
{
closed = 1;
nodes = (
"698 457 OFFCURVE",
"759 379 OFFCURVE",
"881 379 CURVE SMOOTH",
"1010 379 OFFCURVE",
"1080 477 OFFCURVE",
"1092 672 CURVE SMOOTH",
"1104 911 LINE",
"1062 922 OFFCURVE",
"1017 928 OFFCURVE",
"969 928 CURVE SMOOTH",
"798 928 OFFCURVE",
"698 807 OFFCURVE",
"698 612 CURVE SMOOTH"
);
}
);
width = 1839;
}
);
unicode = 0040;
},
{
glyphname = A;
layers = (
{
layerId = "89C6725D-D8C2-4468-AE05-6812C209F477";
name = Bold;
paths = (
{
closed = 1;
nodes = (
"1100 0 LINE",
"954 406 LINE",
"395 406 LINE",
"252 0 LINE",
"0 0 LINE",
"547 1468 LINE",
"807 1468 LINE",
"1354 0 LINE"
);
},
{
closed = 1;
nodes = (
"891 612 LINE",
"754 1010 LINE SMOOTH",
"734 1063 OFFCURVE",
"689 1209 OFFCURVE",
"676 1262 CURVE",
"658 1180 OFFCURVE",
"632 1090 OFFCURVE",
"597 993 CURVE SMOOTH",
"465 612 LINE"
);
}
);
width = 1354;
}
);
unicode = 0041;
},
{
glyphname = B;
layers = (
{
layerId = "89C6725D-D8C2-4468-AE05-6812C209F477";
name = Bold;
paths = (
{
closed = 1;
nodes = (
"193 1462 LINE",
"627 1462 LINE SMOOTH",
"1030 1462 OFFCURVE",
"1198 1349 OFFCURVE",
"1198 1096 CURVE SMOOTH",
"1198 925 OFFCURVE",
"1107 805 OFFCURVE",
"942 776 CURVE",
"942 766 LINE",
"1147 727 OFFCURVE",
"1241 615 OFFCURVE",
"1241 420 CURVE SMOOTH",
"1241 157 OFFCURVE",
"1048 0 OFFCURVE",
"721 0 CURVE SMOOTH",
"193 0 LINE"
);
},
{
closed = 1;
nodes = (
"432 858 LINE",
"662 858 LINE SMOOTH",
"862 858 OFFCURVE",
"950 915 OFFCURVE",
"950 1067 CURVE SMOOTH",
"950 1204 OFFCURVE",
"855 1262 OFFCURVE",
"639 1262 CURVE SMOOTH",
"432 1262 LINE"
);
},
{
closed = 1;
nodes = (
"432 664 LINE",
"432 201 LINE",
"686 201 LINE SMOOTH",
"886 201 OFFCURVE",
"989 275 OFFCURVE",
"989 440 CURVE SMOOTH",
"989 592 OFFCURVE",
"886 664 OFFCURVE",
"674 664 CURVE SMOOTH"
);
}
);
width = 1352;
}
);
unicode = 0042;
},
{
glyphname = C;
layers = (
{
layerId = "89C6725D-D8C2-4468-AE05-6812C209F477";
name = Bold;
paths = (
{
closed = 1;
nodes = (
"540 1278 OFFCURVE",
"373 1072 OFFCURVE",
"373 729 CURVE SMOOTH",
"373 370 OFFCURVE",
"528 184 OFFCURVE",
"815 184 CURVE SMOOTH",
"939 184 OFFCURVE",
"1051 211 OFFCURVE",
"1176 250 CURVE",
"1176 45 LINE",
"1061 2 OFFCURVE",
"931 -20 OFFCURVE",
"786 -20 CURVE SMOOTH",
"358 -20 OFFCURVE",
"121 248 OFFCURVE",
"121 731 CURVE SMOOTH",
"121 1035 OFFCURVE",
"235 1271 OFFCURVE",
"446 1392 CURVE SMOOTH",
"551 1453 OFFCURVE",
"675 1483 OFFCURVE",
"817 1483 CURVE SMOOTH",
"966 1483 OFFCURVE",
"1104 1452 OFFCURVE",
"1231 1389 CURVE",
"1145 1190 LINE",
"1046 1237 OFFCURVE",
"936 1278 OFFCURVE",
"815 1278 CURVE SMOOTH"
);
}
);
width = 1298;
}
);
unicode = 0043;
},
{
glyphname = D;
layers = (
{
layerId = "89C6725D-D8C2-4468-AE05-6812C209F477";
name = Bold;
paths = (
{
closed = 1;
nodes = (
"1382 262 OFFCURVE",
"1106 0 OFFCURVE",
"602 0 CURVE SMOOTH",
"193 0 LINE",
"193 1462 LINE",
"645 1462 LINE SMOOTH",
"1110 1462 OFFCURVE",
"1382 1200 OFFCURVE",
"1382 745 CURVE SMOOTH"
);
},
{
closed = 1;
nodes = (
"1130 1087 OFFCURVE",
"966 1262 OFFCURVE",
"639 1262 CURVE SMOOTH",
"432 1262 LINE",
"432 201 LINE",
"602 201 LINE SMOOTH",
"954 201 OFFCURVE",
"1130 380 OFFCURVE",
"1130 737 CURVE SMOOTH"
);
}
);
width = 1503;
}
);
unicode = 0044;
},
{
glyphname = E;
layers = (
{
layerId = "89C6725D-D8C2-4468-AE05-6812C209F477";
name = Bold;
paths = (
{
closed = 1;
nodes = (
"1020 0 LINE",
"193 0 LINE",
"193 1462 LINE",
"1020 1462 LINE",
"1020 1260 LINE",
"432 1260 LINE",
"432 862 LINE",
"983 862 LINE",
"983 662 LINE",
"432 662 LINE",
"432 203 LINE",
"1020 203 LINE"
);
}
);
width = 1143;
}
);
unicode = 0045;
},
{
glyphname = F;
layers = (
{
layerId = "89C6725D-D8C2-4468-AE05-6812C209F477";
name = Bold;
paths = (
{
closed = 1;
nodes = (
"430 0 LINE",
"193 0 LINE",
"193 1462 LINE",
"1018 1462 LINE",
"1018 1260 LINE",
"430 1260 LINE",
"430 803 LINE",
"981 803 LINE",
"981 600 LINE",
"430 600 LINE"
);
}
);
width = 1090;
}
);
unicode = 0046;
},
{
glyphname = G;
layers = (
{
layerId = "89C6725D-D8C2-4468-AE05-6812C209F477";
name = Bold;
paths = (
{
closed = 1;
nodes = (
"791 793 LINE",
"1329 793 LINE",
"1329 59 LINE",
"1153 2 OFFCURVE",
"1001 -20 OFFCURVE",
"813 -20 CURVE SMOOTH",
"370 -20 OFFCURVE",
"121 254 OFFCURVE",
"121 731 CURVE SMOOTH",
"121 1202 OFFCURVE",
"408 1483 OFFCURVE",
"883 1483 CURVE SMOOTH",
"1036 1483 OFFCURVE",
"1180 1454 OFFCURVE",
"1317 1395 CURVE",
"1233 1196 LINE",
"1114 1251 OFFCURVE",
"996 1278 OFFCURVE",
"877 1278 CURVE SMOOTH",
"565 1278 OFFCURVE",
"371 1069 OFFCURVE",
"371 729 CURVE SMOOTH",
"371 372 OFFCURVE",
"539 182 OFFCURVE",
"846 182 CURVE SMOOTH",
"923 182 OFFCURVE",
"1006 192 OFFCURVE",
"1094 211 CURVE",
"1094 588 LINE",
"791 588 LINE"
);
}
);
width = 1487;
}
);
unicode = 0047;
},
{
glyphname = H;
layers = (
{
layerId = "89C6725D-D8C2-4468-AE05-6812C209F477";
name = Bold;
paths = (
{
closed = 1;
nodes = (
"1346 0 LINE",
"1106 0 LINE",
"1106 659 LINE",
"432 659 LINE",
"432 0 LINE",
"193 0 LINE",
"193 1462 LINE",
"432 1462 LINE",
"432 864 LINE",
"1106 864 LINE",
"1106 1462 LINE",
"1346 1462 LINE"
);
}
);
width = 1538;
}
);
unicode = 0048;
},
{
glyphname = I.alt;
layers = (
{
layerId = "89C6725D-D8C2-4468-AE05-6812C209F477";
name = Bold;
paths = (
{
closed = 1;
nodes = (
"664 0 LINE",
"74 0 LINE",
"74 137 LINE",
"250 195 LINE",
"250 1266 LINE",
"74 1325 LINE",
"74 1462 LINE",
"664 1462 LINE",
"664 1325 LINE",
"489 1266 LINE",
"489 195 LINE",
"664 137 LINE"
);
}
);
width = 739;
}
);
},
{
glyphname = J;
layers = (
{
layerId = "89C6725D-D8C2-4468-AE05-6812C209F477";
name = Bold;
paths = (
{
closed = 1;
nodes = (
"-57 -408 OFFCURVE",
"-112 -400 OFFCURVE",
"-156 -383 CURVE",
"-156 -182 LINE",
"-100 -196 OFFCURVE",
"-51 -203 OFFCURVE",
"-10 -203 CURVE SMOOTH",
"121 -203 OFFCURVE",
"186 -120 OFFCURVE",
"186 45 CURVE SMOOTH",
"186 1462 LINE",
"426 1462 LINE",
"426 53 LINE SMOOTH",
"426 -246 OFFCURVE",
"281 -408 OFFCURVE",
"8 -408 CURVE SMOOTH"
);
}
);
width = 612;
}
);
unicode = 004A;
},
{
glyphname = K;
layers = (
{
layerId = "89C6725D-D8C2-4468-AE05-6812C209F477";
name = Bold;
paths = (
{
closed = 1;
nodes = (
"1309 0 LINE",
"1032 0 LINE",
"573 662 LINE",
"432 547 LINE",
"432 0 LINE",
"193 0 LINE",
"193 1462 LINE",
"432 1462 LINE",
"432 764 LINE",
"497 844 OFFCURVE",
"562 921 OFFCURVE",
"627 995 CURVE SMOOTH",
"1022 1462 LINE",
"1294 1462 LINE",
"1039 1162 OFFCURVE",
"856 948 OFFCURVE",
"745 821 CURVE"
);
}
);
width = 1309;
}
);
unicode = 004B;
},
{
glyphname = L;
layers = (
{
layerId = "89C6725D-D8C2-4468-AE05-6812C209F477";
name = Bold;
paths = (
{
closed = 1;
nodes = (
"193 0 LINE",
"193 1462 LINE",
"432 1462 LINE",
"432 205 LINE",
"1051 205 LINE",
"1051 0 LINE"
);
}
);
width = 1110;
}
);
unicode = 004C;
},
{
glyphname = M;
layers = (
{
layerId = "89C6725D-D8C2-4468-AE05-6812C209F477";
name = Bold;
paths = (
{
closed = 1;
nodes = (
"825 0 LINE",
"401 1221 LINE",
"393 1221 LINE",
"404 1040 OFFCURVE",
"410 870 OFFCURVE",
"410 711 CURVE SMOOTH",
"410 0 LINE",
"193 0 LINE",
"193 1462 LINE",
"530 1462 LINE",
"936 299 LINE",
"942 299 LINE",
"1360 1462 LINE",
"1698 1462 LINE",
"1698 0 LINE",
"1468 0 LINE",
"1468 723 LINE SMOOTH",
"1468 868 OFFCURVE",
"1478 1170 OFFCURVE",
"1483 1219 CURVE",
"1475 1219 LINE",
"1036 0 LINE"
);
}
);
width = 1890;
}
);
unicode = 004D;
},
{
glyphname = N;
layers = (
{
layerId = "89C6725D-D8C2-4468-AE05-6812C209F477";
name = Bold;
paths = (
{
closed = 1;
nodes = (
"1411 0 LINE",
"1118 0 LINE",
"399 1165 LINE",
"391 1165 LINE",
"396 1100 LINE SMOOTH",
"405 976 OFFCURVE",
"410 863 OFFCURVE",
"410 760 CURVE SMOOTH",
"410 0 LINE",
"193 0 LINE",
"193 1462 LINE",
"483 1462 LINE",
"1200 303 LINE",
"1206 303 LINE",
"1203 334 OFFCURVE",
"1192 588 OFFCURVE",
"1192 696 CURVE SMOOTH",
"1192 1462 LINE",
"1411 1462 LINE"
);
}
);
width = 1604;
}
);
unicode = 004E;
},
{
glyphname = O;
layers = (
{
layerId = "89C6725D-D8C2-4468-AE05-6812C209F477";
name = Bold;
paths = (
{
closed = 1;
nodes = (
"1491 257 OFFCURVE",
"1243 -20 OFFCURVE",
"807 -20 CURVE SMOOTH",
"366 -20 OFFCURVE",
"121 252 OFFCURVE",
"121 735 CURVE SMOOTH",
"121 1218 OFFCURVE",
"368 1485 OFFCURVE",
"809 1485 CURVE SMOOTH",
"1244 1485 OFFCURVE",
"1491 1210 OFFCURVE",
"1491 733 CURVE SMOOTH"
);
},
{
closed = 1;
nodes = (
"375 373 OFFCURVE",
"522 184 OFFCURVE",
"807 184 CURVE SMOOTH",
"1091 184 OFFCURVE",
"1237 369 OFFCURVE",
"1237 733 CURVE SMOOTH",
"1237 1092 OFFCURVE",
"1093 1280 OFFCURVE",
"809 1280 CURVE SMOOTH",
"522 1280 OFFCURVE",
"375 1092 OFFCURVE",
"375 733 CURVE SMOOTH"
);
}
);
width = 1612;
}
);
unicode = 004F;
},
{
glyphname = P;
layers = (
{
layerId = "89C6725D-D8C2-4468-AE05-6812C209F477";
name = Bold;
paths = (
{
closed = 1;
nodes = (
"1161 715 OFFCURVE",
"953 547 OFFCURVE",
"584 547 CURVE SMOOTH",
"432 547 LINE",
"432 0 LINE",
"193 0 LINE",
"193 1462 LINE",
"614 1462 LINE SMOOTH",
"979 1462 OFFCURVE",
"1161 1311 OFFCURVE",
"1161 1020 CURVE SMOOTH"
);
},
{
closed = 1;
nodes = (
"432 748 LINE",
"559 748 LINE SMOOTH",
"804 748 OFFCURVE",
"915 831 OFFCURVE",
"915 1012 CURVE SMOOTH",
"915 1180 OFFCURVE",
"815 1262 OFFCURVE",
"598 1262 CURVE SMOOTH",
"432 1262 LINE"
);
}
);
width = 1260;
}
);
unicode = 0050;
},
{
glyphname = Q;
layers = (
{
layerId = "89C6725D-D8C2-4468-AE05-6812C209F477";
name = Bold;
paths = (
{
closed = 1;
nodes = (
"1491 378 OFFCURVE",
"1353 128 OFFCURVE",
"1094 29 CURVE",
"1444 -348 LINE",
"1122 -348 LINE",
"846 -20 LINE",
"807 -20 LINE SMOOTH",
"366 -20 OFFCURVE",
"121 252 OFFCURVE",
"121 735 CURVE SMOOTH",
"121 1218 OFFCURVE",
"368 1485 OFFCURVE",
"809 1485 CURVE SMOOTH",
"1244 1485 OFFCURVE",
"1491 1210 OFFCURVE",
"1491 733 CURVE SMOOTH"
);
},
{
closed = 1;
nodes = (
"375 373 OFFCURVE",
"522 184 OFFCURVE",
"807 184 CURVE SMOOTH",
"1091 184 OFFCURVE",
"1237 369 OFFCURVE",
"1237 733 CURVE SMOOTH",
"1237 1092 OFFCURVE",
"1093 1280 OFFCURVE",
"809 1280 CURVE SMOOTH",
"522 1280 OFFCURVE",
"375 1092 OFFCURVE",
"375 733 CURVE SMOOTH"
);
}
);
width = 1612;
}
);
unicode = 0051;
},
{
glyphname = R;
layers = (
{
layerId = "89C6725D-D8C2-4468-AE05-6812C209F477";
name = Bold;
paths = (
{
closed = 1;
nodes = (
"432 782 LINE",
"598 782 LINE SMOOTH",
"821 782 OFFCURVE",
"915 865 OFFCURVE",
"915 1028 CURVE SMOOTH",
"915 1193 OFFCURVE",
"807 1260 OFFCURVE",
"590 1260 CURVE SMOOTH",
"432 1260 LINE"
);
},
{
closed = 1;
nodes = (
"432 584 LINE",
"432 0 LINE",
"193 0 LINE",
"193 1462 LINE",
"606 1462 LINE SMOOTH",
"983 1462 OFFCURVE",
"1161 1321 OFFCURVE",
"1161 1036 CURVE SMOOTH",
"1161 854 OFFCURVE",
"1066 724 OFFCURVE",
"877 647 CURVE",
"1290 0 LINE",
"1018 0 LINE",
"668 584 LINE"
);
}
);
width = 1309;
}
);
unicode = 0052;
},
{
glyphname = S;
layers = (
{
layerId = "89C6725D-D8C2-4468-AE05-6812C209F477";
name = Bold;
paths = (
{
closed = 1;
nodes = (
"1036 137 OFFCURVE",
"837 -20 OFFCURVE",
"506 -20 CURVE SMOOTH",
"341 -20 OFFCURVE",
"205 6 OFFCURVE",
"100 57 CURVE",
"100 283 LINE",
"233 220 OFFCURVE",
"393 182 OFFCURVE",
"522 182 CURVE SMOOTH",
"711 182 OFFCURVE",
"799 260 OFFCURVE",
"799 381 CURVE SMOOTH",
"799 436 OFFCURVE",
"778 482 OFFCURVE",
"737 520 CURVE SMOOTH",
"696 558 OFFCURVE",
"610 603 OFFCURVE",
"481 655 CURVE SMOOTH",
"214 763 OFFCURVE",
"117 895 OFFCURVE",
"117 1090 CURVE SMOOTH",
"117 1334 OFFCURVE",
"304 1483 OFFCURVE",
"596 1483 CURVE SMOOTH",
"736 1483 OFFCURVE",
"875 1452 OFFCURVE",
"1014 1391 CURVE",
"938 1196 LINE",
"808 1251 OFFCURVE",
"692 1278 OFFCURVE",
"590 1278 CURVE SMOOTH",
"435 1278 OFFCURVE",
"354 1205 OFFCURVE",
"354 1094 CURVE SMOOTH",
"354 1018 OFFCURVE",
"384 968 OFFCURVE",
"457 920 CURVE SMOOTH",
"494 896 OFFCURVE",
"560 864 OFFCURVE",
"655 825 CURVE SMOOTH",
"870 736 OFFCURVE",
"954 666 OFFCURVE",
"1001 569 CURVE SMOOTH",
"1024 520 OFFCURVE",
"1036 463 OFFCURVE",
"1036 397 CURVE SMOOTH"
);
}
);
width = 1126;
}
);
unicode = 0053;
},
{
glyphname = T;
layers = (
{
layerId = "89C6725D-D8C2-4468-AE05-6812C209F477";
name = Bold;
paths = (
{
closed = 1;
nodes = (
"698 0 LINE",
"459 0 LINE",
"459 1257 LINE",
"29 1257 LINE",
"29 1462 LINE",
"1128 1462 LINE",
"1128 1257 LINE",
"698 1257 LINE"
);
}
);
width = 1159;
}
);
unicode = 0054;
},
{
glyphname = U;
layers = (
{
layerId = "89C6725D-D8C2-4468-AE05-6812C209F477";
name = Bold;
paths = (
{
closed = 1;
nodes = (
"1339 1462 LINE",
"1339 516 LINE SMOOTH",
"1339 300 OFFCURVE",
"1244 133 OFFCURVE",
"1069 46 CURVE SMOOTH",
"981 2 OFFCURVE",
"876 -20 OFFCURVE",
"754 -20 CURVE SMOOTH",
"391 -20 OFFCURVE",
"180 184 OFFCURVE",
"180 520 CURVE SMOOTH",
"180 1462 LINE",
"420 1462 LINE",
"420 537 LINE SMOOTH",
"420 296 OFFCURVE",
"530 184 OFFCURVE",
"762 184 CURVE SMOOTH",
"987 184 OFFCURVE",
"1100 302 OFFCURVE",
"1100 539 CURVE SMOOTH",
"1100 1462 LINE"
);
}
);
width = 1520;
}
);
unicode = 0055;
},
{
glyphname = V;
layers = (
{
layerId = "89C6725D-D8C2-4468-AE05-6812C209F477";
name = Bold;
paths = (
{
closed = 1;
nodes = (
"1026 1462 LINE",
"1274 1462 LINE",
"762 0 LINE",
"510 0 LINE",
"0 1462 LINE",
"246 1462 LINE",
"551 553 LINE SMOOTH",
"583 466 OFFCURVE",
"626 300 OFFCURVE",
"637 233 CURVE",
"654 334 OFFCURVE",
"698 493 OFFCURVE",
"721 557 CURVE SMOOTH"
);
}
);
width = 1274;
}
);
unicode = 0056;
},
{
glyphname = W;
layers = (
{
layerId = "89C6725D-D8C2-4468-AE05-6812C209F477";
name = Bold;
paths = (
{
closed = 1;
nodes = (
"1542 0 LINE",
"1282 0 LINE",
"1034 872 LINE SMOOTH",
"1013 948 OFFCURVE",
"972 1130 OFFCURVE",
"965 1186 CURVE",
"952 1101 OFFCURVE",
"915 935 OFFCURVE",
"895 868 CURVE SMOOTH",
"653 0 LINE",
"393 0 LINE",
"204 732 LINE",
"12 1462 LINE",
"256 1462 LINE",
"465 610 LINE SMOOTH",
"498 473 OFFCURVE",
"521 353 OFFCURVE",
"535 248 CURVE",
"550 361 OFFCURVE",
"584 521 OFFCURVE",
"608 608 CURVE SMOOTH",
"846 1462 LINE",
"1083 1462 LINE",
"1327 604 LINE SMOOTH",
"1350 525 OFFCURVE",
"1375 406 OFFCURVE",
"1401 248 CURVE",
"1411 343 OFFCURVE",
"1435 465 OFFCURVE",
"1473 612 CURVE SMOOTH",
"1681 1462 LINE",
"1923 1462 LINE"
);
}
);
width = 1937;
}
);
unicode = 0057;
},
{
glyphname = X;
layers = (
{
layerId = "89C6725D-D8C2-4468-AE05-6812C209F477";
name = Bold;
paths = (
{
closed = 1;
nodes = (
"1270 0 LINE",
"995 0 LINE",
"629 598 LINE",
"260 0 LINE",
"4 0 LINE",
"489 758 LINE",
"35 1462 LINE",
"301 1462 LINE",
"639 909 LINE",
"977 1462 LINE",
"1235 1462 LINE",
"778 754 LINE"
);
}
);
width = 1274;
}
);
unicode = 0058;
},
{
glyphname = Y;
layers = (
{
layerId = "89C6725D-D8C2-4468-AE05-6812C209F477";
name = Bold;
paths = (
{
closed = 1;
nodes = (
"606 795 LINE",
"952 1462 LINE",
"1212 1462 LINE",
"725 567 LINE",
"725 0 LINE",
"485 0 LINE",
"485 559 LINE",
"0 1462 LINE",
"260 1462 LINE"
);
}
);
width = 1212;
}
);
unicode = 0059;
},
{
glyphname = Z;
layers = (
{
layerId = "89C6725D-D8C2-4468-AE05-6812C209F477";
name = Bold;
paths = (
{
closed = 1;
nodes = (
"1112 0 LINE",
"66 0 LINE",
"66 166 LINE",
"803 1257 LINE",
"86 1257 LINE",
"86 1462 LINE",
"1092 1462 LINE",
"1092 1294 LINE",
"352 205 LINE",
"1112 205 LINE"
);
}
);
width = 1178;
}
);
unicode = 005A;
},
{
glyphname = bracketleft;
layers = (
{
layerId = "89C6725D-D8C2-4468-AE05-6812C209F477";
name = Bold;
paths = (
{
closed = 1;
nodes = (
"625 -324 LINE",
"154 -324 LINE",
"154 1462 LINE",
"625 1462 LINE",
"625 1286 LINE",
"369 1286 LINE",
"369 -147 LINE",
"625 -147 LINE"
);
}
);
width = 676;
}
);
unicode = 005B;
},
{
glyphname = backslash;
layers = (
{
layerId = "89C6725D-D8C2-4468-AE05-6812C209F477";
name = Bold;
paths = (
{
closed = 1;
nodes = (
"238 1462 LINE",
"782 0 LINE",
"561 0 LINE",
"16 1462 LINE"
);
}
);
width = 799;
}
);
unicode = 005C;
},
{
glyphname = bracketright;
layers = (
{
layerId = "89C6725D-D8C2-4468-AE05-6812C209F477";
name = Bold;
paths = (
{
closed = 1;
nodes = (
"51 -147 LINE",
"307 -147 LINE",
"307 1286 LINE",
"51 1286 LINE",
"51 1462 LINE",
"520 1462 LINE",
"520 -324 LINE",
"51 -324 LINE"
);
}
);
width = 676;
}
);
unicode = 005D;
},
{
glyphname = asciicircum;
layers = (
{
layerId = "89C6725D-D8C2-4468-AE05-6812C209F477";
name = Bold;
paths = (
{
closed = 1;
nodes = (
"29 535 LINE",
"465 1470 LINE",
"586 1470 LINE",
"1071 535 LINE",
"877 535 LINE",
"528 1229 LINE",
"221 535 LINE"
);
}
);
width = 1100;
}
);
unicode = 005E;
},
{
glyphname = underscore;
layers = (
{
layerId = "89C6725D-D8C2-4468-AE05-6812C209F477";
name = Bold;
paths = (
{
closed = 1;
nodes = (
"883 -319 LINE",
"-4 -319 LINE",
"-4 -184 LINE",
"883 -184 LINE"
);
}
);
width = 879;
}
);
unicode = 005F;
},
{
glyphname = grave;
layers = (
{
layerId = "89C6725D-D8C2-4468-AE05-6812C209F477";
name = Bold;
paths = (
{
closed = 1;
nodes = (
"690 1241 LINE",
"598 1310 OFFCURVE",
"426 1471 OFFCURVE",
"362 1548 CURVE",
"362 1569 LINE",
"635 1569 LINE",
"686 1476 OFFCURVE",
"789 1334 OFFCURVE",
"848 1266 CURVE",
"848 1241 LINE"
);
}
);
width = 1212;
}
);
unicode = 0060;
},
{
glyphname = a;
layers = (
{
layerId = "89C6725D-D8C2-4468-AE05-6812C209F477";
name = Bold;
paths = (
{
closed = 1;
nodes = (
"860 0 LINE",
"813 154 LINE",
"805 154 LINE",
"698 19 OFFCURVE",
"605 -20 OFFCURVE",
"436 -20 CURVE SMOOTH",
"219 -20 OFFCURVE",
"90 102 OFFCURVE",
"90 317 CURVE SMOOTH",
"90 545 OFFCURVE",
"257 659 OFFCURVE",
"604 670 CURVE SMOOTH",
"795 676 LINE",
"795 735 LINE SMOOTH",
"795 876 OFFCURVE",
"731 946 OFFCURVE",
"592 946 CURVE SMOOTH",
"479 946 OFFCURVE",
"375 907 OFFCURVE",
"279 862 CURVE",
"203 1030 LINE",
"323 1093 OFFCURVE",
"475 1126 OFFCURVE",
"602 1126 CURVE SMOOTH",
"883 1126 OFFCURVE",
"1028 1008 OFFCURVE",
"1028 745 CURVE SMOOTH",
"1028 0 LINE"
);
},
{
closed = 1;
nodes = (
"681 160 OFFCURVE",
"793 260 OFFCURVE",
"793 432 CURVE SMOOTH",
"793 528 LINE",
"651 522 LINE SMOOTH",
"430 514 OFFCURVE",
"334 451 OFFCURVE",
"334 315 CURVE SMOOTH",
"334 216 OFFCURVE",
"393 160 OFFCURVE",
"510 160 CURVE SMOOTH"
);
}
);
width = 1188;
}
);
unicode = 0061;
},
{
glyphname = b;
layers = (
{
layerId = "89C6725D-D8C2-4468-AE05-6812C209F477";
name = Bold;
paths = (
{
closed = 1;
nodes = (
"1009 1126 OFFCURVE",
"1171 916 OFFCURVE",
"1171 555 CURVE SMOOTH",
"1171 192 OFFCURVE",
"1006 -20 OFFCURVE",
"729 -20 CURVE SMOOTH",
"589 -20 OFFCURVE",
"480 30 OFFCURVE",
"403 131 CURVE",
"387 131 LINE",
"344 0 LINE",
"168 0 LINE",
"168 1556 LINE",
"403 1556 LINE",
"403 1186 LINE SMOOTH",
"403 1131 OFFCURVE",
"396 990 OFFCURVE",
"393 961 CURVE",
"403 961 LINE",
"478 1071 OFFCURVE",
"588 1126 OFFCURVE",
"733 1126 CURVE SMOOTH"
);
},
{
closed = 1;
nodes = (
"483 934 OFFCURVE",
"406 832 OFFCURVE",
"403 571 CURVE SMOOTH",
"403 555 LINE SMOOTH",
"403 286 OFFCURVE",
"483 172 OFFCURVE",
"676 172 CURVE SMOOTH",
"843 172 OFFCURVE",
"930 308 OFFCURVE",
"930 557 CURVE SMOOTH",
"930 808 OFFCURVE",
"844 934 OFFCURVE",
"672 934 CURVE SMOOTH"
);
}
);
width = 1276;
}
);
unicode = 0062;
},
{
glyphname = c;
layers = (
{
layerId = "89C6725D-D8C2-4468-AE05-6812C209F477";
name = Bold;
paths = (
{
closed = 1;
nodes = (
"279 -20 OFFCURVE",
"102 182 OFFCURVE",
"102 547 CURVE SMOOTH",
"102 919 OFFCURVE",
"289 1126 OFFCURVE",
"633 1126 CURVE SMOOTH",
"750 1126 OFFCURVE",
"855 1104 OFFCURVE",
"948 1061 CURVE",
"877 872 LINE",
"778 911 OFFCURVE",
"696 930 OFFCURVE",
"631 930 CURVE SMOOTH",
"440 930 OFFCURVE",
"344 803 OFFCURVE",
"344 549 CURVE SMOOTH",
"344 301 OFFCURVE",
"441 176 OFFCURVE",
"625 176 CURVE SMOOTH",
"730 176 OFFCURVE",
"829 202 OFFCURVE",
"922 254 CURVE",
"922 49 LINE",
"838 0 OFFCURVE",
"750 -20 OFFCURVE",
"614 -20 CURVE SMOOTH"
);
}
);
width = 1014;
}
);
unicode = 0063;
},
{
glyphname = d;
layers = (
{
layerId = "89C6725D-D8C2-4468-AE05-6812C209F477";
name = Bold;
paths = (
{
closed = 1;
nodes = (
"265 -20 OFFCURVE",
"102 190 OFFCURVE",
"102 551 CURVE SMOOTH",
"102 914 OFFCURVE",
"268 1126 OFFCURVE",
"545 1126 CURVE SMOOTH",
"690 1126 OFFCURVE",
"801 1072 OFFCURVE",
"877 965 CURVE",
"889 965 LINE",
"878 1044 OFFCURVE",
"872 1107 OFFCURVE",
"872 1153 CURVE SMOOTH",
"872 1556 LINE",
"1108 1556 LINE",
"1108 0 LINE",
"924 0 LINE",
"883 145 LINE",
"872 145 LINE",
"797 35 OFFCURVE",
"686 -20 OFFCURVE",
"541 -20 CURVE SMOOTH"
);
},
{
closed = 1;
nodes = (
"797 170 OFFCURVE",
"880 272 OFFCURVE",
"883 516 CURVE SMOOTH",
"883 549 LINE SMOOTH",
"883 828 OFFCURVE",
"795 934 OFFCURVE",
"602 934 CURVE SMOOTH",
"437 934 OFFCURVE",
"344 795 OFFCURVE",
"344 547 CURVE SMOOTH",
"344 302 OFFCURVE",
"431 170 OFFCURVE",
"604 170 CURVE SMOOTH"
);
}
);
width = 1276;
}
);
unicode = 0064;
},
{
glyphname = e;
layers = (
{
layerId = "89C6725D-D8C2-4468-AE05-6812C209F477";
name = Bold;
paths = (
{
closed = 1;
nodes = (
"307 -20 OFFCURVE",
"102 193 OFFCURVE",
"102 545 CURVE SMOOTH",
"102 906 OFFCURVE",
"293 1126 OFFCURVE",
"608 1126 CURVE SMOOTH",
"900 1126 OFFCURVE",
"1081 938 OFFCURVE",
"1081 627 CURVE SMOOTH",
"1081 500 LINE",
"344 500 LINE",
"351 285 OFFCURVE",
"463 166 OFFCURVE",
"662 166 CURVE SMOOTH",
"793 166 OFFCURVE",
"897 189 OFFCURVE",
"1026 246 CURVE",
"1026 55 LINE",
"911 0 OFFCURVE",
"802 -20 OFFCURVE",
"651 -20 CURVE SMOOTH"
);
},
{
closed = 1;
nodes = (
"459 948 OFFCURVE",
"365 851 OFFCURVE",
"348 670 CURVE",
"850 670 LINE",
"847 853 OFFCURVE",
"757 948 OFFCURVE",
"608 948 CURVE SMOOTH"
);
}
);
width = 1180;
}
);
unicode = 0065;
},
{
glyphname = f;
layers = (
{
layerId = "89C6725D-D8C2-4468-AE05-6812C209F477";
name = Bold;
paths = (
{
closed = 1;
nodes = (
"723 928 LINE",
"453 928 LINE",
"453 0 LINE",
"217 0 LINE",
"217 928 LINE",
"35 928 LINE",
"35 1038 LINE",
"217 1110 LINE",
"217 1182 LINE SMOOTH",
"217 1443 OFFCURVE",
"338 1567 OFFCURVE",
"590 1567 CURVE SMOOTH",
"673 1567 OFFCURVE",
"754 1553 OFFCURVE",
"834 1526 CURVE",
"772 1348 LINE",
"714 1367 OFFCURVE",
"659 1376 OFFCURVE",
"606 1376 CURVE SMOOTH",
"499 1376 OFFCURVE",
"453 1310 OFFCURVE",
"453 1178 CURVE SMOOTH",
"453 1106 LINE",
"723 1106 LINE"
);
}
);
width = 743;
}
);
unicode = 0066;
},
{
glyphname = g;
layers = (
{
layerId = "89C6725D-D8C2-4468-AE05-6812C209F477";
name = Bold;
paths = (
{
closed = 1;
nodes = (
"1102 1106 LINE",
"1102 977 LINE",
"913 942 LINE",
"948 895 OFFCURVE",
"973 824 OFFCURVE",
"973 748 CURVE SMOOTH",
"973 520 OFFCURVE",
"806 381 OFFCURVE",
"530 381 CURVE SMOOTH",
"495 381 OFFCURVE",
"463 384 OFFCURVE",
"434 389 CURVE",
"383 358 OFFCURVE",
"358 321 OFFCURVE",
"358 279 CURVE SMOOTH",
"358 254 OFFCURVE",
"370 235 OFFCURVE",
"394 222 CURVE SMOOTH",
"417 209 OFFCURVE",
"461 203 OFFCURVE",
"524 203 CURVE SMOOTH",
"717 203 LINE SMOOTH",
"961 203 OFFCURVE",
"1090 96 OFFCURVE",
"1090 -100 CURVE SMOOTH",
"1090 -351 OFFCURVE",
"878 -492 OFFCURVE",
"487 -492 CURVE SMOOTH",
"186 -492 OFFCURVE",
"23 -381 OFFCURVE",
"23 -184 CURVE SMOOTH",
"23 -48 OFFCURVE",
"113 48 OFFCURVE",
"268 84 CURVE",
"205 111 OFFCURVE",
"160 177 OFFCURVE",
"160 242 CURVE SMOOTH",
"160 325 OFFCURVE",
"207 376 OFFCURVE",
"299 432 CURVE",
"184 481 OFFCURVE",
"106 599 OFFCURVE",
"106 748 CURVE SMOOTH",
"106 988 OFFCURVE",
"263 1126 OFFCURVE",
"543 1126 CURVE SMOOTH",
"606 1126 OFFCURVE",
"684 1115 OFFCURVE",
"719 1106 CURVE"
);
},
{
closed = 1;
nodes = (
"233 -273 OFFCURVE",
"329 -330 OFFCURVE",
"494 -330 CURVE SMOOTH",
"750 -330 OFFCURVE",
"874 -250 OFFCURVE",
"874 -129 CURVE SMOOTH",
"874 -33 OFFCURVE",
"818 4 OFFCURVE",
"631 4 CURVE SMOOTH",
"453 4 LINE SMOOTH",
"318 4 OFFCURVE",
"233 -64 OFFCURVE",
"233 -172 CURVE SMOOTH"
);
},
{
closed = 1;
nodes = (
"334 609 OFFCURVE",
"408 532 OFFCURVE",
"541 532 CURVE SMOOTH",
"677 532 OFFCURVE",
"745 605 OFFCURVE",
"745 750 CURVE SMOOTH",
"745 894 OFFCURVE",
"678 975 OFFCURVE",
"541 975 CURVE SMOOTH",
"405 975 OFFCURVE",
"334 896 OFFCURVE",
"334 748 CURVE SMOOTH"
);
}
);
width = 1139;
}
);
unicode = 0067;
},
{
glyphname = h;
layers = (
{
layerId = "89C6725D-D8C2-4468-AE05-6812C209F477";
name = Bold;
paths = (
{
closed = 1;
nodes = (
"1141 0 LINE",
"905 0 LINE",
"905 680 LINE SMOOTH",
"905 851 OFFCURVE",
"839 934 OFFCURVE",
"690 934 CURVE SMOOTH",
"493 934 OFFCURVE",
"403 826 OFFCURVE",
"403 549 CURVE SMOOTH",
"403 0 LINE",
"168 0 LINE",
"168 1556 LINE",
"403 1556 LINE",
"403 1161 LINE SMOOTH",
"403 1098 OFFCURVE",
"399 1030 OFFCURVE",
"391 958 CURVE",
"406 958 LINE",
"470 1065 OFFCURVE",
"587 1126 OFFCURVE",
"739 1126 CURVE SMOOTH",
"1007 1126 OFFCURVE",
"1141 991 OFFCURVE",
"1141 721 CURVE SMOOTH"
);
}
);
width = 1300;
}
);
unicode = 0068;
},
{
glyphname = i;
layers = (
{
layerId = "89C6725D-D8C2-4468-AE05-6812C209F477";
name = Bold;
paths = (
{
closed = 1;
nodes = (
"403 0 LINE",
"168 0 LINE",
"168 1106 LINE",
"403 1106 LINE"
);
},
{
closed = 1;
nodes = (
"154 1483 OFFCURVE",
"202 1530 OFFCURVE",
"287 1530 CURVE SMOOTH",
"370 1530 OFFCURVE",
"418 1483 OFFCURVE",
"418 1399 CURVE SMOOTH",
"418 1319 OFFCURVE",
"370 1270 OFFCURVE",
"287 1270 CURVE SMOOTH",
"202 1270 OFFCURVE",
"154 1319 OFFCURVE",
"154 1399 CURVE SMOOTH"
);
}
);
width = 571;
}
);
unicode = 0069;
},
{
glyphname = j;
layers = (
{
layerId = "89C6725D-D8C2-4468-AE05-6812C209F477";
name = Bold;
paths = (
{
closed = 1;
nodes = (
"-16 -492 OFFCURVE",
"-74 -484 OFFCURVE",
"-121 -467 CURVE",
"-121 -281 LINE",
"-76 -293 OFFCURVE",
"-29 -299 OFFCURVE",
"18 -299 CURVE SMOOTH",
"118 -299 OFFCURVE",
"168 -242 OFFCURVE",
"168 -129 CURVE SMOOTH",
"168 1106 LINE",
"403 1106 LINE",
"403 -145 LINE SMOOTH",
"403 -373 OFFCURVE",
"280 -492 OFFCURVE",
"55 -492 CURVE SMOOTH"
);
},
{
closed = 1;
nodes = (
"154 1483 OFFCURVE",
"202 1530 OFFCURVE",
"287 1530 CURVE SMOOTH",
"370 1530 OFFCURVE",
"418 1483 OFFCURVE",
"418 1399 CURVE SMOOTH",
"418 1319 OFFCURVE",
"370 1270 OFFCURVE",
"287 1270 CURVE SMOOTH",
"202 1270 OFFCURVE",
"154 1319 OFFCURVE",
"154 1399 CURVE SMOOTH"
);
}
);
width = 571;
}
);
unicode = 006A;
},
{
glyphname = k;
layers = (
{
layerId = "89C6725D-D8C2-4468-AE05-6812C209F477";
name = Bold;
paths = (
{
closed = 1;
nodes = (
"395 584 LINE",
"528 750 LINE",
"862 1106 LINE",
"1133 1106 LINE",
"688 631 LINE",
"1161 0 LINE",
"885 0 LINE",
"530 485 LINE",
"401 379 LINE",
"401 0 LINE",
"168 0 LINE",
"168 1556 LINE",
"401 1556 LINE",
"401 797 LINE",
"389 584 LINE"
);
}
);
width = 1171;
}
);
unicode = 006B;
},
{
glyphname = l;
layers = (
{
layerId = "89C6725D-D8C2-4468-AE05-6812C209F477";
name = Bold;
paths = (
{
closed = 1;
nodes = (
"403 0 LINE",
"168 0 LINE",
"168 1556 LINE",
"403 1556 LINE"
);
}
);
width = 571;
}
);
unicode = 006C;
},
{
glyphname = m;
layers = (
{
layerId = "89C6725D-D8C2-4468-AE05-6812C209F477";
name = Bold;
paths = (
{
closed = 1;
nodes = (
"1100 0 LINE",
"864 0 LINE",
"864 682 LINE SMOOTH",
"864 851 OFFCURVE",
"802 934 OFFCURVE",
"666 934 CURVE SMOOTH",
"485 934 OFFCURVE",
"403 826 OFFCURVE",
"403 551 CURVE SMOOTH",
"403 0 LINE",
"168 0 LINE",
"168 1106 LINE",
"352 1106 LINE",
"385 961 LINE",
"397 961 LINE",
"458 1066 OFFCURVE",
"583 1126 OFFCURVE",
"723 1126 CURVE SMOOTH",
"893 1126 OFFCURVE",
"1006 1068 OFFCURVE",
"1061 952 CURVE",
"1077 952 LINE",
"1142 1061 OFFCURVE",
"1266 1126 OFFCURVE",
"1419 1126 CURVE SMOOTH",
"1683 1126 OFFCURVE",
"1798 994 OFFCURVE",
"1798 721 CURVE SMOOTH",
"1798 0 LINE",
"1563 0 LINE",
"1563 682 LINE SMOOTH",
"1563 851 OFFCURVE",
"1500 934 OFFCURVE",
"1364 934 CURVE SMOOTH",
"1181 934 OFFCURVE",
"1100 822 OFFCURVE",
"1100 586 CURVE SMOOTH"
);
}
);
width = 1958;
}
);
unicode = 006D;
},
{
glyphname = n;
layers = (
{
layerId = "89C6725D-D8C2-4468-AE05-6812C209F477";
name = Bold;
paths = (
{
closed = 1;
nodes = (
"1141 0 LINE",
"905 0 LINE",
"905 680 LINE SMOOTH",
"905 851 OFFCURVE",
"839 934 OFFCURVE",
"690 934 CURVE SMOOTH",
"491 934 OFFCURVE",
"403 827 OFFCURVE",
"403 551 CURVE SMOOTH",
"403 0 LINE",
"168 0 LINE",
"168 1106 LINE",
"352 1106 LINE",
"385 961 LINE",
"397 961 LINE",
"464 1066 OFFCURVE",
"594 1126 OFFCURVE",
"743 1126 CURVE SMOOTH",
"1008 1126 OFFCURVE",
"1141 991 OFFCURVE",
"1141 721 CURVE SMOOTH"
);
}
);
width = 1300;
}
);
unicode = 006E;
},
{
glyphname = o;
layers = (
{
layerId = "89C6725D-D8C2-4468-AE05-6812C209F477";
name = Bold;
paths = (
{
closed = 1;
nodes = (
"1149 194 OFFCURVE",
"954 -20 OFFCURVE",
"623 -20 CURVE SMOOTH",
"416 -20 OFFCURVE",
"251 76 OFFCURVE",
"166 251 CURVE SMOOTH",
"123 338 OFFCURVE",
"102 440 OFFCURVE",
"102 555 CURVE SMOOTH",
"102 914 OFFCURVE",
"294 1126 OFFCURVE",
"629 1126 CURVE SMOOTH",
"949 1126 OFFCURVE",
"1149 904 OFFCURVE",
"1149 555 CURVE SMOOTH"
);
},
{
closed = 1;
nodes = (
"344 300 OFFCURVE",
"438 172 OFFCURVE",
"627 172 CURVE SMOOTH",
"814 172 OFFCURVE",
"907 300 OFFCURVE",
"907 555 CURVE SMOOTH",
"907 808 OFFCURVE",
"813 934 OFFCURVE",
"625 934 CURVE SMOOTH",
"428 934 OFFCURVE",
"344 799 OFFCURVE",
"344 555 CURVE SMOOTH"
);
}
);
width = 1251;
}
);
unicode = 006F;
},
{
glyphname = p;
layers = (
{
layerId = "89C6725D-D8C2-4468-AE05-6812C209F477";
name = Bold;
paths = (
{
closed = 1;
nodes = (
"589 -20 OFFCURVE",
"480 30 OFFCURVE",
"403 131 CURVE",
"389 131 LINE",
"398 38 OFFCURVE",
"403 -19 OFFCURVE",
"403 -39 CURVE SMOOTH",
"403 -492 LINE",
"168 -492 LINE",
"168 1106 LINE",
"358 1106 LINE",
"363 1085 OFFCURVE",
"374 1036 OFFCURVE",
"391 958 CURVE",
"403 958 LINE",
"476 1070 OFFCURVE",
"586 1126 OFFCURVE",
"733 1126 CURVE SMOOTH",
"1009 1126 OFFCURVE",
"1171 916 OFFCURVE",
"1171 555 CURVE SMOOTH",
"1171 194 OFFCURVE",
"1005 -20 OFFCURVE",
"729 -20 CURVE SMOOTH"
);
},
{
closed = 1;
nodes = (
"485 934 OFFCURVE",
"403 830 OFFCURVE",
"403 590 CURVE SMOOTH",
"403 555 LINE SMOOTH",
"403 286 OFFCURVE",
"483 172 OFFCURVE",
"676 172 CURVE SMOOTH",
"839 172 OFFCURVE",
"930 310 OFFCURVE",
"930 557 CURVE SMOOTH",
"930 805 OFFCURVE",
"841 934 OFFCURVE",
"672 934 CURVE SMOOTH"
);
}
);
width = 1276;
}
);
unicode = 0070;
},
{
glyphname = q;
layers = (
{
layerId = "89C6725D-D8C2-4468-AE05-6812C209F477";
name = Bold;
paths = (
{
closed = 1;
nodes = (
"803 168 OFFCURVE",
"883 281 OFFCURVE",
"883 512 CURVE SMOOTH",
"883 549 LINE SMOOTH",
"883 822 OFFCURVE",
"799 934 OFFCURVE",
"602 934 CURVE SMOOTH",
"434 934 OFFCURVE",
"344 796 OFFCURVE",
"344 547 CURVE SMOOTH",
"344 294 OFFCURVE",
"431 168 OFFCURVE",
"606 168 CURVE SMOOTH"
);
},
{
closed = 1;
nodes = (
"266 -20 OFFCURVE",
"102 191 OFFCURVE",
"102 551 CURVE SMOOTH",
"102 911 OFFCURVE",
"269 1126 OFFCURVE",
"545 1126 CURVE SMOOTH",
"684 1126 OFFCURVE",
"792 1078 OFFCURVE",
"879 961 CURVE",
"887 961 LINE",
"913 1106 LINE",
"1108 1106 LINE",
"1108 -492 LINE",
"872 -492 LINE",
"872 -23 LINE SMOOTH",
"872 36 OFFCURVE",
"879 110 OFFCURVE",
"883 145 CURVE",
"870 145 LINE",
"801 35 OFFCURVE",
"690 -20 OFFCURVE",
"539 -20 CURVE SMOOTH"
);
}
);
width = 1276;
}
);
unicode = 0071;
},
{
glyphname = r;
layers = (
{
layerId = "89C6725D-D8C2-4468-AE05-6812C209F477";
name = Bold;
paths = (
{
closed = 1;
nodes = (
"776 1126 OFFCURVE",
"815 1123 OFFCURVE",
"846 1116 CURVE",
"823 897 LINE",
"790 905 OFFCURVE",
"755 909 OFFCURVE",
"719 909 CURVE SMOOTH",
"531 909 OFFCURVE",
"403 774 OFFCURVE",
"403 578 CURVE SMOOTH",
"403 0 LINE",
"168 0 LINE",
"168 1106 LINE",
"352 1106 LINE",
"383 911 LINE",
"395 911 LINE",
"468 1043 OFFCURVE",
"593 1126 OFFCURVE",
"729 1126 CURVE SMOOTH"
);
}
);
width = 883;
}
);
unicode = 0072;
},
{
glyphname = s;
layers = (
{
layerId = "89C6725D-D8C2-4468-AE05-6812C209F477";
name = Bold;
paths = (
{
closed = 1;
nodes = (
"911 99 OFFCURVE",
"748 -20 OFFCURVE",
"455 -20 CURVE SMOOTH",
"308 -20 OFFCURVE",
"189 2 OFFCURVE",
"100 47 CURVE",
"100 250 LINE",
"230 190 OFFCURVE",
"351 160 OFFCURVE",
"463 160 CURVE SMOOTH",
"608 160 OFFCURVE",
"680 204 OFFCURVE",
"680 291 CURVE SMOOTH",
"680 347 OFFCURVE",
"650 379 OFFCURVE",
"577 419 CURVE SMOOTH",
"540 439 OFFCURVE",
"489 462 OFFCURVE",
"424 487 CURVE SMOOTH",
"169 586 OFFCURVE",
"98 670 OFFCURVE",
"98 827 CURVE SMOOTH",
"98 1016 OFFCURVE",
"261 1126 OFFCURVE",
"524 1126 CURVE SMOOTH",
"654 1126 OFFCURVE",
"777 1100 OFFCURVE",
"893 1047 CURVE",
"817 870 LINE",
"698 919 OFFCURVE",
"597 944 OFFCURVE",
"516 944 CURVE SMOOTH",
"392 944 OFFCURVE",
"330 909 OFFCURVE",
"330 838 CURVE SMOOTH",
"330 803 OFFCURVE",
"346 774 OFFCURVE",
"379 750 CURVE SMOOTH",
"411 726 OFFCURVE",
"481 693 OFFCURVE",
"590 651 CURVE SMOOTH",
"773 580 OFFCURVE",
"841 529 OFFCURVE",
"881 453 CURVE SMOOTH",
"901 414 OFFCURVE",
"911 368 OFFCURVE",
"911 315 CURVE SMOOTH"
);
}
);
width = 997;
}
);
unicode = 0073;
},
{
glyphname = t;
layers = (
{
layerId = "89C6725D-D8C2-4468-AE05-6812C209F477";
name = Bold;
paths = (
{
closed = 1;
nodes = (
"637 170 OFFCURVE",
"695 179 OFFCURVE",
"752 197 CURVE",
"752 20 LINE",
"700 -3 OFFCURVE",
"612 -20 OFFCURVE",
"524 -20 CURVE SMOOTH",
"301 -20 OFFCURVE",
"190 97 OFFCURVE",
"190 332 CURVE SMOOTH",
"190 928 LINE",
"39 928 LINE",
"39 1032 LINE",
"201 1118 LINE",
"281 1352 LINE",
"426 1352 LINE",
"426 1106 LINE",
"741 1106 LINE",
"741 928 LINE",
"426 928 LINE",
"426 336 LINE SMOOTH",
"426 223 OFFCURVE",
"488 170 OFFCURVE",
"580 170 CURVE SMOOTH"
);
}
);
width = 805;
}
);
unicode = 0074;
},
{
glyphname = u;
layers = (
{
layerId = "89C6725D-D8C2-4468-AE05-6812C209F477";
name = Bold;
paths = (
{
closed = 1;
nodes = (
"948 0 LINE",
"915 145 LINE",
"903 145 LINE",
"838 42 OFFCURVE",
"712 -20 OFFCURVE",
"557 -20 CURVE SMOOTH",
"289 -20 OFFCURVE",
"158 112 OFFCURVE",
"158 383 CURVE SMOOTH",
"158 1106 LINE",
"395 1106 LINE",
"395 424 LINE SMOOTH",
"395 255 OFFCURVE",
"462 170 OFFCURVE",
"610 170 CURVE SMOOTH",
"807 170 OFFCURVE",
"897 278 OFFCURVE",
"897 555 CURVE SMOOTH",
"897 1106 LINE",
"1133 1106 LINE",
"1133 0 LINE"
);
}
);
width = 1300;
}
);
unicode = 0075;
},
{
glyphname = v;
layers = (
{
layerId = "89C6725D-D8C2-4468-AE05-6812C209F477";
name = Bold;
paths = (
{
closed = 1;
nodes = (
"420 0 LINE",
"0 1106 LINE",
"248 1106 LINE",
"473 463 LINE SMOOTH",
"512 355 OFFCURVE",
"535 268 OFFCURVE",
"543 201 CURVE",
"551 201 LINE",
"557 249 OFFCURVE",
"580 336 OFFCURVE",
"621 463 CURVE SMOOTH",
"846 1106 LINE",
"1096 1106 LINE",
"674 0 LINE"
);
}
);
width = 1096;
}
);
unicode = 0076;
},
{
glyphname = w;
layers = (
{
layerId = "89C6725D-D8C2-4468-AE05-6812C209F477";
name = Bold;
paths = (
{
closed = 1;
nodes = (
"1075 0 LINE",
"932 516 LINE SMOOTH",
"915 571 OFFCURVE",
"883 698 OFFCURVE",
"838 897 CURVE",
"829 897 LINE",
"790 717 OFFCURVE",
"760 589 OFFCURVE",
"737 514 CURVE SMOOTH",
"590 0 LINE",
"330 0 LINE",
"20 1106 LINE",
"260 1106 LINE",
"401 561 LINE SMOOTH",
"433 426 OFFCURVE",
"456 311 OFFCURVE",
"469 215 CURVE",
"475 215 LINE",
"488 312 OFFCURVE",
"521 461 OFFCURVE",
"541 524 CURVE SMOOTH",
"709 1106 LINE",
"967 1106 LINE",
"1130 524 LINE SMOOTH",
"1150 459 OFFCURVE",
"1189 292 OFFCURVE",
"1194 217 CURVE",
"1202 217 LINE",
"1212 299 OFFCURVE",
"1235 414 OFFCURVE",
"1272 561 CURVE SMOOTH",
"1415 1106 LINE",
"1651 1106 LINE",
"1339 0 LINE"
);
}
);
width = 1673;
}
);
unicode = 0077;
},
{
glyphname = x;
layers = (
{
layerId = "89C6725D-D8C2-4468-AE05-6812C209F477";
name = Bold;
paths = (
{
closed = 1;
nodes = (
"414 565 LINE",
"43 1106 LINE",
"311 1106 LINE",
"563 719 LINE",
"817 1106 LINE",
"1083 1106 LINE",
"711 565 LINE",
"1102 0 LINE",
"836 0 LINE",
"563 414 LINE",
"291 0 LINE",
"25 0 LINE"
);
}
);
width = 1128;
}
);
unicode = 0078;
},
{
glyphname = y;
layers = (
{
layerId = "89C6725D-D8C2-4468-AE05-6812C209F477";
name = Bold;
paths = (
{
closed = 1;
nodes = (
"0 1106 LINE",
"256 1106 LINE",
"481 479 LINE SMOOTH",
"515 390 OFFCURVE",
"538 306 OFFCURVE",
"549 227 CURVE",
"557 227 LINE",
"563 264 OFFCURVE",
"574 308 OFFCURVE",
"590 361 CURVE SMOOTH",
"606 413 OFFCURVE",
"691 661 OFFCURVE",
"844 1106 CURVE",
"1098 1106 LINE",
"625 -147 LINE SMOOTH",
"539 -377 OFFCURVE",
"396 -492 OFFCURVE",
"195 -492 CURVE SMOOTH",
"143 -492 OFFCURVE",
"92 -486 OFFCURVE",
"43 -475 CURVE",
"43 -289 LINE",
"78 -297 OFFCURVE",
"119 -301 OFFCURVE",
"164 -301 CURVE SMOOTH",
"277 -301 OFFCURVE",
"357 -235 OFFCURVE",
"403 -104 CURVE",
"444 0 LINE"
);
}
);
width = 1098;
}
);
unicode = 0079;
},
{
glyphname = z;
layers = (
{
layerId = "89C6725D-D8C2-4468-AE05-6812C209F477";
name = Bold;
paths = (
{
closed = 1;
nodes = (
"907 0 LINE",
"68 0 LINE",
"68 145 LINE",
"627 926 LINE",
"102 926 LINE",
"102 1106 LINE",
"891 1106 LINE",
"891 942 LINE",
"344 180 LINE",
"907 180 LINE"
);
}
);
width = 979;
}
);
unicode = 007A;
},
{
glyphname = braceleft;
layers = (
{
layerId = "89C6725D-D8C2-4468-AE05-6812C209F477";
name = Bold;
paths = (
{
closed = 1;
nodes = (
"311 287 LINE SMOOTH",
"311 411 OFFCURVE",
"222 473 OFFCURVE",
"45 473 CURVE",
"45 664 LINE",
"225 664 OFFCURVE",
"311 724 OFFCURVE",
"311 848 CURVE SMOOTH",
"311 1159 LINE SMOOTH",
"311 1367 OFFCURVE",
"456 1462 OFFCURVE",
"745 1462 CURVE",
"745 1280 LINE",
"593 1273 OFFCURVE",
"528 1219 OFFCURVE",
"528 1110 CURVE SMOOTH",
"528 813 LINE SMOOTH",
"528 680 OFFCURVE",
"452 601 OFFCURVE",
"299 575 CURVE",
"299 563 LINE",
"452 539 OFFCURVE",
"528 460 OFFCURVE",
"528 326 CURVE SMOOTH",
"528 27 LINE SMOOTH",
"528 -82 OFFCURVE",
"592 -138 OFFCURVE",
"745 -141 CURVE",
"745 -324 LINE",
"437 -321 OFFCURVE",
"311 -226 OFFCURVE",
"311 2 CURVE SMOOTH"
);
}
);
width = 791;
}
);
unicode = 007B;
},
{
glyphname = bar;
layers = (
{
layerId = "89C6725D-D8C2-4468-AE05-6812C209F477";
name = Bold;
paths = (
{
closed = 1;
nodes = (
"473 1552 LINE",
"653 1552 LINE",
"653 -481 LINE",
"473 -481 LINE"
);
}
);
width = 1128;
}
);
unicode = 007C;
},
{
glyphname = braceright;
layers = (
{
layerId = "89C6725D-D8C2-4468-AE05-6812C209F477";
name = Bold;
paths = (
{
closed = 1;
nodes = (
"463 -20 LINE SMOOTH",
"463 -228 OFFCURVE",
"337 -321 OFFCURVE",
"45 -324 CURVE",
"45 -141 LINE",
"172 -140 OFFCURVE",
"246 -96 OFFCURVE",
"246 27 CURVE SMOOTH",
"246 289 LINE SMOOTH",
"246 450 OFFCURVE",
"311 535 OFFCURVE",
"475 563 CURVE",
"475 575 LINE",
"322 601 OFFCURVE",
"246 680 OFFCURVE",
"246 813 CURVE SMOOTH",
"246 1110 LINE SMOOTH",
"246 1219 OFFCURVE",
"192 1273 OFFCURVE",
"45 1280 CURVE",
"45 1462 LINE",
"342 1462 OFFCURVE",
"463 1367 OFFCURVE",
"463 1135 CURVE SMOOTH",
"463 848 LINE SMOOTH",
"463 715 OFFCURVE",
"548 664 OFFCURVE",
"715 664 CURVE",
"715 473 LINE",
"551 473 OFFCURVE",
"463 422 OFFCURVE",
"463 287 CURVE SMOOTH"
);
}
);
width = 760;
}
);
unicode = 007D;
},
{
glyphname = asciitilde;
layers = (
{
layerId = "89C6725D-D8C2-4468-AE05-6812C209F477";
name = Bold;
paths = (
{
closed = 1;
nodes = (
"263 692 OFFCURVE",
"177 652 OFFCURVE",
"96 571 CURVE",
"96 762 LINE",
"162 834 OFFCURVE",
"245 870 OFFCURVE",
"346 870 CURVE SMOOTH",
"434 870 OFFCURVE",
"501 856 OFFCURVE",
"618 807 CURVE SMOOTH",
"705 770 OFFCURVE",
"779 752 OFFCURVE",
"838 752 CURVE SMOOTH",
"907 752 OFFCURVE",
"996 795 OFFCURVE",
"1073 872 CURVE",
"1073 682 LINE",
"1003 608 OFFCURVE",
"920 571 OFFCURVE",
"823 571 CURVE SMOOTH",
"736 571 OFFCURVE",
"661 590 OFFCURVE",
"549 637 CURVE SMOOTH",
"464 674 OFFCURVE",
"391 692 OFFCURVE",
"330 692 CURVE SMOOTH"
);
}
);
width = 1169;
}
);
unicode = 007E;
},
{
glyphname = exclamdown;
layers = (
{
layerId = "89C6725D-D8C2-4468-AE05-6812C209F477";
name = Bold;
paths = (
{
closed = 1;
nodes = (
"193 645 LINE",
"367 645 LINE",
"418 -371 LINE",
"141 -371 LINE"
);
},
{
closed = 1;
nodes = (
"430 866 OFFCURVE",
"380 813 OFFCURVE",
"281 813 CURVE SMOOTH",
"185 813 OFFCURVE",
"133 868 OFFCURVE",
"133 965 CURVE SMOOTH",
"133 1057 OFFCURVE",
"185 1118 OFFCURVE",
"281 1118 CURVE SMOOTH",
"377 1118 OFFCURVE",
"430 1061 OFFCURVE",
"430 965 CURVE SMOOTH"
);
}
);
width = 565;
}
);
unicode = 00A1;
},
{
glyphname = cent;
layers = (
{
layerId = "89C6725D-D8C2-4468-AE05-6812C209F477";
name = Bold;
paths = (
{
closed = 1;
nodes = (
"987 238 LINE",
"908 199 OFFCURVE",
"822 177 OFFCURVE",
"729 174 CURVE",
"729 -20 LINE",
"573 -20 LINE",
"573 180 LINE",
"297 221 OFFCURVE",
"166 408 OFFCURVE",
"166 741 CURVE SMOOTH",
"166 1080 OFFCURVE",
"298 1270 OFFCURVE",
"573 1313 CURVE",
"573 1483 LINE",
"731 1483 LINE",
"731 1321 LINE",
"832 1318 OFFCURVE",
"927 1296 OFFCURVE",
"1014 1255 CURVE",
"944 1067 LINE",
"847 1106 OFFCURVE",
"763 1126 OFFCURVE",
"694 1126 CURVE SMOOTH",
"499 1126 OFFCURVE",
"408 1000 OFFCURVE",
"408 743 CURVE SMOOTH",
"408 484 OFFCURVE",
"506 371 OFFCURVE",
"690 371 CURVE SMOOTH",
"790 371 OFFCURVE",
"871 389 OFFCURVE",
"987 438 CURVE"
);
}
);
width = 1169;
}
);
unicode = 00A2;
},
{
glyphname = sterling;
layers = (
{
layerId = "89C6725D-D8C2-4468-AE05-6812C209F477";
name = Bold;
paths = (
{
closed = 1;
nodes = (
"819 1481 OFFCURVE",
"944 1454 OFFCURVE",
"1065 1399 CURVE",
"989 1217 LINE",
"881 1264 OFFCURVE",
"786 1288 OFFCURVE",
"705 1288 CURVE SMOOTH",
"568 1288 OFFCURVE",
"500 1215 OFFCURVE",
"500 1069 CURVE SMOOTH",
"500 825 LINE",
"897 825 LINE",
"897 653 LINE",
"500 653 LINE",
"500 471 LINE SMOOTH",
"500 350 OFFCURVE",
"461 267 OFFCURVE",
"354 207 CURVE",
"1110 207 LINE",
"1110 0 LINE",
"72 0 LINE",
"72 195 LINE",
"203 235 OFFCURVE",
"264 320 OFFCURVE",
"264 469 CURVE SMOOTH",
"264 653 LINE",
"76 653 LINE",
"76 825 LINE",
"264 825 LINE",
"264 1081 LINE SMOOTH",
"264 1332 OFFCURVE",
"425 1481 OFFCURVE",
"690 1481 CURVE SMOOTH"
);
}
);
width = 1169;
}
);
unicode = 00A3;
},
{
glyphname = currency;
layers = (
{
layerId = "89C6725D-D8C2-4468-AE05-6812C209F477";
name = Bold;
paths = (
{
closed = 1;
nodes = (
"186 796 OFFCURVE",
"207 867 OFFCURVE",
"250 936 CURVE",
"117 1069 LINE",
"238 1188 LINE",
"369 1059 LINE",
"436 1101 OFFCURVE",
"507 1122 OFFCURVE",
"584 1122 CURVE SMOOTH",
"661 1122 OFFCURVE",
"732 1100 OFFCURVE",
"797 1057 CURVE",
"930 1188 LINE",
"1051 1071 LINE",
"920 938 LINE",
"962 871 OFFCURVE",
"983 800 OFFCURVE",
"983 723 CURVE SMOOTH",
"983 644 OFFCURVE",
"962 571 OFFCURVE",
"920 506 CURVE",
"1049 377 LINE",
"930 258 LINE",
"797 387 LINE",
"731 346 OFFCURVE",
"660 326 OFFCURVE",
"584 326 CURVE SMOOTH",
"500 326 OFFCURVE",
"428 346 OFFCURVE",
"369 387 CURVE",
"238 260 LINE",
"119 379 LINE",
"250 508 LINE",
"207 574 OFFCURVE",
"186 646 OFFCURVE",
"186 723 CURVE SMOOTH"
);
},
{
closed = 1;
nodes = (
"354 592 OFFCURVE",
"459 492 OFFCURVE",
"584 492 CURVE SMOOTH",
"713 492 OFFCURVE",
"817 592 OFFCURVE",
"817 723 CURVE SMOOTH",
"817 852 OFFCURVE",
"713 956 OFFCURVE",
"584 956 CURVE SMOOTH",
"460 956 OFFCURVE",
"354 852 OFFCURVE",
"354 723 CURVE SMOOTH"
);
}
);
width = 1169;
}
);
unicode = 00A4;
},
{
glyphname = yen;
layers = (
{
layerId = "89C6725D-D8C2-4468-AE05-6812C209F477";
name = Bold;
paths = (
{
closed = 1;
nodes = (
"584 797 LINE",
"905 1462 LINE",
"1149 1462 LINE",
"750 702 LINE",
"977 702 LINE",
"977 551 LINE",
"696 551 LINE",
"696 397 LINE",
"977 397 LINE",
"977 244 LINE",
"696 244 LINE",
"696 0 LINE",
"471 0 LINE",
"471 244 LINE",
"188 244 LINE",
"188 397 LINE",
"471 397 LINE",
"471 551 LINE",
"188 551 LINE",
"188 702 LINE",
"412 702 LINE",
"18 1462 LINE",
"264 1462 LINE"
);
}
);
width = 1169;
}
);
unicode = 00A5;
},
{
glyphname = brokenbar;
layers = (
{
layerId = "89C6725D-D8C2-4468-AE05-6812C209F477";
name = Bold;
paths = (
{
closed = 1;
nodes = (
"473 1552 LINE",
"653 1552 LINE",
"653 758 LINE",
"473 758 LINE"
);
},
{
closed = 1;
nodes = (
"473 315 LINE",
"653 315 LINE",
"653 -481 LINE",
"473 -481 LINE"
);
}
);
width = 1128;
}
);
unicode = 00A6;
},
{
glyphname = section;
layers = (
{
layerId = "89C6725D-D8C2-4468-AE05-6812C209F477";
name = Bold;
paths = (
{
closed = 1;
nodes = (
"129 914 OFFCURVE",
"182 1004 OFFCURVE",
"279 1061 CURVE",
"182 1116 OFFCURVE",
"133 1195 OFFCURVE",
"133 1296 CURVE SMOOTH",
"133 1468 OFFCURVE",
"290 1571 OFFCURVE",
"537 1571 CURVE SMOOTH",
"658 1571 OFFCURVE",
"761 1551 OFFCURVE",
"893 1495 CURVE",
"825 1333 LINE",
"670 1400 OFFCURVE",
"609 1409 OFFCURVE",
"528 1409 CURVE SMOOTH",
"399 1409 OFFCURVE",
"334 1373 OFFCURVE",
"334 1300 CURVE SMOOTH",
"334 1264 OFFCURVE",
"352 1233 OFFCURVE",
"389 1207 CURVE SMOOTH",
"426 1180 OFFCURVE",
"489 1150 OFFCURVE",
"580 1116 CURVE SMOOTH",
"813 1025 OFFCURVE",
"905 927 OFFCURVE",
"905 782 CURVE SMOOTH",
"905 664 OFFCURVE",
"859 575 OFFCURVE",
"766 516 CURVE",
"859 463 OFFCURVE",
"905 388 OFFCURVE",
"905 293 CURVE SMOOTH",
"905 104 OFFCURVE",
"738 -14 OFFCURVE",
"461 -14 CURVE SMOOTH",
"320 -14 OFFCURVE",
"204 10 OFFCURVE",
"115 57 CURVE",
"115 236 LINE",
"218 183 OFFCURVE",
"357 145 OFFCURVE",
"465 145 CURVE SMOOTH",
"622 145 OFFCURVE",
"700 189 OFFCURVE",
"700 276 CURVE SMOOTH",
"700 333 OFFCURVE",
"675 364 OFFCURVE",
"608 400 CURVE SMOOTH",
"575 418 OFFCURVE",
"526 440 OFFCURVE",
"461 465 CURVE SMOOTH",
"273 538 OFFCURVE",
"200 594 OFFCURVE",
"160 672 CURVE SMOOTH",
"139 711 OFFCURVE",
"129 756 OFFCURVE",
"129 807 CURVE SMOOTH"
);
},
{
closed = 1;
nodes = (
"313 767 OFFCURVE",
"343 723 OFFCURVE",
"416 678 CURVE SMOOTH",
"452 655 OFFCURVE",
"517 625 OFFCURVE",
"610 588 CURVE",
"683 631 OFFCURVE",
"719 687 OFFCURVE",
"719 756 CURVE SMOOTH",
"719 806 OFFCURVE",
"698 848 OFFCURVE",
"657 883 CURVE SMOOTH",
"616 917 OFFCURVE",
"542 952 OFFCURVE",
"436 987 CURVE",
"364 966 OFFCURVE",
"313 898 OFFCURVE",
"313 827 CURVE SMOOTH"
);
}
);
width = 1026;
}
);
unicode = 00A7;
},
{
glyphname = dieresis;
layers = (
{
layerId = "89C6725D-D8C2-4468-AE05-6812C209F477";
name = Bold;
paths = (
{
closed = 1;
nodes = (
"293 1482 OFFCURVE",
"344 1516 OFFCURVE",
"408 1516 CURVE SMOOTH",
"479 1516 OFFCURVE",
"524 1472 OFFCURVE",
"524 1399 CURVE SMOOTH",
"524 1328 OFFCURVE",
"477 1282 OFFCURVE",
"408 1282 CURVE SMOOTH",
"344 1282 OFFCURVE",
"293 1320 OFFCURVE",
"293 1399 CURVE SMOOTH"
);
},
{
closed = 1;
nodes = (
"686 1482 OFFCURVE",
"737 1516 OFFCURVE",
"801 1516 CURVE SMOOTH",
"872 1516 OFFCURVE",
"918 1472 OFFCURVE",
"918 1399 CURVE SMOOTH",
"918 1327 OFFCURVE",
"869 1282 OFFCURVE",
"801 1282 CURVE SMOOTH",
"737 1282 OFFCURVE",
"686 1320 OFFCURVE",
"686 1399 CURVE SMOOTH"
);
}
);
width = 1212;
}
);
unicode = 00A8;
},
{
glyphname = copyright;
layers = (
{
layerId = "89C6725D-D8C2-4468-AE05-6812C209F477";
name = Bold;
paths = (
{
closed = 1;
nodes = (
"745 1034 OFFCURVE",
"662 920 OFFCURVE",
"662 731 CURVE SMOOTH",
"662 535 OFFCURVE",
"729 426 OFFCURVE",
"893 426 CURVE SMOOTH",
"966 426 OFFCURVE",
"1059 449 OFFCURVE",
"1120 477 CURVE",
"1120 319 LINE",
"1043 285 OFFCURVE",
"965 268 OFFCURVE",
"885 268 CURVE SMOOTH",
"622 268 OFFCURVE",
"471 435 OFFCURVE",
"471 731 CURVE SMOOTH",
"471 1016 OFFCURVE",
"626 1192 OFFCURVE",
"887 1192 CURVE SMOOTH",
"979 1192 OFFCURVE",
"1070 1169 OFFCURVE",
"1161 1122 CURVE",
"1096 979 LINE",
"1025 1016 OFFCURVE",
"958 1034 OFFCURVE",
"893 1034 CURVE SMOOTH"
);
},
{
closed = 1;
nodes = (
"100 998 OFFCURVE",
"242 1247 OFFCURVE",
"475 1382 CURVE SMOOTH",
"592 1449 OFFCURVE",
"717 1483 OFFCURVE",
"852 1483 CURVE SMOOTH",
"1119 1483 OFFCURVE",
"1368 1341 OFFCURVE",
"1503 1108 CURVE SMOOTH",
"1570 991 OFFCURVE",
"1604 866 OFFCURVE",
"1604 731 CURVE SMOOTH",
"1604 468 OFFCURVE",
"1468 223 OFFCURVE",
"1235 84 CURVE SMOOTH",
"1118 15 OFFCURVE",
"991 -20 OFFCURVE",
"852 -20 CURVE SMOOTH",
"576 -20 OFFCURVE",
"328 129 OFFCURVE",
"198 360 CURVE SMOOTH",
"133 475 OFFCURVE",
"100 599 OFFCURVE",
"100 731 CURVE SMOOTH"
);
},
{
closed = 1;
nodes = (
"223 504 OFFCURVE",
"343 298 OFFCURVE",
"538 186 CURVE SMOOTH",
"635 130 OFFCURVE",
"740 102 OFFCURVE",
"852 102 CURVE SMOOTH",
"1079 102 OFFCURVE",
"1286 225 OFFCURVE",
"1398 418 CURVE SMOOTH",
"1453 514 OFFCURVE",
"1481 618 OFFCURVE",
"1481 731 CURVE SMOOTH",
"1481 955 OFFCURVE",
"1361 1164 OFFCURVE",
"1166 1276 CURVE SMOOTH",
"1068 1332 OFFCURVE",
"963 1360 OFFCURVE",
"852 1360 CURVE SMOOTH",
"628 1360 OFFCURVE",
"424 1243 OFFCURVE",
"309 1048 CURVE SMOOTH",
"252 951 OFFCURVE",
"223 845 OFFCURVE",
"223 731 CURVE SMOOTH"
);
}
);
width = 1704;
}
);
unicode = 00A9;
},
{
glyphname = ordfeminine;
layers = (
{
layerId = "89C6725D-D8C2-4468-AE05-6812C209F477";
name = Bold;
paths = (
{
closed = 1;
nodes = (
"547 782 LINE",
"518 879 LINE",
"457 806 OFFCURVE",
"378 770 OFFCURVE",
"283 770 CURVE SMOOTH",
"132 770 OFFCURVE",
"57 840 OFFCURVE",
"57 981 CURVE SMOOTH",
"57 1120 OFFCURVE",
"169 1194 OFFCURVE",
"393 1202 CURVE SMOOTH",
"500 1206 LINE",
"500 1302 OFFCURVE",
"454 1350 OFFCURVE",
"362 1350 CURVE SMOOTH",
"302 1350 OFFCURVE",
"232 1331 OFFCURVE",
"152 1294 CURVE",
"98 1409 LINE",
"194 1456 OFFCURVE",
"289 1479 OFFCURVE",
"383 1479 CURVE SMOOTH",
"567 1479 OFFCURVE",
"659 1396 OFFCURVE",
"659 1229 CURVE SMOOTH",
"659 782 LINE"
);
},
{
closed = 1;
nodes = (
"401 1098 LINE SMOOTH",
"306 1095 OFFCURVE",
"221 1048 OFFCURVE",
"221 983 CURVE SMOOTH",
"221 924 OFFCURVE",
"253 895 OFFCURVE",
"317 895 CURVE SMOOTH",
"438 895 OFFCURVE",
"500 950 OFFCURVE",
"500 1059 CURVE SMOOTH",
"500 1102 LINE"
);
}
);
width = 754;
}
);
unicode = 00AA;
},
{
glyphname = guillemotleft;
layers = (
{
layerId = "89C6725D-D8C2-4468-AE05-6812C209F477";
name = Bold;
paths = (
{
closed = 1;
nodes = (
"82 561 LINE",
"438 993 LINE",
"606 899 LINE",
"324 549 LINE",
"606 201 LINE",
"438 104 LINE",
"82 535 LINE"
);
},
{
closed = 1;
nodes = (
"532 561 LINE",
"889 993 LINE",
"1057 899 LINE",
"774 549 LINE",
"1057 201 LINE",
"889 104 LINE",
"532 535 LINE"
);
}
);
width = 1139;
}
);
unicode = 00AB;
},
{
glyphname = logicalnot;
layers = (
{
layerId = "89C6725D-D8C2-4468-AE05-6812C209F477";
name = Bold;
paths = (
{
closed = 1;
nodes = (
"1073 256 LINE",
"895 256 LINE",
"895 633 LINE",
"96 633 LINE",
"96 811 LINE",
"1073 811 LINE"
);
}
);
width = 1169;
}
);
unicode = 00AC;
},
{
glyphname = uni00AD;
layers = (
{
layerId = "89C6725D-D8C2-4468-AE05-6812C209F477";
name = Bold;
paths = (
{
closed = 1;
nodes = (
"72 449 LINE",
"72 649 LINE",
"586 649 LINE",
"586 449 LINE"
);
}
);
width = 659;
}
);
unicode = 00AD;
},
{
glyphname = registered;
layers = (
{
layerId = "89C6725D-D8C2-4468-AE05-6812C209F477";
name = Bold;
paths = (
{
closed = 1;
nodes = (
"748 770 LINE",
"817 770 LINE SMOOTH",
"916 770 OFFCURVE",
"967 818 OFFCURVE",
"967 905 CURVE SMOOTH",
"967 1001 OFFCURVE",
"920 1034 OFFCURVE",
"815 1034 CURVE SMOOTH",
"748 1034 LINE"
);
},
{
closed = 1;
nodes = (
"1157 795 OFFCURVE",
"1106 717 OFFCURVE",
"1004 676 CURVE",
"1241 279 LINE",
"1030 279 LINE",
"838 625 LINE",
"748 625 LINE",
"748 279 LINE",
"559 279 LINE",
"559 1182 LINE",
"821 1182 LINE SMOOTH",
"1053 1182 OFFCURVE",
"1157 1092 OFFCURVE",
"1157 909 CURVE SMOOTH"
);
},
{
closed = 1;
nodes = (
"100 998 OFFCURVE",
"242 1247 OFFCURVE",
"475 1382 CURVE SMOOTH",
"592 1449 OFFCURVE",
"717 1483 OFFCURVE",
"852 1483 CURVE SMOOTH",
"1119 1483 OFFCURVE",
"1368 1341 OFFCURVE",
"1503 1108 CURVE SMOOTH",
"1570 991 OFFCURVE",
"1604 866 OFFCURVE",
"1604 731 CURVE SMOOTH",
"1604 468 OFFCURVE",
"1468 223 OFFCURVE",
"1235 84 CURVE SMOOTH",
"1118 15 OFFCURVE",
"991 -20 OFFCURVE",
"852 -20 CURVE SMOOTH",
"576 -20 OFFCURVE",
"328 129 OFFCURVE",
"198 360 CURVE SMOOTH",
"133 475 OFFCURVE",
"100 599 OFFCURVE",
"100 731 CURVE SMOOTH"
);
},
{
closed = 1;
nodes = (
"223 504 OFFCURVE",
"343 298 OFFCURVE",
"538 186 CURVE SMOOTH",
"635 130 OFFCURVE",
"740 102 OFFCURVE",
"852 102 CURVE SMOOTH",
"1079 102 OFFCURVE",
"1286 225 OFFCURVE",
"1398 418 CURVE SMOOTH",
"1453 514 OFFCURVE",
"1481 618 OFFCURVE",
"1481 731 CURVE SMOOTH",
"1481 955 OFFCURVE",
"1361 1164 OFFCURVE",
"1166 1276 CURVE SMOOTH",
"1068 1332 OFFCURVE",
"963 1360 OFFCURVE",
"852 1360 CURVE SMOOTH",
"628 1360 OFFCURVE",
"424 1243 OFFCURVE",
"309 1048 CURVE SMOOTH",
"252 951 OFFCURVE",
"223 845 OFFCURVE",
"223 731 CURVE SMOOTH"
);
}
);
width = 1704;
}
);
unicode = 00AE;
},
{
glyphname = overscore;
layers = (
{
layerId = "89C6725D-D8C2-4468-AE05-6812C209F477";
name = Bold;
paths = (
{
closed = 1;
nodes = (
"1030 1556 LINE",
"-6 1556 LINE",
"-6 1720 LINE",
"1030 1720 LINE"
);
}
);
width = 1024;
}
);
unicode = 00AF;
},
{
glyphname = degree;
layers = (
{
layerId = "89C6725D-D8C2-4468-AE05-6812C209F477";
name = Bold;
paths = (
{
closed = 1;
nodes = (
"109 1333 OFFCURVE",
"253 1483 OFFCURVE",
"438 1483 CURVE SMOOTH",
"622 1483 OFFCURVE",
"766 1337 OFFCURVE",
"766 1153 CURVE SMOOTH",
"766 968 OFFCURVE",
"619 825 OFFCURVE",
"438 825 CURVE SMOOTH",
"321 825 OFFCURVE",
"212 887 OFFCURVE",
"153 988 CURVE SMOOTH",
"124 1039 OFFCURVE",
"109 1094 OFFCURVE",
"109 1153 CURVE SMOOTH"
);
},
{
closed = 1;
nodes = (
"262 1060 OFFCURVE",
"339 979 OFFCURVE",
"438 979 CURVE SMOOTH",
"537 979 OFFCURVE",
"614 1058 OFFCURVE",
"614 1153 CURVE SMOOTH",
"614 1254 OFFCURVE",
"534 1331 OFFCURVE",
"438 1331 CURVE SMOOTH",
"342 1331 OFFCURVE",
"262 1252 OFFCURVE",
"262 1153 CURVE SMOOTH"
);
}
);
width = 877;
}
);
unicode = 00B0;
},
{
glyphname = plusminus;
layers = (
{
layerId = "89C6725D-D8C2-4468-AE05-6812C209F477";
name = Bold;
paths = (
{
closed = 1;
nodes = (
"494 664 LINE",
"96 664 LINE",
"96 842 LINE",
"494 842 LINE",
"494 1249 LINE",
"674 1249 LINE",
"674 842 LINE",
"1073 842 LINE",
"1073 664 LINE",
"674 664 LINE",
"674 258 LINE",
"494 258 LINE"
);
},
{
closed = 1;
nodes = (
"96 0 LINE",
"96 178 LINE",
"1073 178 LINE",
"1073 0 LINE"
);
}
);
width = 1169;
}
);
unicode = 00B1;
},
{
glyphname = twosuperior;
layers = (
{
layerId = "89C6725D-D8C2-4468-AE05-6812C209F477";
name = Bold;
paths = (
{
closed = 1;
nodes = (
"678 586 LINE",
"51 586 LINE",
"51 721 LINE",
"281 946 LINE SMOOTH",
"359 1021 OFFCURVE",
"409 1076 OFFCURVE",
"431 1111 CURVE SMOOTH",
"452 1146 OFFCURVE",
"463 1184 OFFCURVE",
"463 1223 CURVE SMOOTH",
"463 1292 OFFCURVE",
"416 1329 OFFCURVE",
"348 1329 CURVE SMOOTH",
"286 1329 OFFCURVE",
"219 1300 OFFCURVE",
"147 1241 CURVE",
"53 1362 LINE",
"146 1441 OFFCURVE",
"249 1481 OFFCURVE",
"362 1481 CURVE SMOOTH",
"543 1481 OFFCURVE",
"649 1387 OFFCURVE",
"649 1235 CURVE SMOOTH",
"649 1124 OFFCURVE",
"603 1043 OFFCURVE",
"420 874 CURVE SMOOTH",
"281 745 LINE",
"678 745 LINE"
);
}
);
width = 743;
}
);
unicode = 00B2;
},
{
glyphname = threesuperior;
layers = (
{
layerId = "89C6725D-D8C2-4468-AE05-6812C209F477";
name = Bold;
paths = (
{
closed = 1;
nodes = (
"645 1151 OFFCURVE",
"590 1094 OFFCURVE",
"485 1042 CURVE",
"610 1014 OFFCURVE",
"674 937 OFFCURVE",
"674 834 CURVE SMOOTH",
"674 665 OFFCURVE",
"546 569 OFFCURVE",
"315 569 CURVE SMOOTH",
"216 569 OFFCURVE",
"126 590 OFFCURVE",
"45 631 CURVE",
"45 788 LINE",
"142 735 OFFCURVE",
"232 709 OFFCURVE",
"315 709 CURVE SMOOTH",
"434 709 OFFCURVE",
"494 754 OFFCURVE",
"494 844 CURVE SMOOTH",
"494 927 OFFCURVE",
"428 969 OFFCURVE",
"295 969 CURVE SMOOTH",
"180 969 LINE",
"180 1102 LINE",
"285 1102 LINE SMOOTH",
"408 1102 OFFCURVE",
"469 1145 OFFCURVE",
"469 1231 CURVE SMOOTH",
"469 1300 OFFCURVE",
"419 1339 OFFCURVE",
"344 1339 CURVE SMOOTH",
"268 1339 OFFCURVE",
"209 1311 OFFCURVE",
"133 1262 CURVE",
"49 1376 LINE",
"130 1437 OFFCURVE",
"223 1481 OFFCURVE",
"354 1481 CURVE SMOOTH",
"533 1481 OFFCURVE",
"645 1394 OFFCURVE",
"645 1251 CURVE SMOOTH"
);
}
);
width = 743;
}
);
unicode = 00B3;
},
{
glyphname = acute;
layers = (
{
layerId = "89C6725D-D8C2-4468-AE05-6812C209F477";
name = Bold;
paths = (
{
closed = 1;
nodes = (
"362 1241 LINE",
"362 1266 LINE",
"438 1359 OFFCURVE",
"528 1488 OFFCURVE",
"575 1569 CURVE",
"848 1569 LINE",
"848 1548 LINE",
"779 1467 OFFCURVE",
"613 1312 OFFCURVE",
"518 1241 CURVE"
);
}
);
width = 1212;
}
);
unicode = 00B4;
},
{
glyphname = mu;
layers = (
{
layerId = "89C6725D-D8C2-4468-AE05-6812C209F477";
name = Bold;
paths = (
{
closed = 1;
nodes = (
"403 422 LINE SMOOTH",
"403 254 OFFCURVE",
"476 170 OFFCURVE",
"621 170 CURVE SMOOTH",
"816 170 OFFCURVE",
"905 278 OFFCURVE",
"905 555 CURVE SMOOTH",
"905 1106 LINE",
"1141 1106 LINE",
"1141 0 LINE",
"958 0 LINE",
"924 147 LINE",
"911 147 LINE",
"847 36 OFFCURVE",
"755 -20 OFFCURVE",
"616 -20 CURVE SMOOTH",
"523 -20 OFFCURVE",
"450 10 OFFCURVE",
"397 70 CURVE",
"393 70 LINE",
"397 33 OFFCURVE",
"403 -124 OFFCURVE",
"403 -172 CURVE SMOOTH",
"403 -492 LINE",
"168 -492 LINE",
"168 1106 LINE",
"403 1106 LINE"
);
}
);
width = 1309;
}
);
unicode = 00B5;
},
{
glyphname = paragraph;
layers = (
{
layerId = "89C6725D-D8C2-4468-AE05-6812C209F477";
name = Bold;
paths = (
{
closed = 1;
nodes = (
"1143 -260 LINE",
"1006 -260 LINE",
"1006 1403 LINE",
"815 1403 LINE",
"815 -260 LINE",
"678 -260 LINE",
"678 559 LINE",
"637 547 OFFCURVE",
"588 541 OFFCURVE",
"532 541 CURVE SMOOTH",
"244 541 OFFCURVE",
"113 707 OFFCURVE",
"113 1042 CURVE SMOOTH",
"113 1389 OFFCURVE",
"254 1556 OFFCURVE",
"563 1556 CURVE SMOOTH",
"1143 1556 LINE"
);
}
);
width = 1341;
}
);
unicode = 00B6;
},
{
glyphname = periodcentered;
layers = (
{
layerId = "89C6725D-D8C2-4468-AE05-6812C209F477";
name = Bold;
paths = (
{
closed = 1;
nodes = (
"133 820 OFFCURVE",
"185 874 OFFCURVE",
"281 874 CURVE SMOOTH",
"378 874 OFFCURVE",
"430 816 OFFCURVE",
"430 723 CURVE SMOOTH",
"430 628 OFFCURVE",
"377 569 OFFCURVE",
"281 569 CURVE SMOOTH",
"185 569 OFFCURVE",
"133 627 OFFCURVE",
"133 723 CURVE SMOOTH"
);
}
);
width = 563;
}
);
unicode = 00B7;
},
{
glyphname = cedilla;
layers = (
{
layerId = "89C6725D-D8C2-4468-AE05-6812C209F477";
name = Bold;
paths = (
{
closed = 1;
nodes = (
"426 -418 OFFCURVE",
"324 -492 OFFCURVE",
"121 -492 CURVE SMOOTH",
"77 -492 OFFCURVE",
"37 -487 OFFCURVE",
"0 -477 CURVE",
"0 -340 LINE",
"36 -349 OFFCURVE",
"77 -354 OFFCURVE",
"123 -354 CURVE SMOOTH",
"195 -354 OFFCURVE",
"240 -336 OFFCURVE",
"240 -276 CURVE SMOOTH",
"240 -219 OFFCURVE",
"180 -183 OFFCURVE",
"61 -166 CURVE",
"145 0 LINE",
"297 0 LINE",
"256 -88 LINE",
"363 -116 OFFCURVE",
"426 -182 OFFCURVE",
"426 -270 CURVE SMOOTH"
);
}
);
width = 442;
}
);
unicode = 00B8;
},
{
glyphname = onesuperior;
layers = (
{
layerId = "89C6725D-D8C2-4468-AE05-6812C209F477";
name = Bold;
paths = (
{
closed = 1;
nodes = (
"532 586 LINE",
"346 586 LINE",
"346 1098 LINE",
"349 1201 LINE",
"354 1292 LINE",
"343 1280 OFFCURVE",
"329 1267 OFFCURVE",
"314 1252 CURVE SMOOTH",
"298 1237 OFFCURVE",
"251 1200 OFFCURVE",
"172 1141 CURVE",
"84 1253 LINE",
"365 1462 LINE",
"532 1462 LINE"
);
}
);
width = 743;
}
);
unicode = 00B9;
},
{
glyphname = ordmasculine;
layers = (
{
layerId = "89C6725D-D8C2-4468-AE05-6812C209F477";
name = Bold;
paths = (
{
closed = 1;
nodes = (
"719 905 OFFCURVE",
"596 770 OFFCURVE",
"387 770 CURVE SMOOTH",
"187 770 OFFCURVE",
"61 907 OFFCURVE",
"61 1124 CURVE SMOOTH",
"61 1349 OFFCURVE",
"187 1479 OFFCURVE",
"391 1479 CURVE SMOOTH",
"594 1479 OFFCURVE",
"719 1345 OFFCURVE",
"719 1124 CURVE SMOOTH"
);
},
{
closed = 1;
nodes = (
"223 976 OFFCURVE",
"272 903 OFFCURVE",
"389 903 CURVE SMOOTH",
"506 903 OFFCURVE",
"555 976 OFFCURVE",
"555 1124 CURVE SMOOTH",
"555 1275 OFFCURVE",
"506 1346 OFFCURVE",
"389 1346 CURVE SMOOTH",
"272 1346 OFFCURVE",
"223 1275 OFFCURVE",
"223 1124 CURVE SMOOTH"
);
}
);
width = 780;
}
);
unicode = 00BA;
},
{
glyphname = guillemotright;
layers = (
{
layerId = "89C6725D-D8C2-4468-AE05-6812C209F477";
name = Bold;
paths = (
{
closed = 1;
nodes = (
"1057 535 LINE",
"698 104 LINE",
"530 201 LINE",
"813 549 LINE",
"530 899 LINE",
"698 993 LINE",
"1057 561 LINE"
);
},
{
closed = 1;
nodes = (
"606 535 LINE",
"248 104 LINE",
"80 201 LINE",
"362 549 LINE",
"80 899 LINE",
"248 993 LINE",
"606 561 LINE"
);
}
);
width = 1139;
}
);
unicode = 00BB;
},
{
glyphname = onequarter;
layers = (
{
layerId = "89C6725D-D8C2-4468-AE05-6812C209F477";
name = Bold;
paths = (
{
closed = 1;
nodes = (
"1333 1462 LINE",
"477 0 LINE",
"285 0 LINE",
"1143 1462 LINE"
);
},
{
closed = 1;
nodes = (
"508 586 LINE",
"322 586 LINE",
"322 1098 LINE",
"325 1201 LINE",
"330 1292 LINE",
"319 1280 OFFCURVE",
"305 1267 OFFCURVE",
"290 1252 CURVE SMOOTH",
"274 1237 OFFCURVE",
"227 1200 OFFCURVE",
"148 1141 CURVE",
"60 1253 LINE",
"341 1462 LINE",
"508 1462 LINE"
);
},
{
closed = 1;
nodes = (
"1585 177 LINE",
"1460 177 LINE",
"1460 1 LINE",
"1268 1 LINE",
"1268 177 LINE",
"876 177 LINE",
"876 304 LINE",
"1272 883 LINE",
"1460 883 LINE",
"1460 320 LINE",
"1585 320 LINE"
);
},
{
closed = 1;
nodes = (
"1268 320 LINE",
"1268 498 LINE SMOOTH",
"1268 563 OFFCURVE",
"1270 628 OFFCURVE",
"1274 695 CURVE",
"1239 626 OFFCURVE",
"1210 573 OFFCURVE",
"1186 537 CURVE SMOOTH",
"1038 320 LINE"
);
}
);
width = 1700;
}
);
unicode = 00BC;
},
{
glyphname = onehalf;
layers = (
{
layerId = "89C6725D-D8C2-4468-AE05-6812C209F477";
name = Bold;
paths = (
{
closed = 1;
nodes = (
"1298 1462 LINE",
"442 0 LINE",
"250 0 LINE",
"1108 1462 LINE"
);
},
{
closed = 1;
nodes = (
"494 586 LINE",
"308 586 LINE",
"308 1098 LINE",
"311 1201 LINE",
"316 1292 LINE",
"305 1280 OFFCURVE",
"291 1267 OFFCURVE",
"276 1252 CURVE SMOOTH",
"260 1237 OFFCURVE",
"213 1200 OFFCURVE",
"134 1141 CURVE",
"46 1253 LINE",
"327 1462 LINE",
"494 1462 LINE"
);
},
{
closed = 1;
nodes = (
"1608 1 LINE",
"981 1 LINE",
"981 136 LINE",
"1211 361 LINE SMOOTH",
"1289 436 OFFCURVE",
"1339 491 OFFCURVE",
"1361 526 CURVE SMOOTH",
"1382 561 OFFCURVE",
"1393 599 OFFCURVE",
"1393 638 CURVE SMOOTH",
"1393 707 OFFCURVE",
"1346 744 OFFCURVE",
"1278 744 CURVE SMOOTH",
"1216 744 OFFCURVE",
"1149 715 OFFCURVE",
"1077 656 CURVE",
"983 777 LINE",
"1076 856 OFFCURVE",
"1179 896 OFFCURVE",
"1292 896 CURVE SMOOTH",
"1473 896 OFFCURVE",
"1579 802 OFFCURVE",
"1579 650 CURVE SMOOTH",
"1579 539 OFFCURVE",
"1533 458 OFFCURVE",
"1350 289 CURVE SMOOTH",
"1211 160 LINE",
"1608 160 LINE"
);
}
);
width = 1700;
}
);
unicode = 00BD;
},
{
glyphname = threequarters;
layers = (
{
layerId = "89C6725D-D8C2-4468-AE05-6812C209F477";
name = Bold;
paths = (
{
closed = 1;
nodes = (
"1415 1462 LINE",
"559 0 LINE",
"367 0 LINE",
"1225 1462 LINE"
);
},
{
closed = 1;
nodes = (
"1640 177 LINE",
"1515 177 LINE",
"1515 1 LINE",
"1323 1 LINE",
"1323 177 LINE",
"931 177 LINE",
"931 304 LINE",
"1327 883 LINE",
"1515 883 LINE",
"1515 320 LINE",
"1640 320 LINE"
);
},
{
closed = 1;
nodes = (
"1323 320 LINE",
"1323 498 LINE SMOOTH",
"1323 563 OFFCURVE",
"1325 628 OFFCURVE",
"1329 695 CURVE",
"1294 626 OFFCURVE",
"1265 573 OFFCURVE",
"1241 537 CURVE SMOOTH",
"1093 320 LINE"
);
},
{
closed = 1;
nodes = (
"655 1151 OFFCURVE",
"600 1094 OFFCURVE",
"495 1042 CURVE",
"620 1014 OFFCURVE",
"684 937 OFFCURVE",
"684 834 CURVE SMOOTH",
"684 665 OFFCURVE",
"556 569 OFFCURVE",
"325 569 CURVE SMOOTH",
"226 569 OFFCURVE",
"136 590 OFFCURVE",
"55 631 CURVE",
"55 788 LINE",
"152 735 OFFCURVE",
"242 709 OFFCURVE",
"325 709 CURVE SMOOTH",
"444 709 OFFCURVE",
"504 754 OFFCURVE",
"504 844 CURVE SMOOTH",
"504 927 OFFCURVE",
"438 969 OFFCURVE",
"305 969 CURVE SMOOTH",
"190 969 LINE",
"190 1102 LINE",
"295 1102 LINE SMOOTH",
"418 1102 OFFCURVE",
"479 1145 OFFCURVE",
"479 1231 CURVE SMOOTH",
"479 1300 OFFCURVE",
"429 1339 OFFCURVE",
"354 1339 CURVE SMOOTH",
"278 1339 OFFCURVE",
"219 1311 OFFCURVE",
"143 1262 CURVE",
"59 1376 LINE",
"140 1437 OFFCURVE",
"233 1481 OFFCURVE",
"364 1481 CURVE SMOOTH",
"543 1481 OFFCURVE",
"655 1394 OFFCURVE",
"655 1251 CURVE SMOOTH"
);
}
);
width = 1700;
}
);
unicode = 00BE;
},
{
glyphname = questiondown;
layers = (
{
layerId = "89C6725D-D8C2-4468-AE05-6812C209F477";
name = Bold;
paths = (
{
closed = 1;
nodes = (
"651 645 LINE",
"651 582 LINE SMOOTH",
"651 441 OFFCURVE",
"603 353 OFFCURVE",
"467 246 CURVE SMOOTH",
"302 115 OFFCURVE",
"281 75 OFFCURVE",
"281 -25 CURVE SMOOTH",
"281 -129 OFFCURVE",
"353 -197 OFFCURVE",
"496 -197 CURVE SMOOTH",
"616 -197 OFFCURVE",
"727 -155 OFFCURVE",
"836 -104 CURVE",
"918 -283 LINE",
"771 -356 OFFCURVE",
"630 -393 OFFCURVE",
"494 -393 CURVE SMOOTH",
"218 -393 OFFCURVE",
"55 -258 OFFCURVE",
"55 -33 CURVE SMOOTH",
"55 64 OFFCURVE",
"83 137 OFFCURVE",
"140 206 CURVE SMOOTH",
"169 241 OFFCURVE",
"221 288 OFFCURVE",
"297 348 CURVE SMOOTH",
"422 449 OFFCURVE",
"453 495 OFFCURVE",
"453 600 CURVE SMOOTH",
"453 645 LINE"
);
},
{
closed = 1;
nodes = (
"692 866 OFFCURVE",
"642 813 OFFCURVE",
"543 813 CURVE SMOOTH",
"447 813 OFFCURVE",
"395 868 OFFCURVE",
"395 965 CURVE SMOOTH",
"395 1057 OFFCURVE",
"447 1118 OFFCURVE",
"543 1118 CURVE SMOOTH",
"639 1118 OFFCURVE",
"692 1061 OFFCURVE",
"692 965 CURVE SMOOTH"
);
}
);
width = 928;
}
);
unicode = 00BF;
},
{
glyphname = Agrave;
layers = (
{
layerId = "89C6725D-D8C2-4468-AE05-6812C209F477";
name = Bold;
paths = (
{
closed = 1;
nodes = (
"1100 0 LINE",
"954 406 LINE",
"395 406 LINE",
"252 0 LINE",
"0 0 LINE",
"547 1468 LINE",
"807 1468 LINE",
"1354 0 LINE"
);
},
{
closed = 1;
nodes = (
"891 612 LINE",
"754 1010 LINE SMOOTH",
"734 1063 OFFCURVE",
"689 1209 OFFCURVE",
"676 1262 CURVE",
"658 1180 OFFCURVE",
"632 1090 OFFCURVE",
"597 993 CURVE SMOOTH",
"465 612 LINE"
);
},
{
closed = 1;
nodes = (
"662 1579 LINE",
"570 1648 OFFCURVE",
"398 1809 OFFCURVE",
"334 1886 CURVE",
"334 1907 LINE",
"607 1907 LINE",
"658 1814 OFFCURVE",
"761 1672 OFFCURVE",
"820 1604 CURVE",
"820 1579 LINE"
);
}
);
width = 1354;
}
);
unicode = 00C0;
},
{
glyphname = Aacute;
layers = (
{
layerId = "89C6725D-D8C2-4468-AE05-6812C209F477";
name = Bold;
paths = (
{
closed = 1;
nodes = (
"1100 0 LINE",
"954 406 LINE",
"395 406 LINE",
"252 0 LINE",
"0 0 LINE",
"547 1468 LINE",
"807 1468 LINE",
"1354 0 LINE"
);
},
{
closed = 1;
nodes = (
"891 612 LINE",
"754 1010 LINE SMOOTH",
"734 1063 OFFCURVE",
"689 1209 OFFCURVE",
"676 1262 CURVE",
"658 1180 OFFCURVE",
"632 1090 OFFCURVE",
"597 993 CURVE SMOOTH",
"465 612 LINE"
);
},
{
closed = 1;
nodes = (
"532 1579 LINE",
"532 1604 LINE",
"608 1697 OFFCURVE",
"698 1826 OFFCURVE",
"745 1907 CURVE",
"1018 1907 LINE",
"1018 1886 LINE",
"949 1805 OFFCURVE",
"783 1650 OFFCURVE",
"688 1579 CURVE"
);
}
);
width = 1354;
}
);
unicode = 00C1;
},
{
glyphname = Acircumflex;
layers = (
{
layerId = "89C6725D-D8C2-4468-AE05-6812C209F477";
name = Bold;
paths = (
{
closed = 1;
nodes = (
"1100 0 LINE",
"954 406 LINE",
"395 406 LINE",
"252 0 LINE",
"0 0 LINE",
"547 1468 LINE",
"807 1468 LINE",
"1354 0 LINE"
);
},
{
closed = 1;
nodes = (
"891 612 LINE",
"754 1010 LINE SMOOTH",
"734 1063 OFFCURVE",
"689 1209 OFFCURVE",
"676 1262 CURVE",
"658 1180 OFFCURVE",
"632 1090 OFFCURVE",
"597 993 CURVE SMOOTH",
"465 612 LINE"
);
},
{
closed = 1;
nodes = (
"897 1579 LINE",
"815 1628 OFFCURVE",
"739 1688 OFFCURVE",
"669 1759 CURVE",
"600 1690 OFFCURVE",
"525 1630 OFFCURVE",
"444 1579 CURVE",
"286 1579 LINE",
"286 1604 LINE",
"413 1736 OFFCURVE",
"498 1837 OFFCURVE",
"540 1907 CURVE",
"800 1907 LINE",
"842 1834 OFFCURVE",
"927 1733 OFFCURVE",
"1056 1604 CURVE",
"1056 1579 LINE"
);
}
);
width = 1354;
}
);
unicode = 00C2;
},
{
glyphname = Atilde;
layers = (
{
layerId = "89C6725D-D8C2-4468-AE05-6812C209F477";
name = Bold;
paths = (
{
closed = 1;
nodes = (
"1100 0 LINE",
"954 406 LINE",
"395 406 LINE",
"252 0 LINE",
"0 0 LINE",
"547 1468 LINE",
"807 1468 LINE",
"1354 0 LINE"
);
},
{
closed = 1;
nodes = (
"891 612 LINE",
"754 1010 LINE SMOOTH",
"734 1063 OFFCURVE",
"689 1209 OFFCURVE",
"676 1262 CURVE",
"658 1180 OFFCURVE",
"632 1090 OFFCURVE",
"597 993 CURVE SMOOTH",
"465 612 LINE"
);
},
{
closed = 1;
nodes = (
"765 1579 OFFCURVE",
"711 1607 OFFCURVE",
"659 1636 CURVE SMOOTH",
"607 1664 OFFCURVE",
"557 1692 OFFCURVE",
"512 1692 CURVE SMOOTH",
"458 1692 OFFCURVE",
"422 1654 OFFCURVE",
"403 1577 CURVE",
"281 1577 LINE",
"297 1762 OFFCURVE",
"390 1862 OFFCURVE",
"526 1862 CURVE SMOOTH",
"583 1862 OFFCURVE",
"638 1834 OFFCURVE",
"690 1806 CURVE SMOOTH",
"742 1777 OFFCURVE",
"791 1749 OFFCURVE",
"836 1749 CURVE SMOOTH",
"889 1749 OFFCURVE",
"924 1787 OFFCURVE",
"942 1864 CURVE",
"1067 1864 LINE",
"1051 1685 OFFCURVE",
"960 1579 OFFCURVE",
"821 1579 CURVE SMOOTH"
);
}
);
width = 1354;
}
);
unicode = 00C3;
},
{
glyphname = Adieresis;
layers = (
{
layerId = "89C6725D-D8C2-4468-AE05-6812C209F477";
name = Bold;
paths = (
{
closed = 1;
nodes = (
"1100 0 LINE",
"954 406 LINE",
"395 406 LINE",
"252 0 LINE",
"0 0 LINE",
"547 1468 LINE",
"807 1468 LINE",
"1354 0 LINE"
);
},
{
closed = 1;
nodes = (
"891 612 LINE",
"754 1010 LINE SMOOTH",
"734 1063 OFFCURVE",
"689 1209 OFFCURVE",
"676 1262 CURVE",
"658 1180 OFFCURVE",
"632 1090 OFFCURVE",
"597 993 CURVE SMOOTH",
"465 612 LINE"
);
},
{
closed = 1;
nodes = (
"363 1820 OFFCURVE",
"414 1854 OFFCURVE",
"478 1854 CURVE SMOOTH",
"549 1854 OFFCURVE",
"594 1810 OFFCURVE",
"594 1737 CURVE SMOOTH",
"594 1666 OFFCURVE",
"547 1620 OFFCURVE",
"478 1620 CURVE SMOOTH",
"414 1620 OFFCURVE",
"363 1658 OFFCURVE",
"363 1737 CURVE SMOOTH"
);
},
{
closed = 1;
nodes = (
"756 1820 OFFCURVE",
"807 1854 OFFCURVE",
"871 1854 CURVE SMOOTH",
"942 1854 OFFCURVE",
"988 1810 OFFCURVE",
"988 1737 CURVE SMOOTH",
"988 1665 OFFCURVE",
"939 1620 OFFCURVE",
"871 1620 CURVE SMOOTH",
"807 1620 OFFCURVE",
"756 1658 OFFCURVE",
"756 1737 CURVE SMOOTH"
);
}
);
width = 1354;
}
);
unicode = 00C4;
},
{
glyphname = Aring;
layers = (
{
layerId = "89C6725D-D8C2-4468-AE05-6812C209F477";
name = Bold;
paths = (
{
closed = 1;
nodes = (
"1100 0 LINE",
"954 406 LINE",
"395 406 LINE",
"252 0 LINE",
"0 0 LINE",
"547 1468 LINE",
"807 1468 LINE",
"1354 0 LINE"
);
},
{
closed = 1;
nodes = (
"891 612 LINE",
"754 1010 LINE SMOOTH",
"734 1063 OFFCURVE",
"689 1209 OFFCURVE",
"676 1262 CURVE",
"658 1180 OFFCURVE",
"632 1090 OFFCURVE",
"597 993 CURVE SMOOTH",
"465 612 LINE"
);
},
{
closed = 1;
nodes = (
"913 1441 OFFCURVE",
"818 1348 OFFCURVE",
"674 1348 CURVE SMOOTH",
"530 1348 OFFCURVE",
"438 1439 OFFCURVE",
"438 1575 CURVE SMOOTH",
"438 1710 OFFCURVE",
"529 1801 OFFCURVE",
"674 1801 CURVE SMOOTH",
"813 1801 OFFCURVE",
"913 1710 OFFCURVE",
"913 1577 CURVE SMOOTH"
);
},
{
closed = 1;
nodes = (
"780 1642 OFFCURVE",
"735 1682 OFFCURVE",
"674 1682 CURVE SMOOTH",
"611 1682 OFFCURVE",
"567 1642 OFFCURVE",
"567 1575 CURVE SMOOTH",
"567 1504 OFFCURVE",
"603 1469 OFFCURVE",
"674 1469 CURVE SMOOTH",
"735 1469 OFFCURVE",
"780 1507 OFFCURVE",
"780 1575 CURVE SMOOTH"
);
}
);
width = 1354;
}
);
unicode = 00C5;
},
{
glyphname = AE;
layers = (
{
layerId = "89C6725D-D8C2-4468-AE05-6812C209F477";
name = Bold;
paths = (
{
closed = 1;
nodes = (
"1747 0 LINE",
"936 0 LINE",
"936 406 LINE",
"432 406 LINE",
"244 0 LINE",
"-2 0 LINE",
"676 1462 LINE",
"1747 1462 LINE",
"1747 1260 LINE",
"1176 1260 LINE",
"1176 862 LINE",
"1708 862 LINE",
"1708 662 LINE",
"1176 662 LINE",
"1176 203 LINE",
"1747 203 LINE"
);
},
{
closed = 1;
nodes = (
"522 612 LINE",
"936 612 LINE",
"936 1253 LINE",
"813 1253 LINE"
);
}
);
width = 1868;
}
);
unicode = 00C6;
},
{
glyphname = Ccedilla;
layers = (
{
layerId = "89C6725D-D8C2-4468-AE05-6812C209F477";
name = Bold;
paths = (
{
closed = 1;
nodes = (
"540 1278 OFFCURVE",
"373 1072 OFFCURVE",
"373 729 CURVE SMOOTH",
"373 370 OFFCURVE",
"528 184 OFFCURVE",
"815 184 CURVE SMOOTH",
"939 184 OFFCURVE",
"1051 211 OFFCURVE",
"1176 250 CURVE",
"1176 45 LINE",
"1061 2 OFFCURVE",
"931 -20 OFFCURVE",
"786 -20 CURVE SMOOTH",
"358 -20 OFFCURVE",
"121 248 OFFCURVE",
"121 731 CURVE SMOOTH",
"121 1035 OFFCURVE",
"235 1271 OFFCURVE",
"446 1392 CURVE SMOOTH",
"551 1453 OFFCURVE",
"675 1483 OFFCURVE",
"817 1483 CURVE SMOOTH",
"966 1483 OFFCURVE",
"1104 1452 OFFCURVE",
"1231 1389 CURVE",
"1145 1190 LINE",
"1046 1237 OFFCURVE",
"936 1278 OFFCURVE",
"815 1278 CURVE SMOOTH"
);
},
{
closed = 1;
nodes = (
"952 -418 OFFCURVE",
"850 -492 OFFCURVE",
"647 -492 CURVE SMOOTH",
"603 -492 OFFCURVE",
"563 -487 OFFCURVE",
"526 -477 CURVE",
"526 -340 LINE",
"562 -349 OFFCURVE",
"603 -354 OFFCURVE",
"649 -354 CURVE SMOOTH",
"721 -354 OFFCURVE",
"766 -336 OFFCURVE",
"766 -276 CURVE SMOOTH",
"766 -219 OFFCURVE",
"706 -183 OFFCURVE",
"587 -166 CURVE",
"671 0 LINE",
"823 0 LINE",
"782 -88 LINE",
"889 -116 OFFCURVE",
"952 -182 OFFCURVE",
"952 -270 CURVE SMOOTH"
);
}
);
width = 1298;
}
);
unicode = 00C7;
},
{
glyphname = Egrave;
layers = (
{
layerId = "89C6725D-D8C2-4468-AE05-6812C209F477";
name = Bold;
paths = (
{
closed = 1;
nodes = (
"1020 0 LINE",
"193 0 LINE",
"193 1462 LINE",
"1020 1462 LINE",
"1020 1260 LINE",
"432 1260 LINE",
"432 862 LINE",
"983 862 LINE",
"983 662 LINE",
"432 662 LINE",
"432 203 LINE",
"1020 203 LINE"
);
},
{
closed = 1;
nodes = (
"617 1579 LINE",
"525 1648 OFFCURVE",
"353 1809 OFFCURVE",
"289 1886 CURVE",
"289 1907 LINE",
"562 1907 LINE",
"613 1814 OFFCURVE",
"716 1672 OFFCURVE",
"775 1604 CURVE",
"775 1579 LINE"
);
}
);
width = 1143;
}
);
unicode = 00C8;
},
{
glyphname = Eacute;
layers = (
{
layerId = "89C6725D-D8C2-4468-AE05-6812C209F477";
name = Bold;
paths = (
{
closed = 1;
nodes = (
"1020 0 LINE",
"193 0 LINE",
"193 1462 LINE",
"1020 1462 LINE",
"1020 1260 LINE",
"432 1260 LINE",
"432 862 LINE",
"983 862 LINE",
"983 662 LINE",
"432 662 LINE",
"432 203 LINE",
"1020 203 LINE"
);
},
{
closed = 1;
nodes = (
"440 1579 LINE",
"440 1604 LINE",
"516 1697 OFFCURVE",
"606 1826 OFFCURVE",
"653 1907 CURVE",
"926 1907 LINE",
"926 1886 LINE",
"857 1805 OFFCURVE",
"691 1650 OFFCURVE",
"596 1579 CURVE"
);
}
);
width = 1143;
}
);
unicode = 00C9;
},
{
glyphname = Ecircumflex;
layers = (
{
layerId = "89C6725D-D8C2-4468-AE05-6812C209F477";
name = Bold;
paths = (
{
closed = 1;
nodes = (
"1020 0 LINE",
"193 0 LINE",
"193 1462 LINE",
"1020 1462 LINE",
"1020 1260 LINE",
"432 1260 LINE",
"432 862 LINE",
"983 862 LINE",
"983 662 LINE",
"432 662 LINE",
"432 203 LINE",
"1020 203 LINE"
);
},
{
closed = 1;
nodes = (
"831 1579 LINE",
"749 1628 OFFCURVE",
"673 1688 OFFCURVE",
"603 1759 CURVE",
"534 1690 OFFCURVE",
"459 1630 OFFCURVE",
"378 1579 CURVE",
"220 1579 LINE",
"220 1604 LINE",
"347 1736 OFFCURVE",
"432 1837 OFFCURVE",
"474 1907 CURVE",
"734 1907 LINE",
"776 1834 OFFCURVE",
"861 1733 OFFCURVE",
"990 1604 CURVE",
"990 1579 LINE"
);
}
);
width = 1143;
}
);
unicode = 00CA;
},
{
glyphname = Edieresis;
layers = (
{
layerId = "89C6725D-D8C2-4468-AE05-6812C209F477";
name = Bold;
paths = (
{
closed = 1;
nodes = (
"1020 0 LINE",
"193 0 LINE",
"193 1462 LINE",
"1020 1462 LINE",
"1020 1260 LINE",
"432 1260 LINE",
"432 862 LINE",
"983 862 LINE",
"983 662 LINE",
"432 662 LINE",
"432 203 LINE",
"1020 203 LINE"
);
},
{
closed = 1;
nodes = (
"297 1820 OFFCURVE",
"348 1854 OFFCURVE",
"412 1854 CURVE SMOOTH",
"483 1854 OFFCURVE",
"528 1810 OFFCURVE",
"528 1737 CURVE SMOOTH",
"528 1666 OFFCURVE",
"481 1620 OFFCURVE",
"412 1620 CURVE SMOOTH",
"348 1620 OFFCURVE",
"297 1658 OFFCURVE",
"297 1737 CURVE SMOOTH"
);
},
{
closed = 1;
nodes = (
"690 1820 OFFCURVE",
"741 1854 OFFCURVE",
"805 1854 CURVE SMOOTH",
"876 1854 OFFCURVE",
"922 1810 OFFCURVE",
"922 1737 CURVE SMOOTH",
"922 1665 OFFCURVE",
"873 1620 OFFCURVE",
"805 1620 CURVE SMOOTH",
"741 1620 OFFCURVE",
"690 1658 OFFCURVE",
"690 1737 CURVE SMOOTH"
);
}
);
width = 1143;
}
);
unicode = 00CB;
},
{
glyphname = Igrave.alt;
layers = (
{
layerId = "89C6725D-D8C2-4468-AE05-6812C209F477";
name = Bold;
paths = (
{
closed = 1;
nodes = (
"664 0 LINE",
"74 0 LINE",
"74 137 LINE",
"250 195 LINE",
"250 1266 LINE",
"74 1325 LINE",
"74 1462 LINE",
"664 1462 LINE",
"664 1325 LINE",
"489 1266 LINE",
"489 195 LINE",
"664 137 LINE"
);
},
{
closed = 1;
nodes = (
"380 1579 LINE",
"288 1648 OFFCURVE",
"116 1809 OFFCURVE",
"52 1886 CURVE",
"52 1907 LINE",
"325 1907 LINE",
"376 1814 OFFCURVE",
"479 1672 OFFCURVE",
"538 1604 CURVE",
"538 1579 LINE"
);
}
);
width = 739;
}
);
},
{
glyphname = Iacute.alt;
layers = (
{
layerId = "89C6725D-D8C2-4468-AE05-6812C209F477";
name = Bold;
paths = (
{
closed = 1;
nodes = (
"664 0 LINE",
"74 0 LINE",
"74 137 LINE",
"250 195 LINE",
"250 1266 LINE",
"74 1325 LINE",
"74 1462 LINE",
"664 1462 LINE",
"664 1325 LINE",
"489 1266 LINE",
"489 195 LINE",
"664 137 LINE"
);
},
{
closed = 1;
nodes = (
"236 1579 LINE",
"236 1604 LINE",
"312 1697 OFFCURVE",
"402 1826 OFFCURVE",
"449 1907 CURVE",
"722 1907 LINE",
"722 1886 LINE",
"653 1805 OFFCURVE",
"487 1650 OFFCURVE",
"392 1579 CURVE"
);
}
);
width = 739;
}
);
},
{
glyphname = Icircumflex.alt;
layers = (
{
layerId = "89C6725D-D8C2-4468-AE05-6812C209F477";
name = Bold;
paths = (
{
closed = 1;
nodes = (
"664 0 LINE",
"74 0 LINE",
"74 137 LINE",
"250 195 LINE",
"250 1266 LINE",
"74 1325 LINE",
"74 1462 LINE",
"664 1462 LINE",
"664 1325 LINE",
"489 1266 LINE",
"489 195 LINE",
"664 137 LINE"
);
},
{
closed = 1;
nodes = (
"593 1579 LINE",
"511 1628 OFFCURVE",
"435 1688 OFFCURVE",
"365 1759 CURVE",
"296 1690 OFFCURVE",
"221 1630 OFFCURVE",
"140 1579 CURVE",
"-18 1579 LINE",
"-18 1604 LINE",
"109 1736 OFFCURVE",
"194 1837 OFFCURVE",
"236 1907 CURVE",
"496 1907 LINE",
"538 1834 OFFCURVE",
"623 1733 OFFCURVE",
"752 1604 CURVE",
"752 1579 LINE"
);
}
);
width = 739;
}
);
},
{
glyphname = Idieresis.alt;
layers = (
{
layerId = "89C6725D-D8C2-4468-AE05-6812C209F477";
name = Bold;
paths = (
{
closed = 1;
nodes = (
"664 0 LINE",
"74 0 LINE",
"74 137 LINE",
"250 195 LINE",
"250 1266 LINE",
"74 1325 LINE",
"74 1462 LINE",
"664 1462 LINE",
"664 1325 LINE",
"489 1266 LINE",
"489 195 LINE",
"664 137 LINE"
);
},
{
closed = 1;
nodes = (
"58 1820 OFFCURVE",
"109 1854 OFFCURVE",
"173 1854 CURVE SMOOTH",
"244 1854 OFFCURVE",
"289 1810 OFFCURVE",
"289 1737 CURVE SMOOTH",
"289 1666 OFFCURVE",
"242 1620 OFFCURVE",
"173 1620 CURVE SMOOTH",
"109 1620 OFFCURVE",
"58 1658 OFFCURVE",
"58 1737 CURVE SMOOTH"
);
},
{
closed = 1;
nodes = (
"451 1820 OFFCURVE",
"502 1854 OFFCURVE",
"566 1854 CURVE SMOOTH",
"637 1854 OFFCURVE",
"683 1810 OFFCURVE",
"683 1737 CURVE SMOOTH",
"683 1665 OFFCURVE",
"634 1620 OFFCURVE",
"566 1620 CURVE SMOOTH",
"502 1620 OFFCURVE",
"451 1658 OFFCURVE",
"451 1737 CURVE SMOOTH"
);
}
);
width = 739;
}
);
},
{
glyphname = Eth;
layers = (
{
layerId = "89C6725D-D8C2-4468-AE05-6812C209F477";
name = Bold;
paths = (
{
closed = 1;
nodes = (
"1374 265 OFFCURVE",
"1098 0 OFFCURVE",
"594 0 CURVE SMOOTH",
"193 0 LINE",
"193 623 LINE",
"47 623 LINE",
"47 823 LINE",
"193 823 LINE",
"193 1462 LINE",
"639 1462 LINE SMOOTH",
"1102 1462 OFFCURVE",
"1374 1198 OFFCURVE",
"1374 745 CURVE SMOOTH"
);
},
{
closed = 1;
nodes = (
"1122 1084 OFFCURVE",
"954 1262 OFFCURVE",
"629 1262 CURVE SMOOTH",
"432 1262 LINE",
"432 823 LINE",
"739 823 LINE",
"739 623 LINE",
"432 623 LINE",
"432 201 LINE",
"592 201 LINE SMOOTH",
"945 201 OFFCURVE",
"1122 380 OFFCURVE",
"1122 737 CURVE SMOOTH"
);
}
);
width = 1497;
}
);
unicode = 00D0;
},
{
glyphname = Ntilde;
layers = (
{
layerId = "89C6725D-D8C2-4468-AE05-6812C209F477";
name = Bold;
paths = (
{
closed = 1;
nodes = (
"1411 0 LINE",
"1118 0 LINE",
"399 1165 LINE",
"391 1165 LINE",
"396 1100 LINE SMOOTH",
"405 976 OFFCURVE",
"410 863 OFFCURVE",
"410 760 CURVE SMOOTH",
"410 0 LINE",
"193 0 LINE",
"193 1462 LINE",
"483 1462 LINE",
"1200 303 LINE",
"1206 303 LINE",
"1203 334 OFFCURVE",
"1192 588 OFFCURVE",
"1192 696 CURVE SMOOTH",
"1192 1462 LINE",
"1411 1462 LINE"
);
},
{
closed = 1;
nodes = (
"898 1579 OFFCURVE",
"844 1607 OFFCURVE",
"792 1636 CURVE SMOOTH",
"740 1664 OFFCURVE",
"690 1692 OFFCURVE",
"645 1692 CURVE SMOOTH",
"591 1692 OFFCURVE",
"555 1654 OFFCURVE",
"536 1577 CURVE",
"414 1577 LINE",
"430 1762 OFFCURVE",
"523 1862 OFFCURVE",
"659 1862 CURVE SMOOTH",
"716 1862 OFFCURVE",
"771 1834 OFFCURVE",
"823 1806 CURVE SMOOTH",
"875 1777 OFFCURVE",
"924 1749 OFFCURVE",
"969 1749 CURVE SMOOTH",
"1022 1749 OFFCURVE",
"1057 1787 OFFCURVE",
"1075 1864 CURVE",
"1200 1864 LINE",
"1184 1685 OFFCURVE",
"1093 1579 OFFCURVE",
"954 1579 CURVE SMOOTH"
);
}
);
width = 1604;
}
);
unicode = 00D1;
},
{
glyphname = Ograve;
layers = (
{
layerId = "89C6725D-D8C2-4468-AE05-6812C209F477";
name = Bold;
paths = (
{
closed = 1;
nodes = (
"1491 257 OFFCURVE",
"1243 -20 OFFCURVE",
"807 -20 CURVE SMOOTH",
"366 -20 OFFCURVE",
"121 252 OFFCURVE",
"121 735 CURVE SMOOTH",
"121 1218 OFFCURVE",
"368 1485 OFFCURVE",
"809 1485 CURVE SMOOTH",
"1244 1485 OFFCURVE",
"1491 1210 OFFCURVE",
"1491 733 CURVE SMOOTH"
);
},
{
closed = 1;
nodes = (
"375 373 OFFCURVE",
"522 184 OFFCURVE",
"807 184 CURVE SMOOTH",
"1091 184 OFFCURVE",
"1237 369 OFFCURVE",
"1237 733 CURVE SMOOTH",
"1237 1092 OFFCURVE",
"1093 1280 OFFCURVE",
"809 1280 CURVE SMOOTH",
"522 1280 OFFCURVE",
"375 1092 OFFCURVE",
"375 733 CURVE SMOOTH"
);
},
{
closed = 1;
nodes = (
"809 1579 LINE",
"717 1648 OFFCURVE",
"545 1809 OFFCURVE",
"481 1886 CURVE",
"481 1907 LINE",
"754 1907 LINE",
"805 1814 OFFCURVE",
"908 1672 OFFCURVE",
"967 1604 CURVE",
"967 1579 LINE"
);
}
);
width = 1612;
}
);
unicode = 00D2;
},
{
glyphname = Oacute;
layers = (
{
layerId = "89C6725D-D8C2-4468-AE05-6812C209F477";
name = Bold;
paths = (
{
closed = 1;
nodes = (
"1491 257 OFFCURVE",
"1243 -20 OFFCURVE",
"807 -20 CURVE SMOOTH",
"366 -20 OFFCURVE",
"121 252 OFFCURVE",
"121 735 CURVE SMOOTH",
"121 1218 OFFCURVE",
"368 1485 OFFCURVE",
"809 1485 CURVE SMOOTH",
"1244 1485 OFFCURVE",
"1491 1210 OFFCURVE",
"1491 733 CURVE SMOOTH"
);
},
{
closed = 1;
nodes = (
"375 373 OFFCURVE",
"522 184 OFFCURVE",
"807 184 CURVE SMOOTH",
"1091 184 OFFCURVE",
"1237 369 OFFCURVE",
"1237 733 CURVE SMOOTH",
"1237 1092 OFFCURVE",
"1093 1280 OFFCURVE",
"809 1280 CURVE SMOOTH",
"522 1280 OFFCURVE",
"375 1092 OFFCURVE",
"375 733 CURVE SMOOTH"
);
},
{
closed = 1;
nodes = (
"657 1579 LINE",
"657 1604 LINE",
"733 1697 OFFCURVE",
"823 1826 OFFCURVE",
"870 1907 CURVE",
"1143 1907 LINE",
"1143 1886 LINE",
"1074 1805 OFFCURVE",
"908 1650 OFFCURVE",
"813 1579 CURVE"
);
}
);
width = 1612;
}
);
unicode = 00D3;
},
{
glyphname = Ocircumflex;
layers = (
{
layerId = "89C6725D-D8C2-4468-AE05-6812C209F477";
name = Bold;
paths = (
{
closed = 1;
nodes = (
"1491 257 OFFCURVE",
"1243 -20 OFFCURVE",
"807 -20 CURVE SMOOTH",
"366 -20 OFFCURVE",
"121 252 OFFCURVE",
"121 735 CURVE SMOOTH",
"121 1218 OFFCURVE",
"368 1485 OFFCURVE",
"809 1485 CURVE SMOOTH",
"1244 1485 OFFCURVE",
"1491 1210 OFFCURVE",
"1491 733 CURVE SMOOTH"
);
},
{
closed = 1;
nodes = (
"375 373 OFFCURVE",
"522 184 OFFCURVE",
"807 184 CURVE SMOOTH",
"1091 184 OFFCURVE",
"1237 369 OFFCURVE",
"1237 733 CURVE SMOOTH",
"1237 1092 OFFCURVE",
"1093 1280 OFFCURVE",
"809 1280 CURVE SMOOTH",
"522 1280 OFFCURVE",
"375 1092 OFFCURVE",
"375 733 CURVE SMOOTH"
);
},
{
closed = 1;
nodes = (
"1024 1579 LINE",
"942 1628 OFFCURVE",
"866 1688 OFFCURVE",
"796 1759 CURVE",
"727 1690 OFFCURVE",
"652 1630 OFFCURVE",
"571 1579 CURVE",
"413 1579 LINE",
"413 1604 LINE",
"540 1736 OFFCURVE",
"625 1837 OFFCURVE",
"667 1907 CURVE",
"927 1907 LINE",
"969 1834 OFFCURVE",
"1054 1733 OFFCURVE",
"1183 1604 CURVE",
"1183 1579 LINE"
);
}
);
width = 1612;
}
);
unicode = 00D4;
},
{
glyphname = Otilde;
layers = (
{
layerId = "89C6725D-D8C2-4468-AE05-6812C209F477";
name = Bold;
paths = (
{
closed = 1;
nodes = (
"1491 257 OFFCURVE",
"1243 -20 OFFCURVE",
"807 -20 CURVE SMOOTH",
"366 -20 OFFCURVE",
"121 252 OFFCURVE",
"121 735 CURVE SMOOTH",
"121 1218 OFFCURVE",
"368 1485 OFFCURVE",
"809 1485 CURVE SMOOTH",
"1244 1485 OFFCURVE",
"1491 1210 OFFCURVE",
"1491 733 CURVE SMOOTH"
);
},
{
closed = 1;
nodes = (
"375 373 OFFCURVE",
"522 184 OFFCURVE",
"807 184 CURVE SMOOTH",
"1091 184 OFFCURVE",
"1237 369 OFFCURVE",
"1237 733 CURVE SMOOTH",
"1237 1092 OFFCURVE",
"1093 1280 OFFCURVE",
"809 1280 CURVE SMOOTH",
"522 1280 OFFCURVE",
"375 1092 OFFCURVE",
"375 733 CURVE SMOOTH"
);
},
{
closed = 1;
nodes = (
"894 1579 OFFCURVE",
"840 1607 OFFCURVE",
"788 1636 CURVE SMOOTH",
"736 1664 OFFCURVE",
"686 1692 OFFCURVE",
"641 1692 CURVE SMOOTH",
"587 1692 OFFCURVE",
"551 1654 OFFCURVE",
"532 1577 CURVE",
"410 1577 LINE",
"426 1762 OFFCURVE",
"519 1862 OFFCURVE",
"655 1862 CURVE SMOOTH",
"712 1862 OFFCURVE",
"767 1834 OFFCURVE",
"819 1806 CURVE SMOOTH",
"871 1777 OFFCURVE",
"920 1749 OFFCURVE",
"965 1749 CURVE SMOOTH",
"1018 1749 OFFCURVE",
"1053 1787 OFFCURVE",
"1071 1864 CURVE",
"1196 1864 LINE",
"1180 1685 OFFCURVE",
"1089 1579 OFFCURVE",
"950 1579 CURVE SMOOTH"
);
}
);
width = 1612;
}
);
unicode = 00D5;
},
{
glyphname = Odieresis;
layers = (
{
layerId = "89C6725D-D8C2-4468-AE05-6812C209F477";
name = Bold;
paths = (
{
closed = 1;
nodes = (
"1491 257 OFFCURVE",
"1243 -20 OFFCURVE",
"807 -20 CURVE SMOOTH",
"366 -20 OFFCURVE",
"121 252 OFFCURVE",
"121 735 CURVE SMOOTH",
"121 1218 OFFCURVE",
"368 1485 OFFCURVE",
"809 1485 CURVE SMOOTH",
"1244 1485 OFFCURVE",
"1491 1210 OFFCURVE",
"1491 733 CURVE SMOOTH"
);
},
{
closed = 1;
nodes = (
"375 373 OFFCURVE",
"522 184 OFFCURVE",
"807 184 CURVE SMOOTH",
"1091 184 OFFCURVE",
"1237 369 OFFCURVE",
"1237 733 CURVE SMOOTH",
"1237 1092 OFFCURVE",
"1093 1280 OFFCURVE",
"809 1280 CURVE SMOOTH",
"522 1280 OFFCURVE",
"375 1092 OFFCURVE",
"375 733 CURVE SMOOTH"
);
},
{
closed = 1;
nodes = (
"496 1820 OFFCURVE",
"547 1854 OFFCURVE",
"611 1854 CURVE SMOOTH",
"682 1854 OFFCURVE",
"727 1810 OFFCURVE",
"727 1737 CURVE SMOOTH",
"727 1666 OFFCURVE",
"680 1620 OFFCURVE",
"611 1620 CURVE SMOOTH",
"547 1620 OFFCURVE",
"496 1658 OFFCURVE",
"496 1737 CURVE SMOOTH"
);
},
{
closed = 1;
nodes = (
"889 1820 OFFCURVE",
"940 1854 OFFCURVE",
"1004 1854 CURVE SMOOTH",
"1075 1854 OFFCURVE",
"1121 1810 OFFCURVE",
"1121 1737 CURVE SMOOTH",
"1121 1665 OFFCURVE",
"1072 1620 OFFCURVE",
"1004 1620 CURVE SMOOTH",
"940 1620 OFFCURVE",
"889 1658 OFFCURVE",
"889 1737 CURVE SMOOTH"
);
}
);
width = 1612;
}
);
unicode = 00D6;
},
{
glyphname = multiply;
layers = (
{
layerId = "89C6725D-D8C2-4468-AE05-6812C209F477";
name = Bold;
paths = (
{
closed = 1;
nodes = (
"457 723 LINE",
"131 1049 LINE",
"256 1176 LINE",
"584 850 LINE",
"913 1176 LINE",
"1038 1053 LINE",
"709 723 LINE",
"1034 395 LINE",
"911 270 LINE",
"582 596 LINE",
"258 270 LINE",
"133 395 LINE"
);
}
);
width = 1169;
}
);
unicode = 00D7;
},
{
glyphname = Oslash;
layers = (
{
layerId = "89C6725D-D8C2-4468-AE05-6812C209F477";
name = Bold;
paths = (
{
closed = 1;
nodes = (
"1491 257 OFFCURVE",
"1243 -20 OFFCURVE",
"807 -20 CURVE SMOOTH",
"665 -20 OFFCURVE",
"545 7 OFFCURVE",
"446 61 CURVE",
"352 -76 LINE",
"211 18 LINE",
"309 162 LINE",
"184 293 OFFCURVE",
"121 484 OFFCURVE",
"121 735 CURVE SMOOTH",
"121 1218 OFFCURVE",
"368 1485 OFFCURVE",
"809 1485 CURVE SMOOTH",
"942 1485 OFFCURVE",
"1060 1458 OFFCURVE",
"1163 1403 CURVE",
"1253 1532 LINE",
"1395 1440 LINE",
"1296 1300 LINE",
"1426 1167 OFFCURVE",
"1491 978 OFFCURVE",
"1491 733 CURVE SMOOTH"
);
},
{
closed = 1;
nodes = (
"1237 883 OFFCURVE",
"1210 1003 OFFCURVE",
"1157 1094 CURVE",
"571 244 LINE",
"636 204 OFFCURVE",
"714 184 OFFCURVE",
"807 184 CURVE SMOOTH",
"1091 184 OFFCURVE",
"1237 369 OFFCURVE",
"1237 733 CURVE SMOOTH"
);
},
{
closed = 1;
nodes = (
"375 579 OFFCURVE",
"401 458 OFFCURVE",
"453 371 CURVE",
"1040 1221 LINE",
"979 1260 OFFCURVE",
"902 1280 OFFCURVE",
"809 1280 CURVE SMOOTH",
"522 1280 OFFCURVE",
"375 1092 OFFCURVE",
"375 733 CURVE SMOOTH"
);
}
);
width = 1612;
}
);
unicode = 00D8;
},
{
glyphname = Ugrave;
layers = (
{
layerId = "89C6725D-D8C2-4468-AE05-6812C209F477";
name = Bold;
paths = (
{
closed = 1;
nodes = (
"1339 1462 LINE",
"1339 516 LINE SMOOTH",
"1339 300 OFFCURVE",
"1244 133 OFFCURVE",
"1069 46 CURVE SMOOTH",
"981 2 OFFCURVE",
"876 -20 OFFCURVE",
"754 -20 CURVE SMOOTH",
"391 -20 OFFCURVE",
"180 184 OFFCURVE",
"180 520 CURVE SMOOTH",
"180 1462 LINE",
"420 1462 LINE",
"420 537 LINE SMOOTH",
"420 296 OFFCURVE",
"530 184 OFFCURVE",
"762 184 CURVE SMOOTH",
"987 184 OFFCURVE",
"1100 302 OFFCURVE",
"1100 539 CURVE SMOOTH",
"1100 1462 LINE"
);
},
{
closed = 1;
nodes = (
"745 1579 LINE",
"653 1648 OFFCURVE",
"481 1809 OFFCURVE",
"417 1886 CURVE",
"417 1907 LINE",
"690 1907 LINE",
"741 1814 OFFCURVE",
"844 1672 OFFCURVE",
"903 1604 CURVE",
"903 1579 LINE"
);
}
);
width = 1520;
}
);
unicode = 00D9;
},
{
glyphname = Uacute;
layers = (
{
layerId = "89C6725D-D8C2-4468-AE05-6812C209F477";
name = Bold;
paths = (
{
closed = 1;
nodes = (
"1339 1462 LINE",
"1339 516 LINE SMOOTH",
"1339 300 OFFCURVE",
"1244 133 OFFCURVE",
"1069 46 CURVE SMOOTH",
"981 2 OFFCURVE",
"876 -20 OFFCURVE",
"754 -20 CURVE SMOOTH",
"391 -20 OFFCURVE",
"180 184 OFFCURVE",
"180 520 CURVE SMOOTH",
"180 1462 LINE",
"420 1462 LINE",
"420 537 LINE SMOOTH",
"420 296 OFFCURVE",
"530 184 OFFCURVE",
"762 184 CURVE SMOOTH",
"987 184 OFFCURVE",
"1100 302 OFFCURVE",
"1100 539 CURVE SMOOTH",
"1100 1462 LINE"
);
},
{
closed = 1;
nodes = (
"600 1579 LINE",
"600 1604 LINE",
"676 1697 OFFCURVE",
"766 1826 OFFCURVE",
"813 1907 CURVE",
"1086 1907 LINE",
"1086 1886 LINE",
"1017 1805 OFFCURVE",
"851 1650 OFFCURVE",
"756 1579 CURVE"
);
}
);
width = 1520;
}
);
unicode = 00DA;
},
{
glyphname = Ucircumflex;
layers = (
{
layerId = "89C6725D-D8C2-4468-AE05-6812C209F477";
name = Bold;
paths = (
{
closed = 1;
nodes = (
"1339 1462 LINE",
"1339 516 LINE SMOOTH",
"1339 300 OFFCURVE",
"1244 133 OFFCURVE",
"1069 46 CURVE SMOOTH",
"981 2 OFFCURVE",
"876 -20 OFFCURVE",
"754 -20 CURVE SMOOTH",
"391 -20 OFFCURVE",
"180 184 OFFCURVE",
"180 520 CURVE SMOOTH",
"180 1462 LINE",
"420 1462 LINE",
"420 537 LINE SMOOTH",
"420 296 OFFCURVE",
"530 184 OFFCURVE",
"762 184 CURVE SMOOTH",
"987 184 OFFCURVE",
"1100 302 OFFCURVE",
"1100 539 CURVE SMOOTH",
"1100 1462 LINE"
);
},
{
closed = 1;
nodes = (
"977 1579 LINE",
"895 1628 OFFCURVE",
"819 1688 OFFCURVE",
"749 1759 CURVE",
"680 1690 OFFCURVE",
"605 1630 OFFCURVE",
"524 1579 CURVE",
"366 1579 LINE",
"366 1604 LINE",
"493 1736 OFFCURVE",
"578 1837 OFFCURVE",
"620 1907 CURVE",
"880 1907 LINE",
"922 1834 OFFCURVE",
"1007 1733 OFFCURVE",
"1136 1604 CURVE",
"1136 1579 LINE"
);
}
);
width = 1520;
}
);
unicode = 00DB;
},
{
glyphname = Udieresis;
layers = (
{
layerId = "89C6725D-D8C2-4468-AE05-6812C209F477";
name = Bold;
paths = (
{
closed = 1;
nodes = (
"1339 1462 LINE",
"1339 516 LINE SMOOTH",
"1339 300 OFFCURVE",
"1244 133 OFFCURVE",
"1069 46 CURVE SMOOTH",
"981 2 OFFCURVE",
"876 -20 OFFCURVE",
"754 -20 CURVE SMOOTH",
"391 -20 OFFCURVE",
"180 184 OFFCURVE",
"180 520 CURVE SMOOTH",
"180 1462 LINE",
"420 1462 LINE",
"420 537 LINE SMOOTH",
"420 296 OFFCURVE",
"530 184 OFFCURVE",
"762 184 CURVE SMOOTH",
"987 184 OFFCURVE",
"1100 302 OFFCURVE",
"1100 539 CURVE SMOOTH",
"1100 1462 LINE"
);
},
{
closed = 1;
nodes = (
"445 1820 OFFCURVE",
"496 1854 OFFCURVE",
"560 1854 CURVE SMOOTH",
"631 1854 OFFCURVE",
"676 1810 OFFCURVE",
"676 1737 CURVE SMOOTH",
"676 1666 OFFCURVE",
"629 1620 OFFCURVE",
"560 1620 CURVE SMOOTH",
"496 1620 OFFCURVE",
"445 1658 OFFCURVE",
"445 1737 CURVE SMOOTH"
);
},
{
closed = 1;
nodes = (
"838 1820 OFFCURVE",
"889 1854 OFFCURVE",
"953 1854 CURVE SMOOTH",
"1024 1854 OFFCURVE",
"1070 1810 OFFCURVE",
"1070 1737 CURVE SMOOTH",
"1070 1665 OFFCURVE",
"1021 1620 OFFCURVE",
"953 1620 CURVE SMOOTH",
"889 1620 OFFCURVE",
"838 1658 OFFCURVE",
"838 1737 CURVE SMOOTH"
);
}
);
width = 1520;
}
);
unicode = 00DC;
},
{
glyphname = Yacute;
layers = (
{
layerId = "89C6725D-D8C2-4468-AE05-6812C209F477";
name = Bold;
paths = (
{
closed = 1;
nodes = (
"606 795 LINE",
"952 1462 LINE",
"1212 1462 LINE",
"725 567 LINE",
"725 0 LINE",
"485 0 LINE",
"485 559 LINE",
"0 1462 LINE",
"260 1462 LINE"
);
},
{
closed = 1;
nodes = (
"450 1579 LINE",
"450 1604 LINE",
"526 1697 OFFCURVE",
"616 1826 OFFCURVE",
"663 1907 CURVE",
"936 1907 LINE",
"936 1886 LINE",
"867 1805 OFFCURVE",
"701 1650 OFFCURVE",
"606 1579 CURVE"
);
}
);
width = 1212;
}
);
unicode = 00DD;
},
{
glyphname = Thorn;
layers = (
{
layerId = "89C6725D-D8C2-4468-AE05-6812C209F477";
name = Bold;
paths = (
{
closed = 1;
nodes = (
"1169 473 OFFCURVE",
"969 305 OFFCURVE",
"600 305 CURVE SMOOTH",
"432 305 LINE",
"432 0 LINE",
"193 0 LINE",
"193 1462 LINE",
"432 1462 LINE",
"432 1219 LINE",
"629 1219 LINE SMOOTH",
"986 1219 OFFCURVE",
"1169 1068 OFFCURVE",
"1169 776 CURVE SMOOTH"
);
},
{
closed = 1;
nodes = (
"432 504 LINE",
"565 504 LINE SMOOTH",
"814 504 OFFCURVE",
"924 583 OFFCURVE",
"924 770 CURVE SMOOTH",
"924 939 OFFCURVE",
"825 1020 OFFCURVE",
"596 1020 CURVE SMOOTH",
"432 1020 LINE"
);
}
);
width = 1268;
}
);
unicode = 00DE;
},
{
glyphname = germandbls;
layers = (
{
layerId = "89C6725D-D8C2-4468-AE05-6812C209F477";
name = Bold;
paths = (
{
closed = 1;
nodes = (
"1149 1154 OFFCURVE",
"1094 1063 OFFCURVE",
"1006 995 CURVE SMOOTH",
"946 949 OFFCURVE",
"907 916 OFFCURVE",
"889 897 CURVE SMOOTH",
"871 878 OFFCURVE",
"862 859 OFFCURVE",
"862 840 CURVE SMOOTH",
"862 800 OFFCURVE",
"888 772 OFFCURVE",
"964 721 CURVE SMOOTH",
"1059 657 LINE SMOOTH",
"1182 574 OFFCURVE",
"1231 519 OFFCURVE",
"1260 444 CURVE SMOOTH",
"1275 407 OFFCURVE",
"1282 364 OFFCURVE",
"1282 317 CURVE SMOOTH",
"1282 97 OFFCURVE",
"1136 -20 OFFCURVE",
"864 -20 CURVE SMOOTH",
"737 -20 OFFCURVE",
"638 2 OFFCURVE",
"565 45 CURVE",
"565 244 LINE",
"642 195 OFFCURVE",
"763 158 OFFCURVE",
"852 158 CURVE SMOOTH",
"980 158 OFFCURVE",
"1044 208 OFFCURVE",
"1044 309 CURVE SMOOTH",
"1044 350 OFFCURVE",
"1033 385 OFFCURVE",
"1010 414 CURVE SMOOTH",
"987 443 OFFCURVE",
"935 483 OFFCURVE",
"854 532 CURVE SMOOTH",
"695 629 OFFCURVE",
"631 701 OFFCURVE",
"631 813 CURVE SMOOTH",
"631 897 OFFCURVE",
"675 963 OFFCURVE",
"770 1034 CURVE SMOOTH",
"870 1107 OFFCURVE",
"909 1157 OFFCURVE",
"909 1225 CURVE SMOOTH",
"909 1321 OFFCURVE",
"812 1378 OFFCURVE",
"664 1378 CURVE SMOOTH",
"495 1378 OFFCURVE",
"403 1305 OFFCURVE",
"403 1165 CURVE SMOOTH",
"403 0 LINE",
"168 0 LINE",
"168 1169 LINE SMOOTH",
"168 1426 OFFCURVE",
"345 1567 OFFCURVE",
"664 1567 CURVE SMOOTH",
"964 1567 OFFCURVE",
"1149 1448 OFFCURVE",
"1149 1253 CURVE SMOOTH"
);
}
);
width = 1364;
}
);
unicode = 00DF;
},
{
glyphname = agrave;
layers = (
{
layerId = "89C6725D-D8C2-4468-AE05-6812C209F477";
name = Bold;
paths = (
{
closed = 1;
nodes = (
"860 0 LINE",
"813 154 LINE",
"805 154 LINE",
"698 19 OFFCURVE",
"605 -20 OFFCURVE",
"436 -20 CURVE SMOOTH",
"219 -20 OFFCURVE",
"90 102 OFFCURVE",
"90 317 CURVE SMOOTH",
"90 545 OFFCURVE",
"257 659 OFFCURVE",
"604 670 CURVE SMOOTH",
"795 676 LINE",
"795 735 LINE SMOOTH",
"795 876 OFFCURVE",
"731 946 OFFCURVE",
"592 946 CURVE SMOOTH",
"479 946 OFFCURVE",
"375 907 OFFCURVE",
"279 862 CURVE",
"203 1030 LINE",
"323 1093 OFFCURVE",
"475 1126 OFFCURVE",
"602 1126 CURVE SMOOTH",
"883 1126 OFFCURVE",
"1028 1008 OFFCURVE",
"1028 745 CURVE SMOOTH",
"1028 0 LINE"
);
},
{
closed = 1;
nodes = (
"681 160 OFFCURVE",
"793 260 OFFCURVE",
"793 432 CURVE SMOOTH",
"793 528 LINE",
"651 522 LINE SMOOTH",
"430 514 OFFCURVE",
"334 451 OFFCURVE",
"334 315 CURVE SMOOTH",
"334 216 OFFCURVE",
"393 160 OFFCURVE",
"510 160 CURVE SMOOTH"
);
},
{
closed = 1;
nodes = (
"587 1241 LINE",
"495 1310 OFFCURVE",
"323 1471 OFFCURVE",
"259 1548 CURVE",
"259 1569 LINE",
"532 1569 LINE",
"583 1476 OFFCURVE",
"686 1334 OFFCURVE",
"745 1266 CURVE",
"745 1241 LINE"
);
}
);
width = 1188;
}
);
unicode = 00E0;
},
{
glyphname = aacute;
layers = (
{
layerId = "89C6725D-D8C2-4468-AE05-6812C209F477";
name = Bold;
paths = (
{
closed = 1;
nodes = (
"860 0 LINE",
"813 154 LINE",
"805 154 LINE",
"698 19 OFFCURVE",
"605 -20 OFFCURVE",
"436 -20 CURVE SMOOTH",
"219 -20 OFFCURVE",
"90 102 OFFCURVE",
"90 317 CURVE SMOOTH",
"90 545 OFFCURVE",
"257 659 OFFCURVE",
"604 670 CURVE SMOOTH",
"795 676 LINE",
"795 735 LINE SMOOTH",
"795 876 OFFCURVE",
"731 946 OFFCURVE",
"592 946 CURVE SMOOTH",
"479 946 OFFCURVE",
"375 907 OFFCURVE",
"279 862 CURVE",
"203 1030 LINE",
"323 1093 OFFCURVE",
"475 1126 OFFCURVE",
"602 1126 CURVE SMOOTH",
"883 1126 OFFCURVE",
"1028 1008 OFFCURVE",
"1028 745 CURVE SMOOTH",
"1028 0 LINE"
);
},
{
closed = 1;
nodes = (
"681 160 OFFCURVE",
"793 260 OFFCURVE",
"793 432 CURVE SMOOTH",
"793 528 LINE",
"651 522 LINE SMOOTH",
"430 514 OFFCURVE",
"334 451 OFFCURVE",
"334 315 CURVE SMOOTH",
"334 216 OFFCURVE",
"393 160 OFFCURVE",
"510 160 CURVE SMOOTH"
);
},
{
closed = 1;
nodes = (
"438 1241 LINE",
"438 1266 LINE",
"514 1359 OFFCURVE",
"604 1488 OFFCURVE",
"651 1569 CURVE",
"924 1569 LINE",
"924 1548 LINE",
"855 1467 OFFCURVE",
"689 1312 OFFCURVE",
"594 1241 CURVE"
);
}
);
width = 1188;
}
);
unicode = 00E1;
},
{
glyphname = acircumflex;
layers = (
{
layerId = "89C6725D-D8C2-4468-AE05-6812C209F477";
name = Bold;
paths = (
{
closed = 1;
nodes = (
"860 0 LINE",
"813 154 LINE",
"805 154 LINE",
"698 19 OFFCURVE",
"605 -20 OFFCURVE",
"436 -20 CURVE SMOOTH",
"219 -20 OFFCURVE",
"90 102 OFFCURVE",
"90 317 CURVE SMOOTH",
"90 545 OFFCURVE",
"257 659 OFFCURVE",
"604 670 CURVE SMOOTH",
"795 676 LINE",
"795 735 LINE SMOOTH",
"795 876 OFFCURVE",
"731 946 OFFCURVE",
"592 946 CURVE SMOOTH",
"479 946 OFFCURVE",
"375 907 OFFCURVE",
"279 862 CURVE",
"203 1030 LINE",
"323 1093 OFFCURVE",
"475 1126 OFFCURVE",
"602 1126 CURVE SMOOTH",
"883 1126 OFFCURVE",
"1028 1008 OFFCURVE",
"1028 745 CURVE SMOOTH",
"1028 0 LINE"
);
},
{
closed = 1;
nodes = (
"681 160 OFFCURVE",
"793 260 OFFCURVE",
"793 432 CURVE SMOOTH",
"793 528 LINE",
"651 522 LINE SMOOTH",
"430 514 OFFCURVE",
"334 451 OFFCURVE",
"334 315 CURVE SMOOTH",
"334 216 OFFCURVE",
"393 160 OFFCURVE",
"510 160 CURVE SMOOTH"
);
},
{
closed = 1;
nodes = (
"814 1241 LINE",
"732 1290 OFFCURVE",
"656 1350 OFFCURVE",
"586 1421 CURVE",
"517 1352 OFFCURVE",
"442 1292 OFFCURVE",
"361 1241 CURVE",
"203 1241 LINE",
"203 1266 LINE",
"330 1398 OFFCURVE",
"415 1499 OFFCURVE",
"457 1569 CURVE",
"717 1569 LINE",
"759 1496 OFFCURVE",
"844 1395 OFFCURVE",
"973 1266 CURVE",
"973 1241 LINE"
);
}
);
width = 1188;
}
);
unicode = 00E2;
},
{
glyphname = atilde;
layers = (
{
layerId = "89C6725D-D8C2-4468-AE05-6812C209F477";
name = Bold;
paths = (
{
closed = 1;
nodes = (
"860 0 LINE",
"813 154 LINE",
"805 154 LINE",
"698 19 OFFCURVE",
"605 -20 OFFCURVE",
"436 -20 CURVE SMOOTH",
"219 -20 OFFCURVE",
"90 102 OFFCURVE",
"90 317 CURVE SMOOTH",
"90 545 OFFCURVE",
"257 659 OFFCURVE",
"604 670 CURVE SMOOTH",
"795 676 LINE",
"795 735 LINE SMOOTH",
"795 876 OFFCURVE",
"731 946 OFFCURVE",
"592 946 CURVE SMOOTH",
"479 946 OFFCURVE",
"375 907 OFFCURVE",
"279 862 CURVE",
"203 1030 LINE",
"323 1093 OFFCURVE",
"475 1126 OFFCURVE",
"602 1126 CURVE SMOOTH",
"883 1126 OFFCURVE",
"1028 1008 OFFCURVE",
"1028 745 CURVE SMOOTH",
"1028 0 LINE"
);
},
{
closed = 1;
nodes = (
"681 160 OFFCURVE",
"793 260 OFFCURVE",
"793 432 CURVE SMOOTH",
"793 528 LINE",
"651 522 LINE SMOOTH",
"430 514 OFFCURVE",
"334 451 OFFCURVE",
"334 315 CURVE SMOOTH",
"334 216 OFFCURVE",
"393 160 OFFCURVE",
"510 160 CURVE SMOOTH"
);
},
{
closed = 1;
nodes = (
"692 1241 OFFCURVE",
"638 1269 OFFCURVE",
"586 1298 CURVE SMOOTH",
"534 1326 OFFCURVE",
"484 1354 OFFCURVE",
"439 1354 CURVE SMOOTH",
"385 1354 OFFCURVE",
"349 1316 OFFCURVE",
"330 1239 CURVE",
"208 1239 LINE",
"224 1424 OFFCURVE",
"317 1524 OFFCURVE",
"453 1524 CURVE SMOOTH",
"510 1524 OFFCURVE",
"565 1496 OFFCURVE",
"617 1468 CURVE SMOOTH",
"669 1439 OFFCURVE",
"718 1411 OFFCURVE",
"763 1411 CURVE SMOOTH",
"816 1411 OFFCURVE",
"851 1449 OFFCURVE",
"869 1526 CURVE",
"994 1526 LINE",
"978 1347 OFFCURVE",
"887 1241 OFFCURVE",
"748 1241 CURVE SMOOTH"
);
}
);
width = 1188;
}
);
unicode = 00E3;
},
{
glyphname = adieresis;
layers = (
{
layerId = "89C6725D-D8C2-4468-AE05-6812C209F477";
name = Bold;
paths = (
{
closed = 1;
nodes = (
"860 0 LINE",
"813 154 LINE",
"805 154 LINE",
"698 19 OFFCURVE",
"605 -20 OFFCURVE",
"436 -20 CURVE SMOOTH",
"219 -20 OFFCURVE",
"90 102 OFFCURVE",
"90 317 CURVE SMOOTH",
"90 545 OFFCURVE",
"257 659 OFFCURVE",
"604 670 CURVE SMOOTH",
"795 676 LINE",
"795 735 LINE SMOOTH",
"795 876 OFFCURVE",
"731 946 OFFCURVE",
"592 946 CURVE SMOOTH",
"479 946 OFFCURVE",
"375 907 OFFCURVE",
"279 862 CURVE",
"203 1030 LINE",
"323 1093 OFFCURVE",
"475 1126 OFFCURVE",
"602 1126 CURVE SMOOTH",
"883 1126 OFFCURVE",
"1028 1008 OFFCURVE",
"1028 745 CURVE SMOOTH",
"1028 0 LINE"
);
},
{
closed = 1;
nodes = (
"681 160 OFFCURVE",
"793 260 OFFCURVE",
"793 432 CURVE SMOOTH",
"793 528 LINE",
"651 522 LINE SMOOTH",
"430 514 OFFCURVE",
"334 451 OFFCURVE",
"334 315 CURVE SMOOTH",
"334 216 OFFCURVE",
"393 160 OFFCURVE",
"510 160 CURVE SMOOTH"
);
},
{
closed = 1;
nodes = (
"282 1482 OFFCURVE",
"333 1516 OFFCURVE",
"397 1516 CURVE SMOOTH",
"468 1516 OFFCURVE",
"513 1472 OFFCURVE",
"513 1399 CURVE SMOOTH",
"513 1328 OFFCURVE",
"466 1282 OFFCURVE",
"397 1282 CURVE SMOOTH",
"333 1282 OFFCURVE",
"282 1320 OFFCURVE",
"282 1399 CURVE SMOOTH"
);
},
{
closed = 1;
nodes = (
"675 1482 OFFCURVE",
"726 1516 OFFCURVE",
"790 1516 CURVE SMOOTH",
"861 1516 OFFCURVE",
"907 1472 OFFCURVE",
"907 1399 CURVE SMOOTH",
"907 1327 OFFCURVE",
"858 1282 OFFCURVE",
"790 1282 CURVE SMOOTH",
"726 1282 OFFCURVE",
"675 1320 OFFCURVE",
"675 1399 CURVE SMOOTH"
);
}
);
width = 1188;
}
);
unicode = 00E4;
},
{
glyphname = aring;
layers = (
{
layerId = "89C6725D-D8C2-4468-AE05-6812C209F477";
name = Bold;
paths = (
{
closed = 1;
nodes = (
"860 0 LINE",
"813 154 LINE",
"805 154 LINE",
"698 19 OFFCURVE",
"605 -20 OFFCURVE",
"436 -20 CURVE SMOOTH",
"219 -20 OFFCURVE",
"90 102 OFFCURVE",
"90 317 CURVE SMOOTH",
"90 545 OFFCURVE",
"257 659 OFFCURVE",
"604 670 CURVE SMOOTH",
"795 676 LINE",
"795 735 LINE SMOOTH",
"795 876 OFFCURVE",
"731 946 OFFCURVE",
"592 946 CURVE SMOOTH",
"479 946 OFFCURVE",
"375 907 OFFCURVE",
"279 862 CURVE",
"203 1030 LINE",
"323 1093 OFFCURVE",
"475 1126 OFFCURVE",
"602 1126 CURVE SMOOTH",
"883 1126 OFFCURVE",
"1028 1008 OFFCURVE",
"1028 745 CURVE SMOOTH",
"1028 0 LINE"
);
},
{
closed = 1;
nodes = (
"681 160 OFFCURVE",
"793 260 OFFCURVE",
"793 432 CURVE SMOOTH",
"793 528 LINE",
"651 522 LINE SMOOTH",
"430 514 OFFCURVE",
"334 451 OFFCURVE",
"334 315 CURVE SMOOTH",
"334 216 OFFCURVE",
"393 160 OFFCURVE",
"510 160 CURVE SMOOTH"
);
},
{
closed = 1;
nodes = (
"841 1332 OFFCURVE",
"746 1239 OFFCURVE",
"602 1239 CURVE SMOOTH",
"458 1239 OFFCURVE",
"366 1330 OFFCURVE",
"366 1466 CURVE SMOOTH",
"366 1601 OFFCURVE",
"457 1692 OFFCURVE",
"602 1692 CURVE SMOOTH",
"741 1692 OFFCURVE",
"841 1601 OFFCURVE",
"841 1468 CURVE SMOOTH"
);
},
{
closed = 1;
nodes = (
"708 1533 OFFCURVE",
"663 1573 OFFCURVE",
"602 1573 CURVE SMOOTH",
"539 1573 OFFCURVE",
"495 1533 OFFCURVE",
"495 1466 CURVE SMOOTH",
"495 1395 OFFCURVE",
"531 1360 OFFCURVE",
"602 1360 CURVE SMOOTH",
"663 1360 OFFCURVE",
"708 1398 OFFCURVE",
"708 1466 CURVE SMOOTH"
);
}
);
width = 1188;
}
);
unicode = 00E5;
},
{
glyphname = ae;
layers = (
{
layerId = "89C6725D-D8C2-4468-AE05-6812C209F477";
name = Bold;
paths = (
{
closed = 1;
nodes = (
"90 546 OFFCURVE",
"250 659 OFFCURVE",
"582 670 CURVE SMOOTH",
"770 676 LINE",
"770 752 LINE SMOOTH",
"770 881 OFFCURVE",
"703 946 OFFCURVE",
"569 946 CURVE SMOOTH",
"475 946 OFFCURVE",
"373 919 OFFCURVE",
"262 864 CURVE",
"188 1030 LINE",
"305 1093 OFFCURVE",
"452 1126 OFFCURVE",
"584 1126 CURVE SMOOTH",
"745 1126 OFFCURVE",
"858 1074 OFFCURVE",
"924 971 CURVE",
"1004 1074 OFFCURVE",
"1119 1126 OFFCURVE",
"1270 1126 CURVE SMOOTH",
"1545 1126 OFFCURVE",
"1720 933 OFFCURVE",
"1720 629 CURVE SMOOTH",
"1720 502 LINE",
"1008 502 LINE",
"1015 278 OFFCURVE",
"1115 166 OFFCURVE",
"1309 166 CURVE SMOOTH",
"1432 166 OFFCURVE",
"1550 193 OFFCURVE",
"1665 246 CURVE",
"1665 55 LINE",
"1550 0 OFFCURVE",
"1445 -20 OFFCURVE",
"1298 -20 CURVE SMOOTH",
"1111 -20 OFFCURVE",
"963 52 OFFCURVE",
"874 199 CURVE",
"749 32 OFFCURVE",
"635 -20 OFFCURVE",
"442 -20 CURVE SMOOTH",
"222 -20 OFFCURVE",
"90 108 OFFCURVE",
"90 317 CURVE SMOOTH"
);
},
{
closed = 1;
nodes = (
"334 212 OFFCURVE",
"389 160 OFFCURVE",
"500 160 CURVE SMOOTH",
"665 160 OFFCURVE",
"768 263 OFFCURVE",
"768 432 CURVE SMOOTH",
"768 528 LINE",
"633 522 LINE SMOOTH",
"426 514 OFFCURVE",
"334 454 OFFCURVE",
"334 315 CURVE SMOOTH"
);
},
{
closed = 1;
nodes = (
"1117 948 OFFCURVE",
"1026 855 OFFCURVE",
"1014 670 CURVE",
"1487 670 LINE",
"1487 843 OFFCURVE",
"1405 948 OFFCURVE",
"1266 948 CURVE SMOOTH"
);
}
);
width = 1817;
}
);
unicode = 00E6;
},
{
glyphname = ccedilla;
layers = (
{
layerId = "89C6725D-D8C2-4468-AE05-6812C209F477";
name = Bold;
paths = (
{
closed = 1;
nodes = (
"279 -20 OFFCURVE",
"102 182 OFFCURVE",
"102 547 CURVE SMOOTH",
"102 919 OFFCURVE",
"289 1126 OFFCURVE",
"633 1126 CURVE SMOOTH",
"750 1126 OFFCURVE",
"855 1104 OFFCURVE",
"948 1061 CURVE",
"877 872 LINE",
"778 911 OFFCURVE",
"696 930 OFFCURVE",
"631 930 CURVE SMOOTH",
"440 930 OFFCURVE",
"344 803 OFFCURVE",
"344 549 CURVE SMOOTH",
"344 301 OFFCURVE",
"441 176 OFFCURVE",
"625 176 CURVE SMOOTH",
"730 176 OFFCURVE",
"829 202 OFFCURVE",
"922 254 CURVE",
"922 49 LINE",
"838 0 OFFCURVE",
"750 -20 OFFCURVE",
"614 -20 CURVE SMOOTH"
);
},
{
closed = 1;
nodes = (
"782 -418 OFFCURVE",
"680 -492 OFFCURVE",
"477 -492 CURVE SMOOTH",
"433 -492 OFFCURVE",
"393 -487 OFFCURVE",
"356 -477 CURVE",
"356 -340 LINE",
"392 -349 OFFCURVE",
"433 -354 OFFCURVE",
"479 -354 CURVE SMOOTH",
"551 -354 OFFCURVE",
"596 -336 OFFCURVE",
"596 -276 CURVE SMOOTH",
"596 -219 OFFCURVE",
"536 -183 OFFCURVE",
"417 -166 CURVE",
"501 0 LINE",
"653 0 LINE",
"612 -88 LINE",
"719 -116 OFFCURVE",
"782 -182 OFFCURVE",
"782 -270 CURVE SMOOTH"
);
}
);
width = 1014;
}
);
unicode = 00E7;
},
{
glyphname = egrave;
layers = (
{
layerId = "89C6725D-D8C2-4468-AE05-6812C209F477";
name = Bold;
paths = (
{
closed = 1;
nodes = (
"307 -20 OFFCURVE",
"102 193 OFFCURVE",
"102 545 CURVE SMOOTH",
"102 906 OFFCURVE",
"293 1126 OFFCURVE",
"608 1126 CURVE SMOOTH",
"900 1126 OFFCURVE",
"1081 938 OFFCURVE",
"1081 627 CURVE SMOOTH",
"1081 500 LINE",
"344 500 LINE",
"351 285 OFFCURVE",
"463 166 OFFCURVE",
"662 166 CURVE SMOOTH",
"793 166 OFFCURVE",
"897 189 OFFCURVE",
"1026 246 CURVE",
"1026 55 LINE",
"911 0 OFFCURVE",
"802 -20 OFFCURVE",
"651 -20 CURVE SMOOTH"
);
},
{
closed = 1;
nodes = (
"459 948 OFFCURVE",
"365 851 OFFCURVE",
"348 670 CURVE",
"850 670 LINE",
"847 853 OFFCURVE",
"757 948 OFFCURVE",
"608 948 CURVE SMOOTH"
);
},
{
closed = 1;
nodes = (
"609 1241 LINE",
"517 1310 OFFCURVE",
"345 1471 OFFCURVE",
"281 1548 CURVE",
"281 1569 LINE",
"554 1569 LINE",
"605 1476 OFFCURVE",
"708 1334 OFFCURVE",
"767 1266 CURVE",
"767 1241 LINE"
);
}
);
width = 1180;
}
);
unicode = 00E8;
},
{
glyphname = eacute;
layers = (
{
layerId = "89C6725D-D8C2-4468-AE05-6812C209F477";
name = Bold;
paths = (
{
closed = 1;
nodes = (
"307 -20 OFFCURVE",
"102 193 OFFCURVE",
"102 545 CURVE SMOOTH",
"102 906 OFFCURVE",
"293 1126 OFFCURVE",
"608 1126 CURVE SMOOTH",
"900 1126 OFFCURVE",
"1081 938 OFFCURVE",
"1081 627 CURVE SMOOTH",
"1081 500 LINE",
"344 500 LINE",
"351 285 OFFCURVE",
"463 166 OFFCURVE",
"662 166 CURVE SMOOTH",
"793 166 OFFCURVE",
"897 189 OFFCURVE",
"1026 246 CURVE",
"1026 55 LINE",
"911 0 OFFCURVE",
"802 -20 OFFCURVE",
"651 -20 CURVE SMOOTH"
);
},
{
closed = 1;
nodes = (
"459 948 OFFCURVE",
"365 851 OFFCURVE",
"348 670 CURVE",
"850 670 LINE",
"847 853 OFFCURVE",
"757 948 OFFCURVE",
"608 948 CURVE SMOOTH"
);
},
{
closed = 1;
nodes = (
"458 1241 LINE",
"458 1266 LINE",
"534 1359 OFFCURVE",
"624 1488 OFFCURVE",
"671 1569 CURVE",
"944 1569 LINE",
"944 1548 LINE",
"875 1467 OFFCURVE",
"709 1312 OFFCURVE",
"614 1241 CURVE"
);
}
);
width = 1180;
}
);
unicode = 00E9;
},
{
glyphname = ecircumflex;
layers = (
{
layerId = "89C6725D-D8C2-4468-AE05-6812C209F477";
name = Bold;
paths = (
{
closed = 1;
nodes = (
"307 -20 OFFCURVE",
"102 193 OFFCURVE",
"102 545 CURVE SMOOTH",
"102 906 OFFCURVE",
"293 1126 OFFCURVE",
"608 1126 CURVE SMOOTH",
"900 1126 OFFCURVE",
"1081 938 OFFCURVE",
"1081 627 CURVE SMOOTH",
"1081 500 LINE",
"344 500 LINE",
"351 285 OFFCURVE",
"463 166 OFFCURVE",
"662 166 CURVE SMOOTH",
"793 166 OFFCURVE",
"897 189 OFFCURVE",
"1026 246 CURVE",
"1026 55 LINE",
"911 0 OFFCURVE",
"802 -20 OFFCURVE",
"651 -20 CURVE SMOOTH"
);
},
{
closed = 1;
nodes = (
"459 948 OFFCURVE",
"365 851 OFFCURVE",
"348 670 CURVE",
"850 670 LINE",
"847 853 OFFCURVE",
"757 948 OFFCURVE",
"608 948 CURVE SMOOTH"
);
},
{
closed = 1;
nodes = (
"838 1241 LINE",
"756 1290 OFFCURVE",
"680 1350 OFFCURVE",
"610 1421 CURVE",
"541 1352 OFFCURVE",
"466 1292 OFFCURVE",
"385 1241 CURVE",
"227 1241 LINE",
"227 1266 LINE",
"354 1398 OFFCURVE",
"439 1499 OFFCURVE",
"481 1569 CURVE",
"741 1569 LINE",
"783 1496 OFFCURVE",
"868 1395 OFFCURVE",
"997 1266 CURVE",
"997 1241 LINE"
);
}
);
width = 1180;
}
);
unicode = 00EA;
},
{
glyphname = edieresis;
layers = (
{
layerId = "89C6725D-D8C2-4468-AE05-6812C209F477";
name = Bold;
paths = (
{
closed = 1;
nodes = (
"307 -20 OFFCURVE",
"102 193 OFFCURVE",
"102 545 CURVE SMOOTH",
"102 906 OFFCURVE",
"293 1126 OFFCURVE",
"608 1126 CURVE SMOOTH",
"900 1126 OFFCURVE",
"1081 938 OFFCURVE",
"1081 627 CURVE SMOOTH",
"1081 500 LINE",
"344 500 LINE",
"351 285 OFFCURVE",
"463 166 OFFCURVE",
"662 166 CURVE SMOOTH",
"793 166 OFFCURVE",
"897 189 OFFCURVE",
"1026 246 CURVE",
"1026 55 LINE",
"911 0 OFFCURVE",
"802 -20 OFFCURVE",
"651 -20 CURVE SMOOTH"
);
},
{
closed = 1;
nodes = (
"459 948 OFFCURVE",
"365 851 OFFCURVE",
"348 670 CURVE",
"850 670 LINE",
"847 853 OFFCURVE",
"757 948 OFFCURVE",
"608 948 CURVE SMOOTH"
);
},
{
closed = 1;
nodes = (
"307 1482 OFFCURVE",
"358 1516 OFFCURVE",
"422 1516 CURVE SMOOTH",
"493 1516 OFFCURVE",
"538 1472 OFFCURVE",
"538 1399 CURVE SMOOTH",
"538 1328 OFFCURVE",
"491 1282 OFFCURVE",
"422 1282 CURVE SMOOTH",
"358 1282 OFFCURVE",
"307 1320 OFFCURVE",
"307 1399 CURVE SMOOTH"
);
},
{
closed = 1;
nodes = (
"700 1482 OFFCURVE",
"751 1516 OFFCURVE",
"815 1516 CURVE SMOOTH",
"886 1516 OFFCURVE",
"932 1472 OFFCURVE",
"932 1399 CURVE SMOOTH",
"932 1327 OFFCURVE",
"883 1282 OFFCURVE",
"815 1282 CURVE SMOOTH",
"751 1282 OFFCURVE",
"700 1320 OFFCURVE",
"700 1399 CURVE SMOOTH"
);
}
);
width = 1180;
}
);
unicode = 00EB;
},
{
glyphname = igrave;
layers = (
{
layerId = "89C6725D-D8C2-4468-AE05-6812C209F477";
name = Bold;
paths = (
{
closed = 1;
nodes = (
"403 0 LINE",
"168 0 LINE",
"168 1106 LINE",
"403 1106 LINE"
);
},
{
closed = 1;
nodes = (
"259 1241 LINE",
"167 1310 OFFCURVE",
"-5 1471 OFFCURVE",
"-69 1548 CURVE",
"-69 1569 LINE",
"204 1569 LINE",
"255 1476 OFFCURVE",
"358 1334 OFFCURVE",
"417 1266 CURVE",
"417 1241 LINE"
);
}
);
width = 571;
}
);
unicode = 00EC;
},
{
glyphname = iacute;
layers = (
{
layerId = "89C6725D-D8C2-4468-AE05-6812C209F477";
name = Bold;
paths = (
{
closed = 1;
nodes = (
"403 0 LINE",
"168 0 LINE",
"168 1106 LINE",
"403 1106 LINE"
);
},
{
closed = 1;
nodes = (
"156 1241 LINE",
"156 1266 LINE",
"232 1359 OFFCURVE",
"322 1488 OFFCURVE",
"369 1569 CURVE",
"642 1569 LINE",
"642 1548 LINE",
"573 1467 OFFCURVE",
"407 1312 OFFCURVE",
"312 1241 CURVE"
);
}
);
width = 571;
}
);
unicode = 00ED;
},
{
glyphname = icircumflex;
layers = (
{
layerId = "89C6725D-D8C2-4468-AE05-6812C209F477";
name = Bold;
paths = (
{
closed = 1;
nodes = (
"403 0 LINE",
"168 0 LINE",
"168 1106 LINE",
"403 1106 LINE"
);
},
{
closed = 1;
nodes = (
"511 1241 LINE",
"429 1290 OFFCURVE",
"353 1350 OFFCURVE",
"283 1421 CURVE",
"214 1352 OFFCURVE",
"139 1292 OFFCURVE",
"58 1241 CURVE",
"-100 1241 LINE",
"-100 1266 LINE",
"27 1398 OFFCURVE",
"112 1499 OFFCURVE",
"154 1569 CURVE",
"414 1569 LINE",
"456 1496 OFFCURVE",
"541 1395 OFFCURVE",
"670 1266 CURVE",
"670 1241 LINE"
);
}
);
width = 571;
}
);
unicode = 00EE;
},
{
glyphname = idieresis;
layers = (
{
layerId = "89C6725D-D8C2-4468-AE05-6812C209F477";
name = Bold;
paths = (
{
closed = 1;
nodes = (
"403 0 LINE",
"168 0 LINE",
"168 1106 LINE",
"403 1106 LINE"
);
},
{
closed = 1;
nodes = (
"-25 1482 OFFCURVE",
"26 1516 OFFCURVE",
"90 1516 CURVE SMOOTH",
"161 1516 OFFCURVE",
"206 1472 OFFCURVE",
"206 1399 CURVE SMOOTH",
"206 1328 OFFCURVE",
"159 1282 OFFCURVE",
"90 1282 CURVE SMOOTH",
"26 1282 OFFCURVE",
"-25 1320 OFFCURVE",
"-25 1399 CURVE SMOOTH"
);
},
{
closed = 1;
nodes = (
"368 1482 OFFCURVE",
"419 1516 OFFCURVE",
"483 1516 CURVE SMOOTH",
"554 1516 OFFCURVE",
"600 1472 OFFCURVE",
"600 1399 CURVE SMOOTH",
"600 1327 OFFCURVE",
"551 1282 OFFCURVE",
"483 1282 CURVE SMOOTH",
"419 1282 OFFCURVE",
"368 1320 OFFCURVE",
"368 1399 CURVE SMOOTH"
);
}
);
width = 571;
}
);
unicode = 00EF;
},
{
glyphname = eth;
layers = (
{
layerId = "89C6725D-D8C2-4468-AE05-6812C209F477";
name = Bold;
paths = (
{
closed = 1;
nodes = (
"1149 195 OFFCURVE",
"958 -20 OFFCURVE",
"623 -20 CURVE SMOOTH",
"310 -20 OFFCURVE",
"102 176 OFFCURVE",
"102 481 CURVE SMOOTH",
"102 789 OFFCURVE",
"291 981 OFFCURVE",
"584 981 CURVE SMOOTH",
"727 981 OFFCURVE",
"827 944 OFFCURVE",
"885 870 CURVE",
"893 874 LINE",
"852 1000 OFFCURVE",
"776 1115 OFFCURVE",
"666 1219 CURVE",
"416 1069 LINE",
"328 1202 LINE",
"532 1321 LINE",
"475 1360 OFFCURVE",
"419 1394 OFFCURVE",
"365 1423 CURVE",
"449 1569 LINE",
"542 1527 OFFCURVE",
"628 1479 OFFCURVE",
"707 1425 CURVE",
"938 1563 LINE",
"1026 1434 LINE",
"838 1321 LINE",
"1041 1134 OFFCURVE",
"1149 879 OFFCURVE",
"1149 567 CURVE SMOOTH"
);
},
{
closed = 1;
nodes = (
"909 691 OFFCURVE",
"802 799 OFFCURVE",
"627 799 CURVE SMOOTH",
"426 799 OFFCURVE",
"342 688 OFFCURVE",
"342 477 CURVE SMOOTH",
"342 273 OFFCURVE",
"444 162 OFFCURVE",
"627 162 CURVE SMOOTH",
"824 162 OFFCURVE",
"909 285 OFFCURVE",
"909 522 CURVE SMOOTH"
);
}
);
width = 1243;
}
);
unicode = 00F0;
},
{
glyphname = ntilde;
layers = (
{
layerId = "89C6725D-D8C2-4468-AE05-6812C209F477";
name = Bold;
paths = (
{
closed = 1;
nodes = (
"1141 0 LINE",
"905 0 LINE",
"905 680 LINE SMOOTH",
"905 851 OFFCURVE",
"839 934 OFFCURVE",
"690 934 CURVE SMOOTH",
"491 934 OFFCURVE",
"403 827 OFFCURVE",
"403 551 CURVE SMOOTH",
"403 0 LINE",
"168 0 LINE",
"168 1106 LINE",
"352 1106 LINE",
"385 961 LINE",
"397 961 LINE",
"464 1066 OFFCURVE",
"594 1126 OFFCURVE",
"743 1126 CURVE SMOOTH",
"1008 1126 OFFCURVE",
"1141 991 OFFCURVE",
"1141 721 CURVE SMOOTH"
);
},
{
closed = 1;
nodes = (
"753 1241 OFFCURVE",
"699 1269 OFFCURVE",
"647 1298 CURVE SMOOTH",
"595 1326 OFFCURVE",
"545 1354 OFFCURVE",
"500 1354 CURVE SMOOTH",
"446 1354 OFFCURVE",
"410 1316 OFFCURVE",
"391 1239 CURVE",
"269 1239 LINE",
"285 1424 OFFCURVE",
"378 1524 OFFCURVE",
"514 1524 CURVE SMOOTH",
"571 1524 OFFCURVE",
"626 1496 OFFCURVE",
"678 1468 CURVE SMOOTH",
"730 1439 OFFCURVE",
"779 1411 OFFCURVE",
"824 1411 CURVE SMOOTH",
"877 1411 OFFCURVE",
"912 1449 OFFCURVE",
"930 1526 CURVE",
"1055 1526 LINE",
"1039 1347 OFFCURVE",
"948 1241 OFFCURVE",
"809 1241 CURVE SMOOTH"
);
}
);
width = 1300;
}
);
unicode = 00F1;
},
{
glyphname = ograve;
layers = (
{
layerId = "89C6725D-D8C2-4468-AE05-6812C209F477";
name = Bold;
paths = (
{
closed = 1;
nodes = (
"1149 194 OFFCURVE",
"954 -20 OFFCURVE",
"623 -20 CURVE SMOOTH",
"416 -20 OFFCURVE",
"251 76 OFFCURVE",
"166 251 CURVE SMOOTH",
"123 338 OFFCURVE",
"102 440 OFFCURVE",
"102 555 CURVE SMOOTH",
"102 914 OFFCURVE",
"294 1126 OFFCURVE",
"629 1126 CURVE SMOOTH",
"949 1126 OFFCURVE",
"1149 904 OFFCURVE",
"1149 555 CURVE SMOOTH"
);
},
{
closed = 1;
nodes = (
"344 300 OFFCURVE",
"438 172 OFFCURVE",
"627 172 CURVE SMOOTH",
"814 172 OFFCURVE",
"907 300 OFFCURVE",
"907 555 CURVE SMOOTH",
"907 808 OFFCURVE",
"813 934 OFFCURVE",
"625 934 CURVE SMOOTH",
"428 934 OFFCURVE",
"344 799 OFFCURVE",
"344 555 CURVE SMOOTH"
);
},
{
closed = 1;
nodes = (
"621 1241 LINE",
"529 1310 OFFCURVE",
"357 1471 OFFCURVE",
"293 1548 CURVE",
"293 1569 LINE",
"566 1569 LINE",
"617 1476 OFFCURVE",
"720 1334 OFFCURVE",
"779 1266 CURVE",
"779 1241 LINE"
);
}
);
width = 1251;
}
);
unicode = 00F2;
},
{
glyphname = oacute;
layers = (
{
layerId = "89C6725D-D8C2-4468-AE05-6812C209F477";
name = Bold;
paths = (
{
closed = 1;
nodes = (
"1149 194 OFFCURVE",
"954 -20 OFFCURVE",
"623 -20 CURVE SMOOTH",
"416 -20 OFFCURVE",
"251 76 OFFCURVE",
"166 251 CURVE SMOOTH",
"123 338 OFFCURVE",
"102 440 OFFCURVE",
"102 555 CURVE SMOOTH",
"102 914 OFFCURVE",
"294 1126 OFFCURVE",
"629 1126 CURVE SMOOTH",
"949 1126 OFFCURVE",
"1149 904 OFFCURVE",
"1149 555 CURVE SMOOTH"
);
},
{
closed = 1;
nodes = (
"344 300 OFFCURVE",
"438 172 OFFCURVE",
"627 172 CURVE SMOOTH",
"814 172 OFFCURVE",
"907 300 OFFCURVE",
"907 555 CURVE SMOOTH",
"907 808 OFFCURVE",
"813 934 OFFCURVE",
"625 934 CURVE SMOOTH",
"428 934 OFFCURVE",
"344 799 OFFCURVE",
"344 555 CURVE SMOOTH"
);
},
{
closed = 1;
nodes = (
"473 1241 LINE",
"473 1266 LINE",
"549 1359 OFFCURVE",
"639 1488 OFFCURVE",
"686 1569 CURVE",
"959 1569 LINE",
"959 1548 LINE",
"890 1467 OFFCURVE",
"724 1312 OFFCURVE",
"629 1241 CURVE"
);
}
);
width = 1251;
}
);
unicode = 00F3;
},
{
glyphname = ocircumflex;
layers = (
{
layerId = "89C6725D-D8C2-4468-AE05-6812C209F477";
name = Bold;
paths = (
{
closed = 1;
nodes = (
"1149 194 OFFCURVE",
"954 -20 OFFCURVE",
"623 -20 CURVE SMOOTH",
"416 -20 OFFCURVE",
"251 76 OFFCURVE",
"166 251 CURVE SMOOTH",
"123 338 OFFCURVE",
"102 440 OFFCURVE",
"102 555 CURVE SMOOTH",
"102 914 OFFCURVE",
"294 1126 OFFCURVE",
"629 1126 CURVE SMOOTH",
"949 1126 OFFCURVE",
"1149 904 OFFCURVE",
"1149 555 CURVE SMOOTH"
);
},
{
closed = 1;
nodes = (
"344 300 OFFCURVE",
"438 172 OFFCURVE",
"627 172 CURVE SMOOTH",
"814 172 OFFCURVE",
"907 300 OFFCURVE",
"907 555 CURVE SMOOTH",
"907 808 OFFCURVE",
"813 934 OFFCURVE",
"625 934 CURVE SMOOTH",
"428 934 OFFCURVE",
"344 799 OFFCURVE",
"344 555 CURVE SMOOTH"
);
},
{
closed = 1;
nodes = (
"850 1241 LINE",
"768 1290 OFFCURVE",
"692 1350 OFFCURVE",
"622 1421 CURVE",
"553 1352 OFFCURVE",
"478 1292 OFFCURVE",
"397 1241 CURVE",
"239 1241 LINE",
"239 1266 LINE",
"366 1398 OFFCURVE",
"451 1499 OFFCURVE",
"493 1569 CURVE",
"753 1569 LINE",
"795 1496 OFFCURVE",
"880 1395 OFFCURVE",
"1009 1266 CURVE",
"1009 1241 LINE"
);
}
);
width = 1251;
}
);
unicode = 00F4;
},
{
glyphname = otilde;
layers = (
{
layerId = "89C6725D-D8C2-4468-AE05-6812C209F477";
name = Bold;
paths = (
{
closed = 1;
nodes = (
"1149 194 OFFCURVE",
"954 -20 OFFCURVE",
"623 -20 CURVE SMOOTH",
"416 -20 OFFCURVE",
"251 76 OFFCURVE",
"166 251 CURVE SMOOTH",
"123 338 OFFCURVE",
"102 440 OFFCURVE",
"102 555 CURVE SMOOTH",
"102 914 OFFCURVE",
"294 1126 OFFCURVE",
"629 1126 CURVE SMOOTH",
"949 1126 OFFCURVE",
"1149 904 OFFCURVE",
"1149 555 CURVE SMOOTH"
);
},
{
closed = 1;
nodes = (
"344 300 OFFCURVE",
"438 172 OFFCURVE",
"627 172 CURVE SMOOTH",
"814 172 OFFCURVE",
"907 300 OFFCURVE",
"907 555 CURVE SMOOTH",
"907 808 OFFCURVE",
"813 934 OFFCURVE",
"625 934 CURVE SMOOTH",
"428 934 OFFCURVE",
"344 799 OFFCURVE",
"344 555 CURVE SMOOTH"
);
},
{
closed = 1;
nodes = (
"719 1241 OFFCURVE",
"665 1269 OFFCURVE",
"613 1298 CURVE SMOOTH",
"561 1326 OFFCURVE",
"511 1354 OFFCURVE",
"466 1354 CURVE SMOOTH",
"412 1354 OFFCURVE",
"376 1316 OFFCURVE",
"357 1239 CURVE",
"235 1239 LINE",
"251 1424 OFFCURVE",
"344 1524 OFFCURVE",
"480 1524 CURVE SMOOTH",
"537 1524 OFFCURVE",
"592 1496 OFFCURVE",
"644 1468 CURVE SMOOTH",
"696 1439 OFFCURVE",
"745 1411 OFFCURVE",
"790 1411 CURVE SMOOTH",
"843 1411 OFFCURVE",
"878 1449 OFFCURVE",
"896 1526 CURVE",
"1021 1526 LINE",
"1005 1347 OFFCURVE",
"914 1241 OFFCURVE",
"775 1241 CURVE SMOOTH"
);
}
);
width = 1251;
}
);
unicode = 00F5;
},
{
glyphname = odieresis;
layers = (
{
layerId = "89C6725D-D8C2-4468-AE05-6812C209F477";
name = Bold;
paths = (
{
closed = 1;
nodes = (
"1149 194 OFFCURVE",
"954 -20 OFFCURVE",
"623 -20 CURVE SMOOTH",
"416 -20 OFFCURVE",
"251 76 OFFCURVE",
"166 251 CURVE SMOOTH",
"123 338 OFFCURVE",
"102 440 OFFCURVE",
"102 555 CURVE SMOOTH",
"102 914 OFFCURVE",
"294 1126 OFFCURVE",
"629 1126 CURVE SMOOTH",
"949 1126 OFFCURVE",
"1149 904 OFFCURVE",
"1149 555 CURVE SMOOTH"
);
},
{
closed = 1;
nodes = (
"344 300 OFFCURVE",
"438 172 OFFCURVE",
"627 172 CURVE SMOOTH",
"814 172 OFFCURVE",
"907 300 OFFCURVE",
"907 555 CURVE SMOOTH",
"907 808 OFFCURVE",
"813 934 OFFCURVE",
"625 934 CURVE SMOOTH",
"428 934 OFFCURVE",
"344 799 OFFCURVE",
"344 555 CURVE SMOOTH"
);
},
{
closed = 1;
nodes = (
"311 1482 OFFCURVE",
"362 1516 OFFCURVE",
"426 1516 CURVE SMOOTH",
"497 1516 OFFCURVE",
"542 1472 OFFCURVE",
"542 1399 CURVE SMOOTH",
"542 1328 OFFCURVE",
"495 1282 OFFCURVE",
"426 1282 CURVE SMOOTH",
"362 1282 OFFCURVE",
"311 1320 OFFCURVE",
"311 1399 CURVE SMOOTH"
);
},
{
closed = 1;
nodes = (
"704 1482 OFFCURVE",
"755 1516 OFFCURVE",
"819 1516 CURVE SMOOTH",
"890 1516 OFFCURVE",
"936 1472 OFFCURVE",
"936 1399 CURVE SMOOTH",
"936 1327 OFFCURVE",
"887 1282 OFFCURVE",
"819 1282 CURVE SMOOTH",
"755 1282 OFFCURVE",
"704 1320 OFFCURVE",
"704 1399 CURVE SMOOTH"
);
}
);
width = 1251;
}
);
unicode = 00F6;
},
{
glyphname = divide;
layers = (
{
layerId = "89C6725D-D8C2-4468-AE05-6812C209F477";
name = Bold;
paths = (
{
closed = 1;
nodes = (
"96 633 LINE",
"96 811 LINE",
"1073 811 LINE",
"1073 633 LINE"
);
},
{
closed = 1;
nodes = (
"457 458 OFFCURVE",
"499 508 OFFCURVE",
"584 508 CURVE SMOOTH",
"665 508 OFFCURVE",
"709 457 OFFCURVE",
"709 373 CURVE SMOOTH",
"709 289 OFFCURVE",
"660 236 OFFCURVE",
"584 236 CURVE SMOOTH",
"504 236 OFFCURVE",
"457 285 OFFCURVE",
"457 373 CURVE SMOOTH"
);
},
{
closed = 1;
nodes = (
"457 1156 OFFCURVE",
"499 1206 OFFCURVE",
"584 1206 CURVE SMOOTH",
"665 1206 OFFCURVE",
"709 1155 OFFCURVE",
"709 1071 CURVE SMOOTH",
"709 987 OFFCURVE",
"660 934 OFFCURVE",
"584 934 CURVE SMOOTH",
"504 934 OFFCURVE",
"457 983 OFFCURVE",
"457 1071 CURVE SMOOTH"
);
}
);
width = 1169;
}
);
unicode = 00F7;
},
{
glyphname = oslash;
layers = (
{
layerId = "89C6725D-D8C2-4468-AE05-6812C209F477";
name = Bold;
paths = (
{
closed = 1;
nodes = (
"1149 194 OFFCURVE",
"954 -20 OFFCURVE",
"623 -20 CURVE SMOOTH",
"527 -20 OFFCURVE",
"444 -1 OFFCURVE",
"373 37 CURVE",
"297 -72 LINE",
"162 18 LINE",
"244 135 LINE",
"149 238 OFFCURVE",
"102 378 OFFCURVE",
"102 555 CURVE SMOOTH",
"102 914 OFFCURVE",
"294 1126 OFFCURVE",
"629 1126 CURVE SMOOTH",
"725 1126 OFFCURVE",
"811 1105 OFFCURVE",
"887 1063 CURVE",
"956 1163 LINE",
"1092 1071 LINE",
"1014 963 LINE",
"1104 862 OFFCURVE",
"1149 726 OFFCURVE",
"1149 555 CURVE SMOOTH"
);
},
{
closed = 1;
nodes = (
"344 465 OFFCURVE",
"356 392 OFFCURVE",
"381 336 CURVE",
"772 895 LINE",
"732 921 OFFCURVE",
"683 934 OFFCURVE",
"625 934 CURVE SMOOTH",
"428 934 OFFCURVE",
"344 799 OFFCURVE",
"344 555 CURVE SMOOTH"
);
},
{
closed = 1;
nodes = (
"907 636 OFFCURVE",
"896 703 OFFCURVE",
"874 758 CURVE",
"487 205 LINE",
"523 183 OFFCURVE",
"570 172 OFFCURVE",
"627 172 CURVE SMOOTH",
"814 172 OFFCURVE",
"907 300 OFFCURVE",
"907 555 CURVE SMOOTH"
);
}
);
width = 1251;
}
);
unicode = 00F8;
},
{
glyphname = ugrave;
layers = (
{
layerId = "89C6725D-D8C2-4468-AE05-6812C209F477";
name = Bold;
paths = (
{
closed = 1;
nodes = (
"948 0 LINE",
"915 145 LINE",
"903 145 LINE",
"838 42 OFFCURVE",
"712 -20 OFFCURVE",
"557 -20 CURVE SMOOTH",
"289 -20 OFFCURVE",
"158 112 OFFCURVE",
"158 383 CURVE SMOOTH",
"158 1106 LINE",
"395 1106 LINE",
"395 424 LINE SMOOTH",
"395 255 OFFCURVE",
"462 170 OFFCURVE",
"610 170 CURVE SMOOTH",
"807 170 OFFCURVE",
"897 278 OFFCURVE",
"897 555 CURVE SMOOTH",
"897 1106 LINE",
"1133 1106 LINE",
"1133 0 LINE"
);
},
{
closed = 1;
nodes = (
"617 1241 LINE",
"525 1310 OFFCURVE",
"353 1471 OFFCURVE",
"289 1548 CURVE",
"289 1569 LINE",
"562 1569 LINE",
"613 1476 OFFCURVE",
"716 1334 OFFCURVE",
"775 1266 CURVE",
"775 1241 LINE"
);
}
);
width = 1300;
}
);
unicode = 00F9;
},
{
glyphname = uacute;
layers = (
{
layerId = "89C6725D-D8C2-4468-AE05-6812C209F477";
name = Bold;
paths = (
{
closed = 1;
nodes = (
"948 0 LINE",
"915 145 LINE",
"903 145 LINE",
"838 42 OFFCURVE",
"712 -20 OFFCURVE",
"557 -20 CURVE SMOOTH",
"289 -20 OFFCURVE",
"158 112 OFFCURVE",
"158 383 CURVE SMOOTH",
"158 1106 LINE",
"395 1106 LINE",
"395 424 LINE SMOOTH",
"395 255 OFFCURVE",
"462 170 OFFCURVE",
"610 170 CURVE SMOOTH",
"807 170 OFFCURVE",
"897 278 OFFCURVE",
"897 555 CURVE SMOOTH",
"897 1106 LINE",
"1133 1106 LINE",
"1133 0 LINE"
);
},
{
closed = 1;
nodes = (
"501 1241 LINE",
"501 1266 LINE",
"577 1359 OFFCURVE",
"667 1488 OFFCURVE",
"714 1569 CURVE",
"987 1569 LINE",
"987 1548 LINE",
"918 1467 OFFCURVE",
"752 1312 OFFCURVE",
"657 1241 CURVE"
);
}
);
width = 1300;
}
);
unicode = 00FA;
},
{
glyphname = ucircumflex;
layers = (
{
layerId = "89C6725D-D8C2-4468-AE05-6812C209F477";
name = Bold;
paths = (
{
closed = 1;
nodes = (
"948 0 LINE",
"915 145 LINE",
"903 145 LINE",
"838 42 OFFCURVE",
"712 -20 OFFCURVE",
"557 -20 CURVE SMOOTH",
"289 -20 OFFCURVE",
"158 112 OFFCURVE",
"158 383 CURVE SMOOTH",
"158 1106 LINE",
"395 1106 LINE",
"395 424 LINE SMOOTH",
"395 255 OFFCURVE",
"462 170 OFFCURVE",
"610 170 CURVE SMOOTH",
"807 170 OFFCURVE",
"897 278 OFFCURVE",
"897 555 CURVE SMOOTH",
"897 1106 LINE",
"1133 1106 LINE",
"1133 0 LINE"
);
},
{
closed = 1;
nodes = (
"871 1241 LINE",
"789 1290 OFFCURVE",
"713 1350 OFFCURVE",
"643 1421 CURVE",
"574 1352 OFFCURVE",
"499 1292 OFFCURVE",
"418 1241 CURVE",
"260 1241 LINE",
"260 1266 LINE",
"387 1398 OFFCURVE",
"472 1499 OFFCURVE",
"514 1569 CURVE",
"774 1569 LINE",
"816 1496 OFFCURVE",
"901 1395 OFFCURVE",
"1030 1266 CURVE",
"1030 1241 LINE"
);
}
);
width = 1300;
}
);
unicode = 00FB;
},
{
glyphname = udieresis;
layers = (
{
layerId = "89C6725D-D8C2-4468-AE05-6812C209F477";
name = Bold;
paths = (
{
closed = 1;
nodes = (
"948 0 LINE",
"915 145 LINE",
"903 145 LINE",
"838 42 OFFCURVE",
"712 -20 OFFCURVE",
"557 -20 CURVE SMOOTH",
"289 -20 OFFCURVE",
"158 112 OFFCURVE",
"158 383 CURVE SMOOTH",
"158 1106 LINE",
"395 1106 LINE",
"395 424 LINE SMOOTH",
"395 255 OFFCURVE",
"462 170 OFFCURVE",
"610 170 CURVE SMOOTH",
"807 170 OFFCURVE",
"897 278 OFFCURVE",
"897 555 CURVE SMOOTH",
"897 1106 LINE",
"1133 1106 LINE",
"1133 0 LINE"
);
},
{
closed = 1;
nodes = (
"332 1482 OFFCURVE",
"383 1516 OFFCURVE",
"447 1516 CURVE SMOOTH",
"518 1516 OFFCURVE",
"563 1472 OFFCURVE",
"563 1399 CURVE SMOOTH",
"563 1328 OFFCURVE",
"516 1282 OFFCURVE",
"447 1282 CURVE SMOOTH",
"383 1282 OFFCURVE",
"332 1320 OFFCURVE",
"332 1399 CURVE SMOOTH"
);
},
{
closed = 1;
nodes = (
"725 1482 OFFCURVE",
"776 1516 OFFCURVE",
"840 1516 CURVE SMOOTH",
"911 1516 OFFCURVE",
"957 1472 OFFCURVE",
"957 1399 CURVE SMOOTH",
"957 1327 OFFCURVE",
"908 1282 OFFCURVE",
"840 1282 CURVE SMOOTH",
"776 1282 OFFCURVE",
"725 1320 OFFCURVE",
"725 1399 CURVE SMOOTH"
);
}
);
width = 1300;
}
);
unicode = 00FC;
},
{
glyphname = yacute;
layers = (
{
layerId = "89C6725D-D8C2-4468-AE05-6812C209F477";
name = Bold;
paths = (
{
closed = 1;
nodes = (
"0 1106 LINE",
"256 1106 LINE",
"481 479 LINE SMOOTH",
"515 390 OFFCURVE",
"538 306 OFFCURVE",
"549 227 CURVE",
"557 227 LINE",
"563 264 OFFCURVE",
"574 308 OFFCURVE",
"590 361 CURVE SMOOTH",
"606 413 OFFCURVE",
"691 661 OFFCURVE",
"844 1106 CURVE",
"1098 1106 LINE",
"625 -147 LINE SMOOTH",
"539 -377 OFFCURVE",
"396 -492 OFFCURVE",
"195 -492 CURVE SMOOTH",
"143 -492 OFFCURVE",
"92 -486 OFFCURVE",
"43 -475 CURVE",
"43 -289 LINE",
"78 -297 OFFCURVE",
"119 -301 OFFCURVE",
"164 -301 CURVE SMOOTH",
"277 -301 OFFCURVE",
"357 -235 OFFCURVE",
"403 -104 CURVE",
"444 0 LINE"
);
},
{
closed = 1;
nodes = (
"401 1241 LINE",
"401 1266 LINE",
"477 1359 OFFCURVE",
"567 1488 OFFCURVE",
"614 1569 CURVE",
"887 1569 LINE",
"887 1548 LINE",
"818 1467 OFFCURVE",
"652 1312 OFFCURVE",
"557 1241 CURVE"
);
}
);
width = 1098;
}
);
unicode = 00FD;
},
{
glyphname = thorn;
layers = (
{
layerId = "89C6725D-D8C2-4468-AE05-6812C209F477";
name = Bold;
paths = (
{
closed = 1;
nodes = (
"403 961 LINE",
"484 1076 OFFCURVE",
"592 1126 OFFCURVE",
"733 1126 CURVE SMOOTH",
"1008 1126 OFFCURVE",
"1171 914 OFFCURVE",
"1171 555 CURVE SMOOTH",
"1171 192 OFFCURVE",
"1006 -20 OFFCURVE",
"733 -20 CURVE SMOOTH",
"587 -20 OFFCURVE",
"477 30 OFFCURVE",
"403 129 CURVE",
"389 129 LINE",
"397 57 LINE",
"403 -35 LINE",
"403 -492 LINE",
"168 -492 LINE",
"168 1556 LINE",
"403 1556 LINE",
"403 1126 LINE",
"396 988 LINE",
"393 961 LINE"
);
},
{
closed = 1;
nodes = (
"485 934 OFFCURVE",
"403 829 OFFCURVE",
"403 592 CURVE SMOOTH",
"403 555 LINE SMOOTH",
"403 286 OFFCURVE",
"483 172 OFFCURVE",
"676 172 CURVE SMOOTH",
"845 172 OFFCURVE",
"930 300 OFFCURVE",
"930 557 CURVE SMOOTH",
"930 810 OFFCURVE",
"851 934 OFFCURVE",
"674 934 CURVE SMOOTH"
);
}
);
width = 1276;
}
);
unicode = 00FE;
},
{
glyphname = ydieresis;
layers = (
{
layerId = "89C6725D-D8C2-4468-AE05-6812C209F477";
name = Bold;
paths = (
{
closed = 1;
nodes = (
"0 1106 LINE",
"256 1106 LINE",
"481 479 LINE SMOOTH",
"515 390 OFFCURVE",
"538 306 OFFCURVE",
"549 227 CURVE",
"557 227 LINE",
"563 264 OFFCURVE",
"574 308 OFFCURVE",
"590 361 CURVE SMOOTH",
"606 413 OFFCURVE",
"691 661 OFFCURVE",
"844 1106 CURVE",
"1098 1106 LINE",
"625 -147 LINE SMOOTH",
"539 -377 OFFCURVE",
"396 -492 OFFCURVE",
"195 -492 CURVE SMOOTH",
"143 -492 OFFCURVE",
"92 -486 OFFCURVE",
"43 -475 CURVE",
"43 -289 LINE",
"78 -297 OFFCURVE",
"119 -301 OFFCURVE",
"164 -301 CURVE SMOOTH",
"277 -301 OFFCURVE",
"357 -235 OFFCURVE",
"403 -104 CURVE",
"444 0 LINE"
);
},
{
closed = 1;
nodes = (
"239 1482 OFFCURVE",
"290 1516 OFFCURVE",
"354 1516 CURVE SMOOTH",
"425 1516 OFFCURVE",
"470 1472 OFFCURVE",
"470 1399 CURVE SMOOTH",
"470 1328 OFFCURVE",
"423 1282 OFFCURVE",
"354 1282 CURVE SMOOTH",
"290 1282 OFFCURVE",
"239 1320 OFFCURVE",
"239 1399 CURVE SMOOTH"
);
},
{
closed = 1;
nodes = (
"632 1482 OFFCURVE",
"683 1516 OFFCURVE",
"747 1516 CURVE SMOOTH",
"818 1516 OFFCURVE",
"864 1472 OFFCURVE",
"864 1399 CURVE SMOOTH",
"864 1327 OFFCURVE",
"815 1282 OFFCURVE",
"747 1282 CURVE SMOOTH",
"683 1282 OFFCURVE",
"632 1320 OFFCURVE",
"632 1399 CURVE SMOOTH"
);
}
);
width = 1098;
}
);
unicode = 00FF;
},
{
glyphname = Amacron;
layers = (
{
layerId = "89C6725D-D8C2-4468-AE05-6812C209F477";
name = Bold;
paths = (
{
closed = 1;
nodes = (
"1100 0 LINE",
"954 406 LINE",
"395 406 LINE",
"252 0 LINE",
"0 0 LINE",
"547 1468 LINE",
"807 1468 LINE",
"1354 0 LINE"
);
},
{
closed = 1;
nodes = (
"891 612 LINE",
"754 1010 LINE SMOOTH",
"734 1063 OFFCURVE",
"689 1209 OFFCURVE",
"676 1262 CURVE",
"658 1180 OFFCURVE",
"632 1090 OFFCURVE",
"597 993 CURVE SMOOTH",
"465 612 LINE"
);
},
{
closed = 1;
nodes = (
"367 1753 LINE",
"1006 1753 LINE",
"1006 1579 LINE",
"367 1579 LINE"
);
}
);
width = 1354;
}
);
unicode = 0100;
},
{
glyphname = amacron;
layers = (
{
layerId = "89C6725D-D8C2-4468-AE05-6812C209F477";
name = Bold;
paths = (
{
closed = 1;
nodes = (
"860 0 LINE",
"813 154 LINE",
"805 154 LINE",
"698 19 OFFCURVE",
"605 -20 OFFCURVE",
"436 -20 CURVE SMOOTH",
"219 -20 OFFCURVE",
"90 102 OFFCURVE",
"90 317 CURVE SMOOTH",
"90 545 OFFCURVE",
"257 659 OFFCURVE",
"604 670 CURVE SMOOTH",
"795 676 LINE",
"795 735 LINE SMOOTH",
"795 876 OFFCURVE",
"731 946 OFFCURVE",
"592 946 CURVE SMOOTH",
"479 946 OFFCURVE",
"375 907 OFFCURVE",
"279 862 CURVE",
"203 1030 LINE",
"323 1093 OFFCURVE",
"475 1126 OFFCURVE",
"602 1126 CURVE SMOOTH",
"883 1126 OFFCURVE",
"1028 1008 OFFCURVE",
"1028 745 CURVE SMOOTH",
"1028 0 LINE"
);
},
{
closed = 1;
nodes = (
"681 160 OFFCURVE",
"793 260 OFFCURVE",
"793 432 CURVE SMOOTH",
"793 528 LINE",
"651 522 LINE SMOOTH",
"430 514 OFFCURVE",
"334 451 OFFCURVE",
"334 315 CURVE SMOOTH",
"334 216 OFFCURVE",
"393 160 OFFCURVE",
"510 160 CURVE SMOOTH"
);
},
{
closed = 1;
nodes = (
"291 1415 LINE",
"930 1415 LINE",
"930 1241 LINE",
"291 1241 LINE"
);
}
);
width = 1188;
}
);
unicode = 0101;
},
{
glyphname = Abreve;
layers = (
{
layerId = "89C6725D-D8C2-4468-AE05-6812C209F477";
name = Bold;
paths = (
{
closed = 1;
nodes = (
"1100 0 LINE",
"954 406 LINE",
"395 406 LINE",
"252 0 LINE",
"0 0 LINE",
"547 1468 LINE",
"807 1468 LINE",
"1354 0 LINE"
);
},
{
closed = 1;
nodes = (
"891 612 LINE",
"754 1010 LINE SMOOTH",
"734 1063 OFFCURVE",
"689 1209 OFFCURVE",
"676 1262 CURVE",
"658 1180 OFFCURVE",
"632 1090 OFFCURVE",
"597 993 CURVE SMOOTH",
"465 612 LINE"
);
},
{
closed = 1;
nodes = (
"460 1579 OFFCURVE",
"334 1690 OFFCURVE",
"323 1882 CURVE",
"460 1882 LINE",
"467 1818 OFFCURVE",
"496 1781 OFFCURVE",
"550 1765 CURVE SMOOTH",
"577 1757 OFFCURVE",
"618 1753 OFFCURVE",
"673 1753 CURVE SMOOTH",
"813 1753 OFFCURVE",
"877 1798 OFFCURVE",
"886 1882 CURVE",
"1026 1882 LINE",
"1010 1694 OFFCURVE",
"873 1579 OFFCURVE",
"669 1579 CURVE SMOOTH"
);
}
);
width = 1354;
}
);
unicode = 0102;
},
{
glyphname = abreve;
layers = (
{
layerId = "89C6725D-D8C2-4468-AE05-6812C209F477";
name = Bold;
paths = (
{
closed = 1;
nodes = (
"860 0 LINE",
"813 154 LINE",
"805 154 LINE",
"698 19 OFFCURVE",
"605 -20 OFFCURVE",
"436 -20 CURVE SMOOTH",
"219 -20 OFFCURVE",
"90 102 OFFCURVE",
"90 317 CURVE SMOOTH",
"90 545 OFFCURVE",
"257 659 OFFCURVE",
"604 670 CURVE SMOOTH",
"795 676 LINE",
"795 735 LINE SMOOTH",
"795 876 OFFCURVE",
"731 946 OFFCURVE",
"592 946 CURVE SMOOTH",
"479 946 OFFCURVE",
"375 907 OFFCURVE",
"279 862 CURVE",
"203 1030 LINE",
"323 1093 OFFCURVE",
"475 1126 OFFCURVE",
"602 1126 CURVE SMOOTH",
"883 1126 OFFCURVE",
"1028 1008 OFFCURVE",
"1028 745 CURVE SMOOTH",
"1028 0 LINE"
);
},
{
closed = 1;
nodes = (
"681 160 OFFCURVE",
"793 260 OFFCURVE",
"793 432 CURVE SMOOTH",
"793 528 LINE",
"651 522 LINE SMOOTH",
"430 514 OFFCURVE",
"334 451 OFFCURVE",
"334 315 CURVE SMOOTH",
"334 216 OFFCURVE",
"393 160 OFFCURVE",
"510 160 CURVE SMOOTH"
);
},
{
closed = 1;
nodes = (
"390 1241 OFFCURVE",
"264 1352 OFFCURVE",
"253 1544 CURVE",
"390 1544 LINE",
"397 1480 OFFCURVE",
"426 1443 OFFCURVE",
"480 1427 CURVE SMOOTH",
"507 1419 OFFCURVE",
"548 1415 OFFCURVE",
"603 1415 CURVE SMOOTH",
"743 1415 OFFCURVE",
"807 1460 OFFCURVE",
"816 1544 CURVE",
"956 1544 LINE",
"940 1356 OFFCURVE",
"803 1241 OFFCURVE",
"599 1241 CURVE SMOOTH"
);
}
);
width = 1188;
}
);
unicode = 0103;
},
{
glyphname = Aogonek;
layers = (
{
layerId = "89C6725D-D8C2-4468-AE05-6812C209F477";
name = Bold;
paths = (
{
closed = 1;
nodes = (
"1100 0 LINE",
"954 406 LINE",
"395 406 LINE",
"252 0 LINE",
"0 0 LINE",
"547 1468 LINE",
"807 1468 LINE",
"1354 0 LINE"
);
},
{
closed = 1;
nodes = (
"891 612 LINE",
"754 1010 LINE SMOOTH",
"734 1063 OFFCURVE",
"689 1209 OFFCURVE",
"676 1262 CURVE",
"658 1180 OFFCURVE",
"632 1090 OFFCURVE",
"597 993 CURVE SMOOTH",
"465 612 LINE"
);
},
{
closed = 1;
nodes = (
"1108 -292 OFFCURVE",
"1137 -322 OFFCURVE",
"1196 -322 CURVE SMOOTH",
"1225 -322 OFFCURVE",
"1259 -316 OFFCURVE",
"1300 -305 CURVE",
"1300 -449 LINE",
"1254 -462 OFFCURVE",
"1208 -469 OFFCURVE",
"1161 -469 CURVE SMOOTH",
"1010 -469 OFFCURVE",
"932 -388 OFFCURVE",
"932 -260 CURVE SMOOTH",
"932 -173 OFFCURVE",
"977 -95 OFFCURVE",
"1102 0 CURVE",
"1251 0 LINE",
"1159 -88 OFFCURVE",
"1108 -156 OFFCURVE",
"1108 -233 CURVE SMOOTH"
);
}
);
width = 1354;
}
);
unicode = 0104;
},
{
glyphname = aogonek;
layers = (
{
layerId = "89C6725D-D8C2-4468-AE05-6812C209F477";
name = Bold;
paths = (
{
closed = 1;
nodes = (
"860 0 LINE",
"813 154 LINE",
"805 154 LINE",
"698 19 OFFCURVE",
"605 -20 OFFCURVE",
"436 -20 CURVE SMOOTH",
"219 -20 OFFCURVE",
"90 102 OFFCURVE",
"90 317 CURVE SMOOTH",
"90 545 OFFCURVE",
"257 659 OFFCURVE",
"604 670 CURVE SMOOTH",
"795 676 LINE",
"795 735 LINE SMOOTH",
"795 876 OFFCURVE",
"731 946 OFFCURVE",
"592 946 CURVE SMOOTH",
"479 946 OFFCURVE",
"375 907 OFFCURVE",
"279 862 CURVE",
"203 1030 LINE",
"323 1093 OFFCURVE",
"475 1126 OFFCURVE",
"602 1126 CURVE SMOOTH",
"883 1126 OFFCURVE",
"1028 1008 OFFCURVE",
"1028 745 CURVE SMOOTH",
"1028 0 LINE"
);
},
{
closed = 1;
nodes = (
"681 160 OFFCURVE",
"793 260 OFFCURVE",
"793 432 CURVE SMOOTH",
"793 528 LINE",
"651 522 LINE SMOOTH",
"430 514 OFFCURVE",
"334 451 OFFCURVE",
"334 315 CURVE SMOOTH",
"334 216 OFFCURVE",
"393 160 OFFCURVE",
"510 160 CURVE SMOOTH"
);
},
{
closed = 1;
nodes = (
"869 -292 OFFCURVE",
"898 -322 OFFCURVE",
"957 -322 CURVE SMOOTH",
"986 -322 OFFCURVE",
"1020 -316 OFFCURVE",
"1061 -305 CURVE",
"1061 -449 LINE",
"1015 -462 OFFCURVE",
"969 -469 OFFCURVE",
"922 -469 CURVE SMOOTH",
"771 -469 OFFCURVE",
"693 -388 OFFCURVE",
"693 -260 CURVE SMOOTH",
"693 -173 OFFCURVE",
"738 -95 OFFCURVE",
"863 0 CURVE",
"1012 0 LINE",
"920 -88 OFFCURVE",
"869 -156 OFFCURVE",
"869 -233 CURVE SMOOTH"
);
}
);
width = 1188;
}
);
unicode = 0105;
},
{
glyphname = Cacute;
layers = (
{
layerId = "89C6725D-D8C2-4468-AE05-6812C209F477";
name = Bold;
paths = (
{
closed = 1;
nodes = (
"540 1278 OFFCURVE",
"373 1072 OFFCURVE",
"373 729 CURVE SMOOTH",
"373 370 OFFCURVE",
"528 184 OFFCURVE",
"815 184 CURVE SMOOTH",
"939 184 OFFCURVE",
"1051 211 OFFCURVE",
"1176 250 CURVE",
"1176 45 LINE",
"1061 2 OFFCURVE",
"931 -20 OFFCURVE",
"786 -20 CURVE SMOOTH",
"358 -20 OFFCURVE",
"121 248 OFFCURVE",
"121 731 CURVE SMOOTH",
"121 1035 OFFCURVE",
"235 1271 OFFCURVE",
"446 1392 CURVE SMOOTH",
"551 1453 OFFCURVE",
"675 1483 OFFCURVE",
"817 1483 CURVE SMOOTH",
"966 1483 OFFCURVE",
"1104 1452 OFFCURVE",
"1231 1389 CURVE",
"1145 1190 LINE",
"1046 1237 OFFCURVE",
"936 1278 OFFCURVE",
"815 1278 CURVE SMOOTH"
);
},
{
closed = 1;
nodes = (
"626 1579 LINE",
"626 1604 LINE",
"702 1697 OFFCURVE",
"792 1826 OFFCURVE",
"839 1907 CURVE",
"1112 1907 LINE",
"1112 1886 LINE",
"1043 1805 OFFCURVE",
"877 1650 OFFCURVE",
"782 1579 CURVE"
);
}
);
width = 1298;
}
);
unicode = 0106;
},
{
glyphname = cacute;
layers = (
{
layerId = "89C6725D-D8C2-4468-AE05-6812C209F477";
name = Bold;
paths = (
{
closed = 1;
nodes = (
"279 -20 OFFCURVE",
"102 182 OFFCURVE",
"102 547 CURVE SMOOTH",
"102 919 OFFCURVE",
"289 1126 OFFCURVE",
"633 1126 CURVE SMOOTH",
"750 1126 OFFCURVE",
"855 1104 OFFCURVE",
"948 1061 CURVE",
"877 872 LINE",
"778 911 OFFCURVE",
"696 930 OFFCURVE",
"631 930 CURVE SMOOTH",
"440 930 OFFCURVE",
"344 803 OFFCURVE",
"344 549 CURVE SMOOTH",
"344 301 OFFCURVE",
"441 176 OFFCURVE",
"625 176 CURVE SMOOTH",
"730 176 OFFCURVE",
"829 202 OFFCURVE",
"922 254 CURVE",
"922 49 LINE",
"838 0 OFFCURVE",
"750 -20 OFFCURVE",
"614 -20 CURVE SMOOTH"
);
},
{
closed = 1;
nodes = (
"450 1241 LINE",
"450 1266 LINE",
"526 1359 OFFCURVE",
"616 1488 OFFCURVE",
"663 1569 CURVE",
"936 1569 LINE",
"936 1548 LINE",
"867 1467 OFFCURVE",
"701 1312 OFFCURVE",
"606 1241 CURVE"
);
}
);
width = 1014;
}
);
unicode = 0107;
},
{
glyphname = Ccircumflex;
layers = (
{
layerId = "89C6725D-D8C2-4468-AE05-6812C209F477";
name = Bold;
paths = (
{
closed = 1;
nodes = (
"540 1278 OFFCURVE",
"373 1072 OFFCURVE",
"373 729 CURVE SMOOTH",
"373 370 OFFCURVE",
"528 184 OFFCURVE",
"815 184 CURVE SMOOTH",
"939 184 OFFCURVE",
"1051 211 OFFCURVE",
"1176 250 CURVE",
"1176 45 LINE",
"1061 2 OFFCURVE",
"931 -20 OFFCURVE",
"786 -20 CURVE SMOOTH",
"358 -20 OFFCURVE",
"121 248 OFFCURVE",
"121 731 CURVE SMOOTH",
"121 1035 OFFCURVE",
"235 1271 OFFCURVE",
"446 1392 CURVE SMOOTH",
"551 1453 OFFCURVE",
"675 1483 OFFCURVE",
"817 1483 CURVE SMOOTH",
"966 1483 OFFCURVE",
"1104 1452 OFFCURVE",
"1231 1389 CURVE",
"1145 1190 LINE",
"1046 1237 OFFCURVE",
"936 1278 OFFCURVE",
"815 1278 CURVE SMOOTH"
);
},
{
closed = 1;
nodes = (
"1008 1579 LINE",
"926 1628 OFFCURVE",
"850 1688 OFFCURVE",
"780 1759 CURVE",
"711 1690 OFFCURVE",
"636 1630 OFFCURVE",
"555 1579 CURVE",
"397 1579 LINE",
"397 1604 LINE",
"524 1736 OFFCURVE",
"609 1837 OFFCURVE",
"651 1907 CURVE",
"911 1907 LINE",
"953 1834 OFFCURVE",
"1038 1733 OFFCURVE",
"1167 1604 CURVE",
"1167 1579 LINE"
);
}
);
width = 1298;
}
);
unicode = 0108;
},
{
glyphname = ccircumflex;
layers = (
{
layerId = "89C6725D-D8C2-4468-AE05-6812C209F477";
name = Bold;
paths = (
{
closed = 1;
nodes = (
"279 -20 OFFCURVE",
"102 182 OFFCURVE",
"102 547 CURVE SMOOTH",
"102 919 OFFCURVE",
"289 1126 OFFCURVE",
"633 1126 CURVE SMOOTH",
"750 1126 OFFCURVE",
"855 1104 OFFCURVE",
"948 1061 CURVE",
"877 872 LINE",
"778 911 OFFCURVE",
"696 930 OFFCURVE",
"631 930 CURVE SMOOTH",
"440 930 OFFCURVE",
"344 803 OFFCURVE",
"344 549 CURVE SMOOTH",
"344 301 OFFCURVE",
"441 176 OFFCURVE",
"625 176 CURVE SMOOTH",
"730 176 OFFCURVE",
"829 202 OFFCURVE",
"922 254 CURVE",
"922 49 LINE",
"838 0 OFFCURVE",
"750 -20 OFFCURVE",
"614 -20 CURVE SMOOTH"
);
},
{
closed = 1;
nodes = (
"808 1241 LINE",
"726 1290 OFFCURVE",
"650 1350 OFFCURVE",
"580 1421 CURVE",
"511 1352 OFFCURVE",
"436 1292 OFFCURVE",
"355 1241 CURVE",
"197 1241 LINE",
"197 1266 LINE",
"324 1398 OFFCURVE",
"409 1499 OFFCURVE",
"451 1569 CURVE",
"711 1569 LINE",
"753 1496 OFFCURVE",
"838 1395 OFFCURVE",
"967 1266 CURVE",
"967 1241 LINE"
);
}
);
width = 1014;
}
);
unicode = 0109;
},
{
glyphname = Cdot;
layers = (
{
layerId = "89C6725D-D8C2-4468-AE05-6812C209F477";
name = Bold;
paths = (
{
closed = 1;
nodes = (
"540 1278 OFFCURVE",
"373 1072 OFFCURVE",
"373 729 CURVE SMOOTH",
"373 370 OFFCURVE",
"528 184 OFFCURVE",
"815 184 CURVE SMOOTH",
"939 184 OFFCURVE",
"1051 211 OFFCURVE",
"1176 250 CURVE",
"1176 45 LINE",
"1061 2 OFFCURVE",
"931 -20 OFFCURVE",
"786 -20 CURVE SMOOTH",
"358 -20 OFFCURVE",
"121 248 OFFCURVE",
"121 731 CURVE SMOOTH",
"121 1035 OFFCURVE",
"235 1271 OFFCURVE",
"446 1392 CURVE SMOOTH",
"551 1453 OFFCURVE",
"675 1483 OFFCURVE",
"817 1483 CURVE SMOOTH",
"966 1483 OFFCURVE",
"1104 1452 OFFCURVE",
"1231 1389 CURVE",
"1145 1190 LINE",
"1046 1237 OFFCURVE",
"936 1278 OFFCURVE",
"815 1278 CURVE SMOOTH"
);
},
{
closed = 1;
nodes = (
"660 1821 OFFCURVE",
"708 1868 OFFCURVE",
"793 1868 CURVE SMOOTH",
"876 1868 OFFCURVE",
"924 1821 OFFCURVE",
"924 1737 CURVE SMOOTH",
"924 1657 OFFCURVE",
"876 1608 OFFCURVE",
"793 1608 CURVE SMOOTH",
"708 1608 OFFCURVE",
"660 1657 OFFCURVE",
"660 1737 CURVE SMOOTH"
);
}
);
width = 1298;
}
);
unicode = 010A;
},
{
glyphname = cdot;
layers = (
{
layerId = "89C6725D-D8C2-4468-AE05-6812C209F477";
name = Bold;
paths = (
{
closed = 1;
nodes = (
"279 -20 OFFCURVE",
"102 182 OFFCURVE",
"102 547 CURVE SMOOTH",
"102 919 OFFCURVE",
"289 1126 OFFCURVE",
"633 1126 CURVE SMOOTH",
"750 1126 OFFCURVE",
"855 1104 OFFCURVE",
"948 1061 CURVE",
"877 872 LINE",
"778 911 OFFCURVE",
"696 930 OFFCURVE",
"631 930 CURVE SMOOTH",
"440 930 OFFCURVE",
"344 803 OFFCURVE",
"344 549 CURVE SMOOTH",
"344 301 OFFCURVE",
"441 176 OFFCURVE",
"625 176 CURVE SMOOTH",
"730 176 OFFCURVE",
"829 202 OFFCURVE",
"922 254 CURVE",
"922 49 LINE",
"838 0 OFFCURVE",
"750 -20 OFFCURVE",
"614 -20 CURVE SMOOTH"
);
},
{
closed = 1;
nodes = (
"480 1483 OFFCURVE",
"528 1530 OFFCURVE",
"613 1530 CURVE SMOOTH",
"696 1530 OFFCURVE",
"744 1483 OFFCURVE",
"744 1399 CURVE SMOOTH",
"744 1319 OFFCURVE",
"696 1270 OFFCURVE",
"613 1270 CURVE SMOOTH",
"528 1270 OFFCURVE",
"480 1319 OFFCURVE",
"480 1399 CURVE SMOOTH"
);
}
);
width = 1014;
}
);
unicode = 010B;
},
{
glyphname = Ccaron;
layers = (
{
layerId = "89C6725D-D8C2-4468-AE05-6812C209F477";
name = Bold;
paths = (
{
closed = 1;
nodes = (
"540 1278 OFFCURVE",
"373 1072 OFFCURVE",
"373 729 CURVE SMOOTH",
"373 370 OFFCURVE",
"528 184 OFFCURVE",
"815 184 CURVE SMOOTH",
"939 184 OFFCURVE",
"1051 211 OFFCURVE",
"1176 250 CURVE",
"1176 45 LINE",
"1061 2 OFFCURVE",
"931 -20 OFFCURVE",
"786 -20 CURVE SMOOTH",
"358 -20 OFFCURVE",
"121 248 OFFCURVE",
"121 731 CURVE SMOOTH",
"121 1035 OFFCURVE",
"235 1271 OFFCURVE",
"446 1392 CURVE SMOOTH",
"551 1453 OFFCURVE",
"675 1483 OFFCURVE",
"817 1483 CURVE SMOOTH",
"966 1483 OFFCURVE",
"1104 1452 OFFCURVE",
"1231 1389 CURVE",
"1145 1190 LINE",
"1046 1237 OFFCURVE",
"936 1278 OFFCURVE",
"815 1278 CURVE SMOOTH"
);
},
{
closed = 1;
nodes = (
"1179 1907 LINE",
"1179 1880 LINE",
"1095 1793 OFFCURVE",
"1036 1728 OFFCURVE",
"1002 1687 CURVE SMOOTH",
"967 1646 OFFCURVE",
"941 1610 OFFCURVE",
"923 1579 CURVE",
"663 1579 LINE",
"620 1649 OFFCURVE",
"535 1749 OFFCURVE",
"409 1880 CURVE",
"409 1907 LINE",
"567 1907 LINE",
"659 1847 OFFCURVE",
"734 1786 OFFCURVE",
"792 1724 CURVE",
"857 1791 OFFCURVE",
"933 1852 OFFCURVE",
"1020 1907 CURVE"
);
}
);
width = 1298;
}
);
unicode = 010C;
},
{
glyphname = ccaron;
layers = (
{
layerId = "89C6725D-D8C2-4468-AE05-6812C209F477";
name = Bold;
paths = (
{
closed = 1;
nodes = (
"279 -20 OFFCURVE",
"102 182 OFFCURVE",
"102 547 CURVE SMOOTH",
"102 919 OFFCURVE",
"289 1126 OFFCURVE",
"633 1126 CURVE SMOOTH",
"750 1126 OFFCURVE",
"855 1104 OFFCURVE",
"948 1061 CURVE",
"877 872 LINE",
"778 911 OFFCURVE",
"696 930 OFFCURVE",
"631 930 CURVE SMOOTH",
"440 930 OFFCURVE",
"344 803 OFFCURVE",
"344 549 CURVE SMOOTH",
"344 301 OFFCURVE",
"441 176 OFFCURVE",
"625 176 CURVE SMOOTH",
"730 176 OFFCURVE",
"829 202 OFFCURVE",
"922 254 CURVE",
"922 49 LINE",
"838 0 OFFCURVE",
"750 -20 OFFCURVE",
"614 -20 CURVE SMOOTH"
);
},
{
closed = 1;
nodes = (
"992 1569 LINE",
"992 1542 LINE",
"908 1455 OFFCURVE",
"849 1390 OFFCURVE",
"815 1349 CURVE SMOOTH",
"780 1308 OFFCURVE",
"754 1272 OFFCURVE",
"736 1241 CURVE",
"476 1241 LINE",
"433 1311 OFFCURVE",
"348 1411 OFFCURVE",
"222 1542 CURVE",
"222 1569 LINE",
"380 1569 LINE",
"472 1509 OFFCURVE",
"547 1448 OFFCURVE",
"605 1386 CURVE",
"670 1453 OFFCURVE",
"746 1514 OFFCURVE",
"833 1569 CURVE"
);
}
);
width = 1014;
}
);
unicode = 010D;
},
{
glyphname = Dcaron;
layers = (
{
layerId = "89C6725D-D8C2-4468-AE05-6812C209F477";
name = Bold;
paths = (
{
closed = 1;
nodes = (
"1382 262 OFFCURVE",
"1106 0 OFFCURVE",
"602 0 CURVE SMOOTH",
"193 0 LINE",
"193 1462 LINE",
"645 1462 LINE SMOOTH",
"1110 1462 OFFCURVE",
"1382 1200 OFFCURVE",
"1382 745 CURVE SMOOTH"
);
},
{
closed = 1;
nodes = (
"1130 1087 OFFCURVE",
"966 1262 OFFCURVE",
"639 1262 CURVE SMOOTH",
"432 1262 LINE",
"432 201 LINE",
"602 201 LINE SMOOTH",
"954 201 OFFCURVE",
"1130 380 OFFCURVE",
"1130 737 CURVE SMOOTH"
);
},
{
closed = 1;
nodes = (
"1093 1907 LINE",
"1093 1880 LINE",
"1009 1793 OFFCURVE",
"950 1728 OFFCURVE",
"916 1687 CURVE SMOOTH",
"881 1646 OFFCURVE",
"855 1610 OFFCURVE",
"837 1579 CURVE",
"577 1579 LINE",
"534 1649 OFFCURVE",
"449 1749 OFFCURVE",
"323 1880 CURVE",
"323 1907 LINE",
"481 1907 LINE",
"573 1847 OFFCURVE",
"648 1786 OFFCURVE",
"706 1724 CURVE",
"771 1791 OFFCURVE",
"847 1852 OFFCURVE",
"934 1907 CURVE"
);
}
);
width = 1503;
}
);
unicode = 010E;
},
{
glyphname = dcaron;
layers = (
{
layerId = "89C6725D-D8C2-4468-AE05-6812C209F477";
name = Bold;
paths = (
{
closed = 1;
nodes = (
"265 -20 OFFCURVE",
"102 190 OFFCURVE",
"102 551 CURVE SMOOTH",
"102 914 OFFCURVE",
"268 1126 OFFCURVE",
"545 1126 CURVE SMOOTH",
"690 1126 OFFCURVE",
"801 1072 OFFCURVE",
"877 965 CURVE",
"889 965 LINE",
"878 1044 OFFCURVE",
"872 1107 OFFCURVE",
"872 1153 CURVE SMOOTH",
"872 1556 LINE",
"1108 1556 LINE",
"1108 0 LINE",
"924 0 LINE",
"883 145 LINE",
"872 145 LINE",
"797 35 OFFCURVE",
"686 -20 OFFCURVE",
"541 -20 CURVE SMOOTH"
);
},
{
closed = 1;
nodes = (
"797 170 OFFCURVE",
"880 272 OFFCURVE",
"883 516 CURVE SMOOTH",
"883 549 LINE SMOOTH",
"883 828 OFFCURVE",
"795 934 OFFCURVE",
"602 934 CURVE SMOOTH",
"437 934 OFFCURVE",
"344 795 OFFCURVE",
"344 547 CURVE SMOOTH",
"344 302 OFFCURVE",
"431 170 OFFCURVE",
"604 170 CURVE SMOOTH"
);
},
{
closed = 1;
nodes = (
"1200 1253 LINE",
"1231 1358 OFFCURVE",
"1253 1459 OFFCURVE",
"1265 1556 CURVE",
"1491 1556 LINE",
"1491 1536 LINE",
"1460 1453 OFFCURVE",
"1392 1317 OFFCURVE",
"1335 1229 CURVE",
"1200 1229 LINE"
);
}
);
width = 1276;
}
);
unicode = 010F;
},
{
glyphname = Dcroat;
layers = (
{
layerId = "89C6725D-D8C2-4468-AE05-6812C209F477";
name = Bold;
paths = (
{
closed = 1;
nodes = (
"1374 265 OFFCURVE",
"1098 0 OFFCURVE",
"594 0 CURVE SMOOTH",
"193 0 LINE",
"193 623 LINE",
"47 623 LINE",
"47 823 LINE",
"193 823 LINE",
"193 1462 LINE",
"639 1462 LINE SMOOTH",
"1102 1462 OFFCURVE",
"1374 1198 OFFCURVE",
"1374 745 CURVE SMOOTH"
);
},
{
closed = 1;
nodes = (
"1122 1084 OFFCURVE",
"954 1262 OFFCURVE",
"629 1262 CURVE SMOOTH",
"432 1262 LINE",
"432 823 LINE",
"739 823 LINE",
"739 623 LINE",
"432 623 LINE",
"432 201 LINE",
"592 201 LINE SMOOTH",
"945 201 OFFCURVE",
"1122 380 OFFCURVE",
"1122 737 CURVE SMOOTH"
);
}
);
width = 1497;
}
);
unicode = 0110;
},
{
glyphname = dcroat;
layers = (
{
layerId = "89C6725D-D8C2-4468-AE05-6812C209F477";
name = Bold;
paths = (
{
closed = 1;
nodes = (
"262 -20 OFFCURVE",
"102 188 OFFCURVE",
"102 535 CURVE SMOOTH",
"102 904 OFFCURVE",
"250 1096 OFFCURVE",
"541 1096 CURVE SMOOTH",
"689 1096 OFFCURVE",
"801 1042 OFFCURVE",
"877 934 CURVE",
"889 934 LINE",
"885 947 OFFCURVE",
"872 1067 OFFCURVE",
"872 1126 CURVE SMOOTH",
"872 1219 LINE",
"489 1219 LINE",
"489 1382 LINE",
"872 1382 LINE",
"872 1556 LINE",
"1108 1556 LINE",
"1108 1382 LINE",
"1264 1382 LINE",
"1264 1219 LINE",
"1108 1219 LINE",
"1108 0 LINE",
"915 0 LINE",
"872 145 LINE",
"862 145 LINE",
"790 35 OFFCURVE",
"682 -20 OFFCURVE",
"537 -20 CURVE SMOOTH"
);
},
{
closed = 1;
nodes = (
"799 170 OFFCURVE",
"883 271 OFFCURVE",
"883 502 CURVE SMOOTH",
"883 535 LINE SMOOTH",
"883 807 OFFCURVE",
"805 903 OFFCURVE",
"602 903 CURVE SMOOTH",
"435 903 OFFCURVE",
"354 791 OFFCURVE",
"354 532 CURVE SMOOTH",
"354 291 OFFCURVE",
"439 170 OFFCURVE",
"610 170 CURVE SMOOTH"
);
}
);
width = 1292;
}
);
unicode = 0111;
},
{
glyphname = Emacron;
layers = (
{
layerId = "89C6725D-D8C2-4468-AE05-6812C209F477";
name = Bold;
paths = (
{
closed = 1;
nodes = (
"1020 0 LINE",
"193 0 LINE",
"193 1462 LINE",
"1020 1462 LINE",
"1020 1260 LINE",
"432 1260 LINE",
"432 862 LINE",
"983 862 LINE",
"983 662 LINE",
"432 662 LINE",
"432 203 LINE",
"1020 203 LINE"
);
},
{
closed = 1;
nodes = (
"295 1753 LINE",
"934 1753 LINE",
"934 1579 LINE",
"295 1579 LINE"
);
}
);
width = 1143;
}
);
unicode = 0112;
},
{
glyphname = emacron;
layers = (
{
layerId = "89C6725D-D8C2-4468-AE05-6812C209F477";
name = Bold;
paths = (
{
closed = 1;
nodes = (
"307 -20 OFFCURVE",
"102 193 OFFCURVE",
"102 545 CURVE SMOOTH",
"102 906 OFFCURVE",
"293 1126 OFFCURVE",
"608 1126 CURVE SMOOTH",
"900 1126 OFFCURVE",
"1081 938 OFFCURVE",
"1081 627 CURVE SMOOTH",
"1081 500 LINE",
"344 500 LINE",
"351 285 OFFCURVE",
"463 166 OFFCURVE",
"662 166 CURVE SMOOTH",
"793 166 OFFCURVE",
"897 189 OFFCURVE",
"1026 246 CURVE",
"1026 55 LINE",
"911 0 OFFCURVE",
"802 -20 OFFCURVE",
"651 -20 CURVE SMOOTH"
);
},
{
closed = 1;
nodes = (
"459 948 OFFCURVE",
"365 851 OFFCURVE",
"348 670 CURVE",
"850 670 LINE",
"847 853 OFFCURVE",
"757 948 OFFCURVE",
"608 948 CURVE SMOOTH"
);
},
{
closed = 1;
nodes = (
"293 1415 LINE",
"932 1415 LINE",
"932 1241 LINE",
"293 1241 LINE"
);
}
);
width = 1180;
}
);
unicode = 0113;
},
{
glyphname = Ebreve;
layers = (
{
layerId = "89C6725D-D8C2-4468-AE05-6812C209F477";
name = Bold;
paths = (
{
closed = 1;
nodes = (
"1020 0 LINE",
"193 0 LINE",
"193 1462 LINE",
"1020 1462 LINE",
"1020 1260 LINE",
"432 1260 LINE",
"432 862 LINE",
"983 862 LINE",
"983 662 LINE",
"432 662 LINE",
"432 203 LINE",
"1020 203 LINE"
);
},
{
closed = 1;
nodes = (
"396 1579 OFFCURVE",
"270 1690 OFFCURVE",
"259 1882 CURVE",
"396 1882 LINE",
"403 1818 OFFCURVE",
"432 1781 OFFCURVE",
"486 1765 CURVE SMOOTH",
"513 1757 OFFCURVE",
"554 1753 OFFCURVE",
"609 1753 CURVE SMOOTH",
"749 1753 OFFCURVE",
"813 1798 OFFCURVE",
"822 1882 CURVE",
"962 1882 LINE",
"946 1694 OFFCURVE",
"809 1579 OFFCURVE",
"605 1579 CURVE SMOOTH"
);
}
);
width = 1143;
}
);
unicode = 0114;
},
{
glyphname = ebreve;
layers = (
{
layerId = "89C6725D-D8C2-4468-AE05-6812C209F477";
name = Bold;
paths = (
{
closed = 1;
nodes = (
"307 -20 OFFCURVE",
"102 193 OFFCURVE",
"102 545 CURVE SMOOTH",
"102 906 OFFCURVE",
"293 1126 OFFCURVE",
"608 1126 CURVE SMOOTH",
"900 1126 OFFCURVE",
"1081 938 OFFCURVE",
"1081 627 CURVE SMOOTH",
"1081 500 LINE",
"344 500 LINE",
"351 285 OFFCURVE",
"463 166 OFFCURVE",
"662 166 CURVE SMOOTH",
"793 166 OFFCURVE",
"897 189 OFFCURVE",
"1026 246 CURVE",
"1026 55 LINE",
"911 0 OFFCURVE",
"802 -20 OFFCURVE",
"651 -20 CURVE SMOOTH"
);
},
{
closed = 1;
nodes = (
"459 948 OFFCURVE",
"365 851 OFFCURVE",
"348 670 CURVE",
"850 670 LINE",
"847 853 OFFCURVE",
"757 948 OFFCURVE",
"608 948 CURVE SMOOTH"
);
},
{
closed = 1;
nodes = (
"396 1241 OFFCURVE",
"270 1352 OFFCURVE",
"259 1544 CURVE",
"396 1544 LINE",
"403 1480 OFFCURVE",
"432 1443 OFFCURVE",
"486 1427 CURVE SMOOTH",
"513 1419 OFFCURVE",
"554 1415 OFFCURVE",
"609 1415 CURVE SMOOTH",
"749 1415 OFFCURVE",
"813 1460 OFFCURVE",
"822 1544 CURVE",
"962 1544 LINE",
"946 1356 OFFCURVE",
"809 1241 OFFCURVE",
"605 1241 CURVE SMOOTH"
);
}
);
width = 1180;
}
);
unicode = 0115;
},
{
glyphname = Edotaccent;
layers = (
{
layerId = "89C6725D-D8C2-4468-AE05-6812C209F477";
name = Bold;
paths = (
{
closed = 1;
nodes = (
"1020 0 LINE",
"193 0 LINE",
"193 1462 LINE",
"1020 1462 LINE",
"1020 1260 LINE",
"432 1260 LINE",
"432 862 LINE",
"983 862 LINE",
"983 662 LINE",
"432 662 LINE",
"432 203 LINE",
"1020 203 LINE"
);
},
{
closed = 1;
nodes = (
"488 1792 OFFCURVE",
"536 1839 OFFCURVE",
"621 1839 CURVE SMOOTH",
"704 1839 OFFCURVE",
"752 1792 OFFCURVE",
"752 1708 CURVE SMOOTH",
"752 1628 OFFCURVE",
"704 1579 OFFCURVE",
"621 1579 CURVE SMOOTH",
"536 1579 OFFCURVE",
"488 1628 OFFCURVE",
"488 1708 CURVE SMOOTH"
);
}
);
width = 1143;
}
);
unicode = 0116;
},
{
glyphname = edotaccent;
layers = (
{
layerId = "89C6725D-D8C2-4468-AE05-6812C209F477";
name = Bold;
paths = (
{
closed = 1;
nodes = (
"307 -20 OFFCURVE",
"102 193 OFFCURVE",
"102 545 CURVE SMOOTH",
"102 906 OFFCURVE",
"293 1126 OFFCURVE",
"608 1126 CURVE SMOOTH",
"900 1126 OFFCURVE",
"1081 938 OFFCURVE",
"1081 627 CURVE SMOOTH",
"1081 500 LINE",
"344 500 LINE",
"351 285 OFFCURVE",
"463 166 OFFCURVE",
"662 166 CURVE SMOOTH",
"793 166 OFFCURVE",
"897 189 OFFCURVE",
"1026 246 CURVE",
"1026 55 LINE",
"911 0 OFFCURVE",
"802 -20 OFFCURVE",
"651 -20 CURVE SMOOTH"
);
},
{
closed = 1;
nodes = (
"459 948 OFFCURVE",
"365 851 OFFCURVE",
"348 670 CURVE",
"850 670 LINE",
"847 853 OFFCURVE",
"757 948 OFFCURVE",
"608 948 CURVE SMOOTH"
);
},
{
closed = 1;
nodes = (
"484 1483 OFFCURVE",
"532 1530 OFFCURVE",
"617 1530 CURVE SMOOTH",
"700 1530 OFFCURVE",
"748 1483 OFFCURVE",
"748 1399 CURVE SMOOTH",
"748 1319 OFFCURVE",
"700 1270 OFFCURVE",
"617 1270 CURVE SMOOTH",
"532 1270 OFFCURVE",
"484 1319 OFFCURVE",
"484 1399 CURVE SMOOTH"
);
}
);
width = 1180;
}
);
unicode = 0117;
},
{
glyphname = Eogonek;
layers = (
{
layerId = "89C6725D-D8C2-4468-AE05-6812C209F477";
name = Bold;
paths = (
{
closed = 1;
nodes = (
"1020 0 LINE",
"193 0 LINE",
"193 1462 LINE",
"1020 1462 LINE",
"1020 1260 LINE",
"432 1260 LINE",
"432 862 LINE",
"983 862 LINE",
"983 662 LINE",
"432 662 LINE",
"432 203 LINE",
"1020 203 LINE"
);
},
{
closed = 1;
nodes = (
"795 -292 OFFCURVE",
"824 -322 OFFCURVE",
"883 -322 CURVE SMOOTH",
"912 -322 OFFCURVE",
"946 -316 OFFCURVE",
"987 -305 CURVE",
"987 -449 LINE",
"941 -462 OFFCURVE",
"895 -469 OFFCURVE",
"848 -469 CURVE SMOOTH",
"697 -469 OFFCURVE",
"619 -388 OFFCURVE",
"619 -260 CURVE SMOOTH",
"619 -173 OFFCURVE",
"664 -95 OFFCURVE",
"789 0 CURVE",
"938 0 LINE",
"846 -88 OFFCURVE",
"795 -156 OFFCURVE",
"795 -233 CURVE SMOOTH"
);
}
);
width = 1143;
}
);
unicode = 0118;
},
{
glyphname = eogonek;
layers = (
{
layerId = "89C6725D-D8C2-4468-AE05-6812C209F477";
name = Bold;
paths = (
{
closed = 1;
nodes = (
"307 -20 OFFCURVE",
"102 193 OFFCURVE",
"102 545 CURVE SMOOTH",
"102 906 OFFCURVE",
"293 1126 OFFCURVE",
"608 1126 CURVE SMOOTH",
"900 1126 OFFCURVE",
"1081 938 OFFCURVE",
"1081 627 CURVE SMOOTH",
"1081 500 LINE",
"344 500 LINE",
"351 285 OFFCURVE",
"463 166 OFFCURVE",
"662 166 CURVE SMOOTH",
"793 166 OFFCURVE",
"897 189 OFFCURVE",
"1026 246 CURVE",
"1026 55 LINE",
"911 0 OFFCURVE",
"802 -20 OFFCURVE",
"651 -20 CURVE SMOOTH"
);
},
{
closed = 1;
nodes = (
"459 948 OFFCURVE",
"365 851 OFFCURVE",
"348 670 CURVE",
"850 670 LINE",
"847 853 OFFCURVE",
"757 948 OFFCURVE",
"608 948 CURVE SMOOTH"
);
},
{
closed = 1;
nodes = (
"793 -267 OFFCURVE",
"822 -297 OFFCURVE",
"881 -297 CURVE SMOOTH",
"910 -297 OFFCURVE",
"944 -291 OFFCURVE",
"985 -280 CURVE",
"985 -424 LINE",
"939 -437 OFFCURVE",
"893 -444 OFFCURVE",
"846 -444 CURVE SMOOTH",
"695 -444 OFFCURVE",
"617 -363 OFFCURVE",
"617 -235 CURVE SMOOTH",
"617 -148 OFFCURVE",
"662 -70 OFFCURVE",
"787 25 CURVE",
"936 25 LINE",
"844 -63 OFFCURVE",
"793 -131 OFFCURVE",
"793 -208 CURVE SMOOTH"
);
}
);
width = 1180;
}
);
unicode = 0119;
},
{
glyphname = Ecaron;
layers = (
{
layerId = "89C6725D-D8C2-4468-AE05-6812C209F477";
name = Bold;
paths = (
{
closed = 1;
nodes = (
"1020 0 LINE",
"193 0 LINE",
"193 1462 LINE",
"1020 1462 LINE",
"1020 1260 LINE",
"432 1260 LINE",
"432 862 LINE",
"983 862 LINE",
"983 662 LINE",
"432 662 LINE",
"432 203 LINE",
"1020 203 LINE"
);
},
{
closed = 1;
nodes = (
"999 1907 LINE",
"999 1880 LINE",
"915 1793 OFFCURVE",
"856 1728 OFFCURVE",
"822 1687 CURVE SMOOTH",
"787 1646 OFFCURVE",
"761 1610 OFFCURVE",
"743 1579 CURVE",
"483 1579 LINE",
"440 1649 OFFCURVE",
"355 1749 OFFCURVE",
"229 1880 CURVE",
"229 1907 LINE",
"387 1907 LINE",
"479 1847 OFFCURVE",
"554 1786 OFFCURVE",
"612 1724 CURVE",
"677 1791 OFFCURVE",
"753 1852 OFFCURVE",
"840 1907 CURVE"
);
}
);
width = 1143;
}
);
unicode = 011A;
},
{
glyphname = ecaron;
layers = (
{
layerId = "89C6725D-D8C2-4468-AE05-6812C209F477";
name = Bold;
paths = (
{
closed = 1;
nodes = (
"307 -20 OFFCURVE",
"102 193 OFFCURVE",
"102 545 CURVE SMOOTH",
"102 906 OFFCURVE",
"293 1126 OFFCURVE",
"608 1126 CURVE SMOOTH",
"900 1126 OFFCURVE",
"1081 938 OFFCURVE",
"1081 627 CURVE SMOOTH",
"1081 500 LINE",
"344 500 LINE",
"351 285 OFFCURVE",
"463 166 OFFCURVE",
"662 166 CURVE SMOOTH",
"793 166 OFFCURVE",
"897 189 OFFCURVE",
"1026 246 CURVE",
"1026 55 LINE",
"911 0 OFFCURVE",
"802 -20 OFFCURVE",
"651 -20 CURVE SMOOTH"
);
},
{
closed = 1;
nodes = (
"459 948 OFFCURVE",
"365 851 OFFCURVE",
"348 670 CURVE",
"850 670 LINE",
"847 853 OFFCURVE",
"757 948 OFFCURVE",
"608 948 CURVE SMOOTH"
);
},
{
closed = 1;
nodes = (
"996 1569 LINE",
"996 1542 LINE",
"912 1455 OFFCURVE",
"853 1390 OFFCURVE",
"819 1349 CURVE SMOOTH",
"784 1308 OFFCURVE",
"758 1272 OFFCURVE",
"740 1241 CURVE",
"480 1241 LINE",
"437 1311 OFFCURVE",
"352 1411 OFFCURVE",
"226 1542 CURVE",
"226 1569 LINE",
"384 1569 LINE",
"476 1509 OFFCURVE",
"551 1448 OFFCURVE",
"609 1386 CURVE",
"674 1453 OFFCURVE",
"750 1514 OFFCURVE",
"837 1569 CURVE"
);
}
);
width = 1180;
}
);
unicode = 011B;
},
{
glyphname = Gcircumflex;
layers = (
{
layerId = "89C6725D-D8C2-4468-AE05-6812C209F477";
name = Bold;
paths = (
{
closed = 1;
nodes = (
"791 793 LINE",
"1329 793 LINE",
"1329 59 LINE",
"1153 2 OFFCURVE",
"1001 -20 OFFCURVE",
"813 -20 CURVE SMOOTH",
"370 -20 OFFCURVE",
"121 254 OFFCURVE",
"121 731 CURVE SMOOTH",
"121 1202 OFFCURVE",
"408 1483 OFFCURVE",
"883 1483 CURVE SMOOTH",
"1036 1483 OFFCURVE",
"1180 1454 OFFCURVE",
"1317 1395 CURVE",
"1233 1196 LINE",
"1114 1251 OFFCURVE",
"996 1278 OFFCURVE",
"877 1278 CURVE SMOOTH",
"565 1278 OFFCURVE",
"371 1069 OFFCURVE",
"371 729 CURVE SMOOTH",
"371 372 OFFCURVE",
"539 182 OFFCURVE",
"846 182 CURVE SMOOTH",
"923 182 OFFCURVE",
"1006 192 OFFCURVE",
"1094 211 CURVE",
"1094 588 LINE",
"791 588 LINE"
);
},
{
closed = 1;
nodes = (
"1047 1579 LINE",
"965 1628 OFFCURVE",
"889 1688 OFFCURVE",
"819 1759 CURVE",
"750 1690 OFFCURVE",
"675 1630 OFFCURVE",
"594 1579 CURVE",
"436 1579 LINE",
"436 1604 LINE",
"563 1736 OFFCURVE",
"648 1837 OFFCURVE",
"690 1907 CURVE",
"950 1907 LINE",
"992 1834 OFFCURVE",
"1077 1733 OFFCURVE",
"1206 1604 CURVE",
"1206 1579 LINE"
);
}
);
width = 1487;
}
);
unicode = 011C;
},
{
glyphname = gcircumflex;
layers = (
{
layerId = "89C6725D-D8C2-4468-AE05-6812C209F477";
name = Bold;
paths = (
{
closed = 1;
nodes = (
"1102 1106 LINE",
"1102 977 LINE",
"913 942 LINE",
"948 895 OFFCURVE",
"973 824 OFFCURVE",
"973 748 CURVE SMOOTH",
"973 520 OFFCURVE",
"806 381 OFFCURVE",
"530 381 CURVE SMOOTH",
"495 381 OFFCURVE",
"463 384 OFFCURVE",
"434 389 CURVE",
"383 358 OFFCURVE",
"358 321 OFFCURVE",
"358 279 CURVE SMOOTH",
"358 254 OFFCURVE",
"370 235 OFFCURVE",
"394 222 CURVE SMOOTH",
"417 209 OFFCURVE",
"461 203 OFFCURVE",
"524 203 CURVE SMOOTH",
"717 203 LINE SMOOTH",
"961 203 OFFCURVE",
"1090 96 OFFCURVE",
"1090 -100 CURVE SMOOTH",
"1090 -351 OFFCURVE",
"878 -492 OFFCURVE",
"487 -492 CURVE SMOOTH",
"186 -492 OFFCURVE",
"23 -381 OFFCURVE",
"23 -184 CURVE SMOOTH",
"23 -48 OFFCURVE",
"113 48 OFFCURVE",
"268 84 CURVE",
"205 111 OFFCURVE",
"160 177 OFFCURVE",
"160 242 CURVE SMOOTH",
"160 325 OFFCURVE",
"207 376 OFFCURVE",
"299 432 CURVE",
"184 481 OFFCURVE",
"106 599 OFFCURVE",
"106 748 CURVE SMOOTH",
"106 988 OFFCURVE",
"263 1126 OFFCURVE",
"543 1126 CURVE SMOOTH",
"606 1126 OFFCURVE",
"684 1115 OFFCURVE",
"719 1106 CURVE"
);
},
{
closed = 1;
nodes = (
"233 -273 OFFCURVE",
"329 -330 OFFCURVE",
"494 -330 CURVE SMOOTH",
"750 -330 OFFCURVE",
"874 -250 OFFCURVE",
"874 -129 CURVE SMOOTH",
"874 -33 OFFCURVE",
"818 4 OFFCURVE",
"631 4 CURVE SMOOTH",
"453 4 LINE SMOOTH",
"318 4 OFFCURVE",
"233 -64 OFFCURVE",
"233 -172 CURVE SMOOTH"
);
},
{
closed = 1;
nodes = (
"334 609 OFFCURVE",
"408 532 OFFCURVE",
"541 532 CURVE SMOOTH",
"677 532 OFFCURVE",
"745 605 OFFCURVE",
"745 750 CURVE SMOOTH",
"745 894 OFFCURVE",
"678 975 OFFCURVE",
"541 975 CURVE SMOOTH",
"405 975 OFFCURVE",
"334 896 OFFCURVE",
"334 748 CURVE SMOOTH"
);
},
{
closed = 1;
nodes = (
"794 1241 LINE",
"712 1290 OFFCURVE",
"636 1350 OFFCURVE",
"566 1421 CURVE",
"497 1352 OFFCURVE",
"422 1292 OFFCURVE",
"341 1241 CURVE",
"183 1241 LINE",
"183 1266 LINE",
"310 1398 OFFCURVE",
"395 1499 OFFCURVE",
"437 1569 CURVE",
"697 1569 LINE",
"739 1496 OFFCURVE",
"824 1395 OFFCURVE",
"953 1266 CURVE",
"953 1241 LINE"
);
}
);
width = 1139;
}
);
unicode = 011D;
},
{
glyphname = Gbreve;
layers = (
{
layerId = "89C6725D-D8C2-4468-AE05-6812C209F477";
name = Bold;
paths = (
{
closed = 1;
nodes = (
"791 793 LINE",
"1329 793 LINE",
"1329 59 LINE",
"1153 2 OFFCURVE",
"1001 -20 OFFCURVE",
"813 -20 CURVE SMOOTH",
"370 -20 OFFCURVE",
"121 254 OFFCURVE",
"121 731 CURVE SMOOTH",
"121 1202 OFFCURVE",
"408 1483 OFFCURVE",
"883 1483 CURVE SMOOTH",
"1036 1483 OFFCURVE",
"1180 1454 OFFCURVE",
"1317 1395 CURVE",
"1233 1196 LINE",
"1114 1251 OFFCURVE",
"996 1278 OFFCURVE",
"877 1278 CURVE SMOOTH",
"565 1278 OFFCURVE",
"371 1069 OFFCURVE",
"371 729 CURVE SMOOTH",
"371 372 OFFCURVE",
"539 182 OFFCURVE",
"846 182 CURVE SMOOTH",
"923 182 OFFCURVE",
"1006 192 OFFCURVE",
"1094 211 CURVE",
"1094 588 LINE",
"791 588 LINE"
);
},
{
closed = 1;
nodes = (
"620 1579 OFFCURVE",
"494 1690 OFFCURVE",
"483 1882 CURVE",
"620 1882 LINE",
"627 1818 OFFCURVE",
"656 1781 OFFCURVE",
"710 1765 CURVE SMOOTH",
"737 1757 OFFCURVE",
"778 1753 OFFCURVE",
"833 1753 CURVE SMOOTH",
"973 1753 OFFCURVE",
"1037 1798 OFFCURVE",
"1046 1882 CURVE",
"1186 1882 LINE",
"1170 1694 OFFCURVE",
"1033 1579 OFFCURVE",
"829 1579 CURVE SMOOTH"
);
}
);
width = 1487;
}
);
unicode = 011E;
},
{
glyphname = gbreve;
layers = (
{
layerId = "89C6725D-D8C2-4468-AE05-6812C209F477";
name = Bold;
paths = (
{
closed = 1;
nodes = (
"1102 1106 LINE",
"1102 977 LINE",
"913 942 LINE",
"948 895 OFFCURVE",
"973 824 OFFCURVE",
"973 748 CURVE SMOOTH",
"973 520 OFFCURVE",
"806 381 OFFCURVE",
"530 381 CURVE SMOOTH",
"495 381 OFFCURVE",
"463 384 OFFCURVE",
"434 389 CURVE",
"383 358 OFFCURVE",
"358 321 OFFCURVE",
"358 279 CURVE SMOOTH",
"358 254 OFFCURVE",
"370 235 OFFCURVE",
"394 222 CURVE SMOOTH",
"417 209 OFFCURVE",
"461 203 OFFCURVE",
"524 203 CURVE SMOOTH",
"717 203 LINE SMOOTH",
"961 203 OFFCURVE",
"1090 96 OFFCURVE",
"1090 -100 CURVE SMOOTH",
"1090 -351 OFFCURVE",
"878 -492 OFFCURVE",
"487 -492 CURVE SMOOTH",
"186 -492 OFFCURVE",
"23 -381 OFFCURVE",
"23 -184 CURVE SMOOTH",
"23 -48 OFFCURVE",
"113 48 OFFCURVE",
"268 84 CURVE",
"205 111 OFFCURVE",
"160 177 OFFCURVE",
"160 242 CURVE SMOOTH",
"160 325 OFFCURVE",
"207 376 OFFCURVE",
"299 432 CURVE",
"184 481 OFFCURVE",
"106 599 OFFCURVE",
"106 748 CURVE SMOOTH",
"106 988 OFFCURVE",
"263 1126 OFFCURVE",
"543 1126 CURVE SMOOTH",
"606 1126 OFFCURVE",
"684 1115 OFFCURVE",
"719 1106 CURVE"
);
},
{
closed = 1;
nodes = (
"233 -273 OFFCURVE",
"329 -330 OFFCURVE",
"494 -330 CURVE SMOOTH",
"750 -330 OFFCURVE",
"874 -250 OFFCURVE",
"874 -129 CURVE SMOOTH",
"874 -33 OFFCURVE",
"818 4 OFFCURVE",
"631 4 CURVE SMOOTH",
"453 4 LINE SMOOTH",
"318 4 OFFCURVE",
"233 -64 OFFCURVE",
"233 -172 CURVE SMOOTH"
);
},
{
closed = 1;
nodes = (
"334 609 OFFCURVE",
"408 532 OFFCURVE",
"541 532 CURVE SMOOTH",
"677 532 OFFCURVE",
"745 605 OFFCURVE",
"745 750 CURVE SMOOTH",
"745 894 OFFCURVE",
"678 975 OFFCURVE",
"541 975 CURVE SMOOTH",
"405 975 OFFCURVE",
"334 896 OFFCURVE",
"334 748 CURVE SMOOTH"
);
},
{
closed = 1;
nodes = (
"357 1241 OFFCURVE",
"231 1352 OFFCURVE",
"220 1544 CURVE",
"357 1544 LINE",
"364 1480 OFFCURVE",
"393 1443 OFFCURVE",
"447 1427 CURVE SMOOTH",
"474 1419 OFFCURVE",
"515 1415 OFFCURVE",
"570 1415 CURVE SMOOTH",
"710 1415 OFFCURVE",
"774 1460 OFFCURVE",
"783 1544 CURVE",
"923 1544 LINE",
"907 1356 OFFCURVE",
"770 1241 OFFCURVE",
"566 1241 CURVE SMOOTH"
);
}
);
width = 1139;
}
);
unicode = 011F;
},
{
glyphname = Gdot;
layers = (
{
layerId = "89C6725D-D8C2-4468-AE05-6812C209F477";
name = Bold;
paths = (
{
closed = 1;
nodes = (
"791 793 LINE",
"1329 793 LINE",
"1329 59 LINE",
"1153 2 OFFCURVE",
"1001 -20 OFFCURVE",
"813 -20 CURVE SMOOTH",
"370 -20 OFFCURVE",
"121 254 OFFCURVE",
"121 731 CURVE SMOOTH",
"121 1202 OFFCURVE",
"408 1483 OFFCURVE",
"883 1483 CURVE SMOOTH",
"1036 1483 OFFCURVE",
"1180 1454 OFFCURVE",
"1317 1395 CURVE",
"1233 1196 LINE",
"1114 1251 OFFCURVE",
"996 1278 OFFCURVE",
"877 1278 CURVE SMOOTH",
"565 1278 OFFCURVE",
"371 1069 OFFCURVE",
"371 729 CURVE SMOOTH",
"371 372 OFFCURVE",
"539 182 OFFCURVE",
"846 182 CURVE SMOOTH",
"923 182 OFFCURVE",
"1006 192 OFFCURVE",
"1094 211 CURVE",
"1094 588 LINE",
"791 588 LINE"
);
},
{
closed = 1;
nodes = (
"713 1821 OFFCURVE",
"761 1868 OFFCURVE",
"846 1868 CURVE SMOOTH",
"929 1868 OFFCURVE",
"977 1821 OFFCURVE",
"977 1737 CURVE SMOOTH",
"977 1657 OFFCURVE",
"929 1608 OFFCURVE",
"846 1608 CURVE SMOOTH",
"761 1608 OFFCURVE",
"713 1657 OFFCURVE",
"713 1737 CURVE SMOOTH"
);
}
);
width = 1487;
}
);
unicode = 0120;
},
{
glyphname = gdot;
layers = (
{
layerId = "89C6725D-D8C2-4468-AE05-6812C209F477";
name = Bold;
paths = (
{
closed = 1;
nodes = (
"1102 1106 LINE",
"1102 977 LINE",
"913 942 LINE",
"948 895 OFFCURVE",
"973 824 OFFCURVE",
"973 748 CURVE SMOOTH",
"973 520 OFFCURVE",
"806 381 OFFCURVE",
"530 381 CURVE SMOOTH",
"495 381 OFFCURVE",
"463 384 OFFCURVE",
"434 389 CURVE",
"383 358 OFFCURVE",
"358 321 OFFCURVE",
"358 279 CURVE SMOOTH",
"358 254 OFFCURVE",
"370 235 OFFCURVE",
"394 222 CURVE SMOOTH",
"417 209 OFFCURVE",
"461 203 OFFCURVE",
"524 203 CURVE SMOOTH",
"717 203 LINE SMOOTH",
"961 203 OFFCURVE",
"1090 96 OFFCURVE",
"1090 -100 CURVE SMOOTH",
"1090 -351 OFFCURVE",
"878 -492 OFFCURVE",
"487 -492 CURVE SMOOTH",
"186 -492 OFFCURVE",
"23 -381 OFFCURVE",
"23 -184 CURVE SMOOTH",
"23 -48 OFFCURVE",
"113 48 OFFCURVE",
"268 84 CURVE",
"205 111 OFFCURVE",
"160 177 OFFCURVE",
"160 242 CURVE SMOOTH",
"160 325 OFFCURVE",
"207 376 OFFCURVE",
"299 432 CURVE",
"184 481 OFFCURVE",
"106 599 OFFCURVE",
"106 748 CURVE SMOOTH",
"106 988 OFFCURVE",
"263 1126 OFFCURVE",
"543 1126 CURVE SMOOTH",
"606 1126 OFFCURVE",
"684 1115 OFFCURVE",
"719 1106 CURVE"
);
},
{
closed = 1;
nodes = (
"233 -273 OFFCURVE",
"329 -330 OFFCURVE",
"494 -330 CURVE SMOOTH",
"750 -330 OFFCURVE",
"874 -250 OFFCURVE",
"874 -129 CURVE SMOOTH",
"874 -33 OFFCURVE",
"818 4 OFFCURVE",
"631 4 CURVE SMOOTH",
"453 4 LINE SMOOTH",
"318 4 OFFCURVE",
"233 -64 OFFCURVE",
"233 -172 CURVE SMOOTH"
);
},
{
closed = 1;
nodes = (
"334 609 OFFCURVE",
"408 532 OFFCURVE",
"541 532 CURVE SMOOTH",
"677 532 OFFCURVE",
"745 605 OFFCURVE",
"745 750 CURVE SMOOTH",
"745 894 OFFCURVE",
"678 975 OFFCURVE",
"541 975 CURVE SMOOTH",
"405 975 OFFCURVE",
"334 896 OFFCURVE",
"334 748 CURVE SMOOTH"
);
},
{
closed = 1;
nodes = (
"428 1483 OFFCURVE",
"476 1530 OFFCURVE",
"561 1530 CURVE SMOOTH",
"644 1530 OFFCURVE",
"692 1483 OFFCURVE",
"692 1399 CURVE SMOOTH",
"692 1319 OFFCURVE",
"644 1270 OFFCURVE",
"561 1270 CURVE SMOOTH",
"476 1270 OFFCURVE",
"428 1319 OFFCURVE",
"428 1399 CURVE SMOOTH"
);
}
);
width = 1139;
}
);
unicode = 0121;
},
{
glyphname = Gcommaaccent;
layers = (
{
layerId = "89C6725D-D8C2-4468-AE05-6812C209F477";
name = Bold;
paths = (
{
closed = 1;
nodes = (
"791 793 LINE",
"1329 793 LINE",
"1329 59 LINE",
"1153 2 OFFCURVE",
"1001 -20 OFFCURVE",
"813 -20 CURVE SMOOTH",
"370 -20 OFFCURVE",
"121 254 OFFCURVE",
"121 731 CURVE SMOOTH",
"121 1202 OFFCURVE",
"408 1483 OFFCURVE",
"883 1483 CURVE SMOOTH",
"1036 1483 OFFCURVE",
"1180 1454 OFFCURVE",
"1317 1395 CURVE",
"1233 1196 LINE",
"1114 1251 OFFCURVE",
"996 1278 OFFCURVE",
"877 1278 CURVE SMOOTH",
"565 1278 OFFCURVE",
"371 1069 OFFCURVE",
"371 729 CURVE SMOOTH",
"371 372 OFFCURVE",
"539 182 OFFCURVE",
"846 182 CURVE SMOOTH",
"923 182 OFFCURVE",
"1006 192 OFFCURVE",
"1094 211 CURVE",
"1094 588 LINE",
"791 588 LINE"
);
},
{
closed = 1;
nodes = (
"645 -428 LINE",
"676 -343 OFFCURVE",
"708 -213 OFFCURVE",
"719 -125 CURVE",
"944 -125 LINE",
"944 -145 LINE",
"905 -252 OFFCURVE",
"837 -378 OFFCURVE",
"781 -453 CURVE",
"645 -453 LINE"
);
}
);
width = 1487;
}
);
unicode = 0122;
},
{
glyphname = gcommaaccent;
layers = (
{
layerId = "89C6725D-D8C2-4468-AE05-6812C209F477";
name = Bold;
paths = (
{
closed = 1;
nodes = (
"1102 1106 LINE",
"1102 977 LINE",
"913 942 LINE",
"948 895 OFFCURVE",
"973 824 OFFCURVE",
"973 748 CURVE SMOOTH",
"973 520 OFFCURVE",
"806 381 OFFCURVE",
"530 381 CURVE SMOOTH",
"495 381 OFFCURVE",
"463 384 OFFCURVE",
"434 389 CURVE",
"383 358 OFFCURVE",
"358 321 OFFCURVE",
"358 279 CURVE SMOOTH",
"358 254 OFFCURVE",
"370 235 OFFCURVE",
"394 222 CURVE SMOOTH",
"417 209 OFFCURVE",
"461 203 OFFCURVE",
"524 203 CURVE SMOOTH",
"717 203 LINE SMOOTH",
"961 203 OFFCURVE",
"1090 96 OFFCURVE",
"1090 -100 CURVE SMOOTH",
"1090 -351 OFFCURVE",
"878 -492 OFFCURVE",
"487 -492 CURVE SMOOTH",
"186 -492 OFFCURVE",
"23 -381 OFFCURVE",
"23 -184 CURVE SMOOTH",
"23 -48 OFFCURVE",
"113 48 OFFCURVE",
"268 84 CURVE",
"205 111 OFFCURVE",
"160 177 OFFCURVE",
"160 242 CURVE SMOOTH",
"160 325 OFFCURVE",
"207 376 OFFCURVE",
"299 432 CURVE",
"184 481 OFFCURVE",
"106 599 OFFCURVE",
"106 748 CURVE SMOOTH",
"106 988 OFFCURVE",
"263 1126 OFFCURVE",
"543 1126 CURVE SMOOTH",
"606 1126 OFFCURVE",
"684 1115 OFFCURVE",
"719 1106 CURVE"
);
},
{
closed = 1;
nodes = (
"233 -273 OFFCURVE",
"329 -330 OFFCURVE",
"494 -330 CURVE SMOOTH",
"750 -330 OFFCURVE",
"874 -250 OFFCURVE",
"874 -129 CURVE SMOOTH",
"874 -33 OFFCURVE",
"818 4 OFFCURVE",
"631 4 CURVE SMOOTH",
"453 4 LINE SMOOTH",
"318 4 OFFCURVE",
"233 -64 OFFCURVE",
"233 -172 CURVE SMOOTH"
);
},
{
closed = 1;
nodes = (
"334 609 OFFCURVE",
"408 532 OFFCURVE",
"541 532 CURVE SMOOTH",
"677 532 OFFCURVE",
"745 605 OFFCURVE",
"745 750 CURVE SMOOTH",
"745 894 OFFCURVE",
"678 975 OFFCURVE",
"541 975 CURVE SMOOTH",
"405 975 OFFCURVE",
"334 896 OFFCURVE",
"334 748 CURVE SMOOTH"
);
},
{
closed = 1;
nodes = (
"735 1542 LINE",
"710 1471 OFFCURVE",
"674 1336 OFFCURVE",
"662 1241 CURVE",
"436 1241 LINE",
"436 1260 LINE",
"473 1363 OFFCURVE",
"543 1490 OFFCURVE",
"600 1569 CURVE",
"735 1569 LINE"
);
}
);
width = 1139;
}
);
unicode = 0123;
},
{
glyphname = Hcircumflex;
layers = (
{
layerId = "89C6725D-D8C2-4468-AE05-6812C209F477";
name = Bold;
paths = (
{
closed = 1;
nodes = (
"1346 0 LINE",
"1106 0 LINE",
"1106 659 LINE",
"432 659 LINE",
"432 0 LINE",
"193 0 LINE",
"193 1462 LINE",
"432 1462 LINE",
"432 864 LINE",
"1106 864 LINE",
"1106 1462 LINE",
"1346 1462 LINE"
);
},
{
closed = 1;
nodes = (
"992 1579 LINE",
"910 1628 OFFCURVE",
"834 1688 OFFCURVE",
"764 1759 CURVE",
"695 1690 OFFCURVE",
"620 1630 OFFCURVE",
"539 1579 CURVE",
"381 1579 LINE",
"381 1604 LINE",
"508 1736 OFFCURVE",
"593 1837 OFFCURVE",
"635 1907 CURVE",
"895 1907 LINE",
"937 1834 OFFCURVE",
"1022 1733 OFFCURVE",
"1151 1604 CURVE",
"1151 1579 LINE"
);
}
);
width = 1538;
}
);
unicode = 0124;
},
{
glyphname = hcircumflex;
layers = (
{
layerId = "89C6725D-D8C2-4468-AE05-6812C209F477";
name = Bold;
paths = (
{
closed = 1;
nodes = (
"1141 0 LINE",
"905 0 LINE",
"905 680 LINE SMOOTH",
"905 851 OFFCURVE",
"839 934 OFFCURVE",
"690 934 CURVE SMOOTH",
"493 934 OFFCURVE",
"403 826 OFFCURVE",
"403 549 CURVE SMOOTH",
"403 0 LINE",
"168 0 LINE",
"168 1556 LINE",
"403 1556 LINE",
"403 1161 LINE SMOOTH",
"403 1098 OFFCURVE",
"399 1030 OFFCURVE",
"391 958 CURVE",
"406 958 LINE",
"470 1065 OFFCURVE",
"587 1126 OFFCURVE",
"739 1126 CURVE SMOOTH",
"1007 1126 OFFCURVE",
"1141 991 OFFCURVE",
"1141 721 CURVE SMOOTH"
);
},
{
closed = 1;
nodes = (
"879 1634 LINE",
"797 1683 OFFCURVE",
"721 1743 OFFCURVE",
"651 1814 CURVE",
"582 1745 OFFCURVE",
"507 1685 OFFCURVE",
"426 1634 CURVE",
"268 1634 LINE",
"268 1659 LINE",
"395 1791 OFFCURVE",
"480 1892 OFFCURVE",
"522 1962 CURVE",
"782 1962 LINE",
"824 1889 OFFCURVE",
"909 1788 OFFCURVE",
"1038 1659 CURVE",
"1038 1634 LINE"
);
}
);
width = 1300;
}
);
unicode = 0125;
},
{
glyphname = Hbar;
layers = (
{
layerId = "89C6725D-D8C2-4468-AE05-6812C209F477";
name = Bold;
paths = (
{
closed = 1;
nodes = (
"1346 1241 LINE",
"1538 1241 LINE",
"1538 1071 LINE",
"1346 1071 LINE",
"1346 0 LINE",
"1106 0 LINE",
"1106 659 LINE",
"432 659 LINE",
"432 0 LINE",
"193 0 LINE",
"193 1071 LINE",
"0 1071 LINE",
"0 1241 LINE",
"193 1241 LINE",
"193 1462 LINE",
"432 1462 LINE",
"432 1241 LINE",
"1106 1241 LINE",
"1106 1462 LINE",
"1346 1462 LINE"
);
},
{
closed = 1;
nodes = (
"1106 864 LINE",
"1106 1071 LINE",
"432 1071 LINE",
"432 864 LINE"
);
}
);
width = 1538;
}
);
unicode = 0126;
},
{
glyphname = hbar;
layers = (
{
layerId = "89C6725D-D8C2-4468-AE05-6812C209F477";
name = Bold;
paths = (
{
closed = 1;
nodes = (
"1141 0 LINE",
"905 0 LINE",
"905 631 LINE SMOOTH",
"905 800 OFFCURVE",
"839 885 OFFCURVE",
"690 885 CURVE SMOOTH",
"493 885 OFFCURVE",
"403 777 OFFCURVE",
"403 500 CURVE SMOOTH",
"403 0 LINE",
"168 0 LINE",
"168 1219 LINE",
"12 1219 LINE",
"12 1382 LINE",
"168 1382 LINE",
"168 1556 LINE",
"403 1556 LINE",
"403 1382 LINE",
"784 1382 LINE",
"784 1219 LINE",
"403 1219 LINE",
"403 1112 LINE SMOOTH",
"403 1093 OFFCURVE",
"402 1070 OFFCURVE",
"401 1043 CURVE SMOOTH",
"400 1016 OFFCURVE",
"396 971 OFFCURVE",
"391 909 CURVE",
"406 909 LINE",
"478 1025 OFFCURVE",
"600 1077 OFFCURVE",
"741 1077 CURVE SMOOTH",
"1008 1077 OFFCURVE",
"1141 942 OFFCURVE",
"1141 672 CURVE SMOOTH"
);
}
);
width = 1300;
}
);
unicode = 0127;
},
{
glyphname = Itilde.alt;
layers = (
{
layerId = "89C6725D-D8C2-4468-AE05-6812C209F477";
name = Bold;
paths = (
{
closed = 1;
nodes = (
"664 0 LINE",
"74 0 LINE",
"74 137 LINE",
"250 195 LINE",
"250 1266 LINE",
"74 1325 LINE",
"74 1462 LINE",
"664 1462 LINE",
"664 1325 LINE",
"489 1266 LINE",
"489 195 LINE",
"664 137 LINE"
);
},
{
closed = 1;
nodes = (
"463 1579 OFFCURVE",
"409 1607 OFFCURVE",
"357 1636 CURVE SMOOTH",
"305 1664 OFFCURVE",
"255 1692 OFFCURVE",
"210 1692 CURVE SMOOTH",
"156 1692 OFFCURVE",
"120 1654 OFFCURVE",
"101 1577 CURVE",
"-21 1577 LINE",
"-5 1762 OFFCURVE",
"88 1862 OFFCURVE",
"224 1862 CURVE SMOOTH",
"281 1862 OFFCURVE",
"336 1834 OFFCURVE",
"388 1806 CURVE SMOOTH",
"440 1777 OFFCURVE",
"489 1749 OFFCURVE",
"534 1749 CURVE SMOOTH",
"587 1749 OFFCURVE",
"622 1787 OFFCURVE",
"640 1864 CURVE",
"765 1864 LINE",
"749 1685 OFFCURVE",
"658 1579 OFFCURVE",
"519 1579 CURVE SMOOTH"
);
}
);
width = 739;
}
);
},
{
glyphname = itilde;
layers = (
{
layerId = "89C6725D-D8C2-4468-AE05-6812C209F477";
name = Bold;
paths = (
{
closed = 1;
nodes = (
"403 0 LINE",
"168 0 LINE",
"168 1106 LINE",
"403 1106 LINE"
);
},
{
closed = 1;
nodes = (
"379 1241 OFFCURVE",
"325 1269 OFFCURVE",
"273 1298 CURVE SMOOTH",
"221 1326 OFFCURVE",
"171 1354 OFFCURVE",
"126 1354 CURVE SMOOTH",
"72 1354 OFFCURVE",
"36 1316 OFFCURVE",
"17 1239 CURVE",
"-105 1239 LINE",
"-89 1424 OFFCURVE",
"4 1524 OFFCURVE",
"140 1524 CURVE SMOOTH",
"197 1524 OFFCURVE",
"252 1496 OFFCURVE",
"304 1468 CURVE SMOOTH",
"356 1439 OFFCURVE",
"405 1411 OFFCURVE",
"450 1411 CURVE SMOOTH",
"503 1411 OFFCURVE",
"538 1449 OFFCURVE",
"556 1526 CURVE",
"681 1526 LINE",
"665 1347 OFFCURVE",
"574 1241 OFFCURVE",
"435 1241 CURVE SMOOTH"
);
}
);
width = 571;
}
);
unicode = 0129;
},
{
glyphname = Imacron.alt;
layers = (
{
layerId = "89C6725D-D8C2-4468-AE05-6812C209F477";
name = Bold;
paths = (
{
closed = 1;
nodes = (
"664 0 LINE",
"74 0 LINE",
"74 137 LINE",
"250 195 LINE",
"250 1266 LINE",
"74 1325 LINE",
"74 1462 LINE",
"664 1462 LINE",
"664 1325 LINE",
"489 1266 LINE",
"489 195 LINE",
"664 137 LINE"
);
},
{
closed = 1;
nodes = (
"52 1753 LINE",
"691 1753 LINE",
"691 1579 LINE",
"52 1579 LINE"
);
}
);
width = 739;
}
);
},
{
glyphname = imacron;
layers = (
{
layerId = "89C6725D-D8C2-4468-AE05-6812C209F477";
name = Bold;
paths = (
{
closed = 1;
nodes = (
"403 0 LINE",
"168 0 LINE",
"168 1106 LINE",
"403 1106 LINE"
);
},
{
closed = 1;
nodes = (
"-32 1415 LINE",
"607 1415 LINE",
"607 1241 LINE",
"-32 1241 LINE"
);
}
);
width = 571;
}
);
unicode = 012B;
},
{
glyphname = Ibreve.alt;
layers = (
{
layerId = "89C6725D-D8C2-4468-AE05-6812C209F477";
name = Bold;
paths = (
{
closed = 1;
nodes = (
"664 0 LINE",
"74 0 LINE",
"74 137 LINE",
"250 195 LINE",
"250 1266 LINE",
"74 1325 LINE",
"74 1462 LINE",
"664 1462 LINE",
"664 1325 LINE",
"489 1266 LINE",
"489 195 LINE",
"664 137 LINE"
);
},
{
closed = 1;
nodes = (
"156 1579 OFFCURVE",
"30 1690 OFFCURVE",
"19 1882 CURVE",
"156 1882 LINE",
"163 1818 OFFCURVE",
"192 1781 OFFCURVE",
"246 1765 CURVE SMOOTH",
"273 1757 OFFCURVE",
"314 1753 OFFCURVE",
"369 1753 CURVE SMOOTH",
"509 1753 OFFCURVE",
"573 1798 OFFCURVE",
"582 1882 CURVE",
"722 1882 LINE",
"706 1694 OFFCURVE",
"569 1579 OFFCURVE",
"365 1579 CURVE SMOOTH"
);
}
);
width = 739;
}
);
},
{
glyphname = ibreve;
layers = (
{
layerId = "89C6725D-D8C2-4468-AE05-6812C209F477";
name = Bold;
paths = (
{
closed = 1;
nodes = (
"403 0 LINE",
"168 0 LINE",
"168 1106 LINE",
"403 1106 LINE"
);
},
{
closed = 1;
nodes = (
"70 1241 OFFCURVE",
"-56 1352 OFFCURVE",
"-67 1544 CURVE",
"70 1544 LINE",
"77 1480 OFFCURVE",
"106 1443 OFFCURVE",
"160 1427 CURVE SMOOTH",
"187 1419 OFFCURVE",
"228 1415 OFFCURVE",
"283 1415 CURVE SMOOTH",
"423 1415 OFFCURVE",
"487 1460 OFFCURVE",
"496 1544 CURVE",
"636 1544 LINE",
"620 1356 OFFCURVE",
"483 1241 OFFCURVE",
"279 1241 CURVE SMOOTH"
);
}
);
width = 571;
}
);
unicode = 012D;
},
